<svg width="80" height="72" viewBox="0 0 80 72" fill="none" xmlns="http://www.w3.org/2000/svg">
<path opacity="0.4" d="M79.0983 61.5552L45.7738 3.77826C43.2128 -0.666118 36.7892 -0.666118 34.224 3.77826L0.899507 61.5552C-1.65879 65.9912 1.54394 71.555 6.67303 71.555H73.3234C78.4442 71.555 81.665 65.9996 79.0983 61.5552ZM39.9989 62.6663C39.1199 62.6663 38.2606 62.4056 37.5297 61.9173C36.7989 61.4289 36.2292 60.7348 35.8928 59.9227C35.5565 59.1106 35.4684 58.217 35.6399 57.3548C35.8114 56.4927 36.2347 55.7008 36.8563 55.0792C37.4778 54.4577 38.2697 54.0344 39.1319 53.8629C39.994 53.6914 40.8876 53.7794 41.6997 54.1158C42.5118 54.4522 43.2059 55.0218 43.6943 55.7527C44.1826 56.4836 44.4433 57.3429 44.4433 58.2219C44.4433 59.4006 43.975 60.5311 43.1416 61.3645C42.3081 62.198 41.1776 62.6663 39.9989 62.6663ZM45.3099 29.5543L43.5322 47.3318C43.4774 47.8802 43.2208 48.3886 42.8123 48.7585C42.4037 49.1283 41.8722 49.3331 41.3211 49.3331H38.6823C38.1312 49.3331 37.5997 49.1283 37.1911 48.7585C36.7825 48.3886 36.526 47.8802 36.4712 47.3318L34.6934 29.5543C34.6626 29.2458 34.6967 28.9344 34.7934 28.6399C34.8902 28.3454 35.0475 28.0744 35.2552 27.8443C35.4629 27.6142 35.7164 27.4302 35.9995 27.3039C36.2826 27.1777 36.589 27.112 36.899 27.1112H43.0989C43.4093 27.1113 43.7163 27.1763 44 27.3022C44.2838 27.4281 44.538 27.6121 44.7463 27.8423C44.9547 28.0724 45.1124 28.3437 45.2095 28.6386C45.3066 28.9334 45.3408 29.2454 45.3099 29.5543V29.5543Z" fill="#FF6F6F"/>
</svg>
