<svg width="40" height="40" viewBox="0 0 40 40" fill="none" xmlns="http://www.w3.org/2000/svg">
<rect width="40" height="40" rx="10" fill="#FFF5F4"/>
<g clip-path="url(#clip0_39696_204176)">
<path opacity="0.4" d="M20.0001 6.66669C12.6345 6.66669 6.66675 12.6344 6.66675 20C6.66675 27.3656 12.6345 33.3333 20.0001 33.3333C27.3657 33.3333 33.3334 27.3656 33.3334 20C33.3334 12.6344 27.3657 6.66669 20.0001 6.66669ZM26.5377 23.5C26.5979 23.56 26.6456 23.6312 26.6781 23.7096C26.7107 23.788 26.7275 23.8721 26.7275 23.957C26.7275 24.0419 26.7107 24.126 26.6781 24.2044C26.6456 24.2828 26.5979 24.3541 26.5377 24.414L24.4087 26.5376C24.3487 26.5978 24.2775 26.6455 24.1991 26.6781C24.1207 26.7106 24.0366 26.7274 23.9517 26.7274C23.8668 26.7274 23.7827 26.7106 23.7043 26.6781C23.6259 26.6455 23.5546 26.5978 23.4947 26.5376L20.0001 23.0108L16.5001 26.5376C16.4401 26.5978 16.3689 26.6455 16.2905 26.6781C16.2121 26.7106 16.128 26.7274 16.0431 26.7274C15.9582 26.7274 15.8741 26.7106 15.7957 26.6781C15.7173 26.6455 15.646 26.5978 15.5861 26.5376L13.4624 24.4086C13.4023 24.3487 13.3546 24.2775 13.322 24.199C13.2895 24.1206 13.2727 24.0365 13.2727 23.9516C13.2727 23.8667 13.2895 23.7826 13.322 23.7042C13.3546 23.6258 13.4023 23.5546 13.4624 23.4946L16.9893 20L13.4624 16.5C13.4023 16.4401 13.3546 16.3689 13.322 16.2904C13.2895 16.212 13.2727 16.1279 13.2727 16.043C13.2727 15.9581 13.2895 15.874 13.322 15.7956C13.3546 15.7172 13.4023 15.646 13.4624 15.586L15.5915 13.457C15.6514 13.3969 15.7226 13.3491 15.8011 13.3166C15.8795 13.284 15.9636 13.2673 16.0485 13.2673C16.1334 13.2673 16.2175 13.284 16.2959 13.3166C16.3743 13.3491 16.4455 13.3969 16.5055 13.457L20.0001 16.9893L23.5001 13.4624C23.56 13.4022 23.6312 13.3545 23.7097 13.322C23.7881 13.2894 23.8722 13.2726 23.9571 13.2726C24.042 13.2726 24.1261 13.2894 24.2045 13.322C24.2829 13.3545 24.3541 13.4022 24.4141 13.4624L26.5431 15.5914C26.6032 15.6514 26.651 15.7226 26.6835 15.801C26.7161 15.8794 26.7328 15.9635 26.7328 16.0484C26.7328 16.1333 26.7161 16.2174 26.6835 16.2958C26.651 16.3742 26.6032 16.4455 26.5431 16.5054L23.0108 20L26.5377 23.5Z" fill="#DC241F"/>
<path d="M26.5382 23.4989C26.5984 23.5589 26.6461 23.6301 26.6786 23.7085C26.7112 23.7869 26.728 23.871 26.728 23.9559C26.728 24.0408 26.7112 24.1249 26.6786 24.2033C26.6461 24.2818 26.5984 24.353 26.5382 24.4129L24.4092 26.5366C24.3492 26.5967 24.278 26.6444 24.1996 26.677C24.1212 26.7096 24.0371 26.7263 23.9522 26.7263C23.8673 26.7263 23.7832 26.7096 23.7048 26.677C23.6264 26.6444 23.5551 26.5967 23.4952 26.5366L20.0006 23.0097L16.5006 26.5366C16.4406 26.5967 16.3694 26.6444 16.291 26.677C16.2126 26.7096 16.1285 26.7263 16.0436 26.7263C15.9587 26.7263 15.8746 26.7096 15.7962 26.677C15.7178 26.6444 15.6465 26.5967 15.5866 26.5366L13.4629 24.4075C13.4028 24.3476 13.3551 24.2764 13.3225 24.198C13.29 24.1195 13.2732 24.0355 13.2732 23.9506C13.2732 23.8656 13.29 23.7816 13.3225 23.7031C13.3551 23.6247 13.4028 23.5535 13.4629 23.4936L16.9898 19.9989L13.4629 16.4989C13.4028 16.439 13.3551 16.3678 13.3225 16.2894C13.29 16.2109 13.2732 16.1269 13.2732 16.042C13.2732 15.957 13.29 15.873 13.3225 15.7945C13.3551 15.7161 13.4028 15.6449 13.4629 15.585L15.592 13.4559C15.6519 13.3958 15.7231 13.3481 15.8016 13.3155C15.88 13.2829 15.9641 13.2662 16.049 13.2662C16.1339 13.2662 16.218 13.2829 16.2964 13.3155C16.3748 13.3481 16.446 13.3958 16.506 13.4559L20.0006 16.9882L23.5006 13.4613C23.5605 13.4012 23.6317 13.3534 23.7102 13.3209C23.7886 13.2883 23.8727 13.2716 23.9576 13.2716C24.0425 13.2716 24.1266 13.2883 24.205 13.3209C24.2834 13.3534 24.3546 13.4012 24.4146 13.4613L26.5436 15.5903C26.6037 15.6503 26.6515 15.7215 26.684 15.7999C26.7166 15.8783 26.7333 15.9624 26.7333 16.0473C26.7333 16.1322 26.7166 16.2163 26.684 16.2947C26.6515 16.3732 26.6037 16.4444 26.5436 16.5043L23.0113 19.9989L26.5382 23.4989Z" fill="#DC241F"/>
</g>
<defs>
<clipPath id="clip0_39696_204176">
<rect width="26.6667" height="26.6667" fill="white" transform="translate(6.66675 6.66669)"/>
</clipPath>
</defs>
</svg>
