<svg width="120" height="16" viewBox="0 0 120 16" fill="none" xmlns="http://www.w3.org/2000/svg">
<path d="M7.111 4.849C7.111 4.93567 7.06767 4.979 6.981 4.979H2.366C2.33133 4.979 2.314 4.99633 2.314 5.031V7.826C2.314 7.86067 2.33133 7.878 2.366 7.878H5.538C5.62467 7.878 5.668 7.92133 5.668 8.008V8.827C5.668 8.91367 5.62467 8.957 5.538 8.957H2.366C2.33133 8.957 2.314 8.97433 2.314 9.009V11.869C2.314 11.9037 2.33133 11.921 2.366 11.921H6.981C7.06767 11.921 7.111 11.9643 7.111 12.051V12.87C7.111 12.9567 7.06767 13 6.981 13H1.196C1.10933 13 1.066 12.9567 1.066 12.87V4.03C1.066 3.94333 1.10933 3.9 1.196 3.9H6.981C7.06767 3.9 7.111 3.94333 7.111 4.03V4.849ZM12.7875 4.03C12.7875 3.94333 12.8309 3.9 12.9175 3.9H13.9055C13.9922 3.9 14.0355 3.94333 14.0355 4.03V12.87C14.0355 12.9567 13.9922 13 13.9055 13H12.9175C12.8309 13 12.7875 12.9567 12.7875 12.87V12.441C12.7875 12.4237 12.7789 12.4107 12.7615 12.402C12.7529 12.3933 12.7399 12.3977 12.7225 12.415C12.5319 12.6317 12.3065 12.8007 12.0465 12.922C11.7865 13.0433 11.5049 13.104 11.2015 13.104C10.5775 13.104 10.0575 12.9523 9.64153 12.649C9.2342 12.337 8.9352 11.8993 8.74453 11.336C8.57986 10.8767 8.49753 10.322 8.49753 9.672C8.49753 9.06533 8.56686 8.541 8.70553 8.099C8.88753 7.527 9.18653 7.08067 9.60253 6.76C10.0185 6.43933 10.5515 6.279 11.2015 6.279C11.4962 6.279 11.7735 6.33967 12.0335 6.461C12.3022 6.57367 12.5319 6.73833 12.7225 6.955C12.7399 6.97233 12.7529 6.97667 12.7615 6.968C12.7789 6.95933 12.7875 6.94633 12.7875 6.929V4.03ZM12.4625 11.323C12.6619 10.959 12.7615 10.413 12.7615 9.685C12.7615 8.957 12.6532 8.40233 12.4365 8.021C12.1852 7.579 11.8169 7.358 11.3315 7.358C10.8115 7.358 10.4259 7.566 10.1745 7.982C9.8972 8.41533 9.75853 8.98733 9.75853 9.698C9.75853 10.3653 9.86686 10.9027 10.0835 11.31C10.3349 11.7867 10.7465 12.025 11.3185 12.025C11.8212 12.025 12.2025 11.791 12.4625 11.323ZM16.6191 5.343C16.3764 5.343 16.1771 5.265 16.0211 5.109C15.8651 4.953 15.7871 4.75367 15.7871 4.511C15.7871 4.26833 15.8651 4.069 16.0211 3.913C16.1771 3.757 16.3764 3.679 16.6191 3.679C16.8617 3.679 17.0611 3.757 17.2171 3.913C17.3731 4.069 17.4511 4.26833 17.4511 4.511C17.4511 4.75367 17.3731 4.953 17.2171 5.109C17.0611 5.265 16.8617 5.343 16.6191 5.343ZM16.0991 12.987C16.0124 12.987 15.9691 12.9437 15.9691 12.857V6.513C15.9691 6.42633 16.0124 6.383 16.0991 6.383H17.0871C17.1737 6.383 17.2171 6.42633 17.2171 6.513V12.857C17.2171 12.9437 17.1737 12.987 17.0871 12.987H16.0991ZM22.4416 7.28C22.4416 7.36667 22.3982 7.41 22.3116 7.41H20.9076C20.8729 7.41 20.8556 7.42733 20.8556 7.462V10.907C20.8556 11.271 20.9379 11.5353 21.1026 11.7C21.2672 11.856 21.5229 11.934 21.8696 11.934H22.2466C22.3332 11.934 22.3766 11.9773 22.3766 12.064V12.87C22.3766 12.9567 22.3332 13 22.2466 13C21.9692 13.0173 21.7699 13.026 21.6486 13.026C20.9899 13.026 20.4916 12.909 20.1536 12.675C19.8242 12.4323 19.6596 11.9903 19.6596 11.349V7.462C19.6596 7.42733 19.6422 7.41 19.6076 7.41H18.8146C18.7279 7.41 18.6846 7.36667 18.6846 7.28V6.513C18.6846 6.42633 18.7279 6.383 18.8146 6.383H19.6076C19.6422 6.383 19.6596 6.36567 19.6596 6.331V4.797C19.6596 4.71033 19.7029 4.667 19.7896 4.667H20.7256C20.8122 4.667 20.8556 4.71033 20.8556 4.797V6.331C20.8556 6.36567 20.8729 6.383 20.9076 6.383H22.3116C22.3982 6.383 22.4416 6.42633 22.4416 6.513V7.28Z" fill="black"/>
<path d="M111.333 2.66669H106.667C106.313 2.66669 105.974 2.80716 105.724 3.05721C105.474 3.30726 105.333 3.6464 105.333 4.00002V13.3334C105.333 13.687 105.474 14.0261 105.724 14.2762C105.974 14.5262 106.313 14.6667 106.667 14.6667H116C116.354 14.6667 116.693 14.5262 116.943 14.2762C117.193 14.0261 117.333 13.687 117.333 13.3334V8.66669" stroke="#DC241F" stroke-width="2" stroke-linecap="round" stroke-linejoin="round"/>
<path d="M116.333 1.66659C116.599 1.40138 116.958 1.25238 117.333 1.25238C117.709 1.25238 118.068 1.40138 118.333 1.66659C118.599 1.93181 118.748 2.29152 118.748 2.66659C118.748 3.04167 118.599 3.40138 118.333 3.66659L112 9.99993L109.333 10.6666L110 7.99993L116.333 1.66659Z" stroke="#DC241F" stroke-width="2" stroke-linecap="round" stroke-linejoin="round"/>
</svg>
