<svg width="120" height="16" viewBox="0 0 120 16" fill="none" xmlns="http://www.w3.org/2000/svg">
<path d="M1.196 13C1.10933 13 1.066 12.9567 1.066 12.87V4.03C1.066 3.94333 1.10933 3.9 1.196 3.9H4.342C5.24333 3.9 5.96267 4.13833 6.5 4.615C7.03733 5.083 7.306 5.71133 7.306 6.5V10.4C7.306 11.1887 7.03733 11.8213 6.5 12.298C5.96267 12.766 5.24333 13 4.342 13H1.196ZM2.314 11.869C2.314 11.9037 2.33133 11.921 2.366 11.921H4.394C4.89667 11.921 5.29533 11.7693 5.59 11.466C5.89333 11.154 6.04933 10.738 6.058 10.218V6.682C6.058 6.162 5.90633 5.75033 5.603 5.447C5.30833 5.135 4.90533 4.979 4.394 4.979H2.366C2.33133 4.979 2.314 4.99633 2.314 5.031V11.869ZM14.3021 8.866C14.3368 9.22133 14.3498 9.62 14.3411 10.062C14.3411 10.1487 14.2978 10.192 14.2111 10.192H10.0641C10.0295 10.192 10.0121 10.2093 10.0121 10.244C10.0121 10.5387 10.0381 10.764 10.0901 10.92C10.1855 11.2667 10.3761 11.5397 10.6621 11.739C10.9568 11.9297 11.3251 12.025 11.7671 12.025C12.4085 12.025 12.9025 11.7607 13.2491 11.232C13.2925 11.1453 13.3488 11.1323 13.4181 11.193L14.1591 11.687C14.2198 11.739 14.2328 11.7953 14.1981 11.856C13.9555 12.246 13.6088 12.5537 13.1581 12.779C12.7161 13.0043 12.2135 13.117 11.6501 13.117C11.0175 13.117 10.4845 12.9783 10.0511 12.701C9.6178 12.4237 9.2928 12.0293 9.07613 11.518C8.86813 11.0067 8.76413 10.387 8.76413 9.659C8.76413 9.02633 8.8118 8.54533 8.90713 8.216C9.06313 7.618 9.37513 7.14567 9.84313 6.799C10.3111 6.45233 10.8788 6.279 11.5461 6.279C12.4215 6.279 13.0758 6.5 13.5091 6.942C13.9425 7.37533 14.2068 8.01667 14.3021 8.866ZM11.5461 7.358C11.1735 7.358 10.8658 7.45333 10.6231 7.644C10.3805 7.826 10.2158 8.073 10.1291 8.385C10.0685 8.57567 10.0295 8.81833 10.0121 9.113C10.0121 9.14767 10.0295 9.165 10.0641 9.165H13.0411C13.0758 9.165 13.0931 9.14767 13.0931 9.113C13.0758 8.827 13.0498 8.61467 13.0151 8.476C12.9285 8.138 12.7551 7.86933 12.4951 7.67C12.2438 7.462 11.9275 7.358 11.5461 7.358ZM16.0459 13C15.9592 13 15.9159 12.9567 15.9159 12.87V4.03C15.9159 3.94333 15.9592 3.9 16.0459 3.9H17.0339C17.1205 3.9 17.1639 3.94333 17.1639 4.03V12.87C17.1639 12.9567 17.1205 13 17.0339 13H16.0459ZM24.3314 8.866C24.3661 9.22133 24.3791 9.62 24.3704 10.062C24.3704 10.1487 24.3271 10.192 24.2404 10.192H20.0934C20.0588 10.192 20.0414 10.2093 20.0414 10.244C20.0414 10.5387 20.0674 10.764 20.1194 10.92C20.2148 11.2667 20.4054 11.5397 20.6914 11.739C20.9861 11.9297 21.3544 12.025 21.7964 12.025C22.4378 12.025 22.9318 11.7607 23.2784 11.232C23.3218 11.1453 23.3781 11.1323 23.4474 11.193L24.1884 11.687C24.2491 11.739 24.2621 11.7953 24.2274 11.856C23.9848 12.246 23.6381 12.5537 23.1874 12.779C22.7454 13.0043 22.2428 13.117 21.6794 13.117C21.0468 13.117 20.5138 12.9783 20.0804 12.701C19.6471 12.4237 19.3221 12.0293 19.1054 11.518C18.8974 11.0067 18.7934 10.387 18.7934 9.659C18.7934 9.02633 18.8411 8.54533 18.9364 8.216C19.0924 7.618 19.4044 7.14567 19.8724 6.799C20.3404 6.45233 20.9081 6.279 21.5754 6.279C22.4508 6.279 23.1051 6.5 23.5384 6.942C23.9718 7.37533 24.2361 8.01667 24.3314 8.866ZM21.5754 7.358C21.2028 7.358 20.8951 7.45333 20.6524 7.644C20.4098 7.826 20.2451 8.073 20.1584 8.385C20.0978 8.57567 20.0588 8.81833 20.0414 9.113C20.0414 9.14767 20.0588 9.165 20.0934 9.165H23.0704C23.1051 9.165 23.1224 9.14767 23.1224 9.113C23.1051 8.827 23.0791 8.61467 23.0444 8.476C22.9578 8.138 22.7844 7.86933 22.5244 7.67C22.2731 7.462 21.9568 7.358 21.5754 7.358ZM29.1066 7.28C29.1066 7.36667 29.0633 7.41 28.9766 7.41H27.5726C27.5379 7.41 27.5206 7.42733 27.5206 7.462V10.907C27.5206 11.271 27.6029 11.5353 27.7676 11.7C27.9323 11.856 28.1879 11.934 28.5346 11.934H28.9116C28.9983 11.934 29.0416 11.9773 29.0416 12.064V12.87C29.0416 12.9567 28.9983 13 28.9116 13C28.6343 13.0173 28.4349 13.026 28.3136 13.026C27.6549 13.026 27.1566 12.909 26.8186 12.675C26.4893 12.4323 26.3246 11.9903 26.3246 11.349V7.462C26.3246 7.42733 26.3073 7.41 26.2726 7.41H25.4796C25.3929 7.41 25.3496 7.36667 25.3496 7.28V6.513C25.3496 6.42633 25.3929 6.383 25.4796 6.383H26.2726C26.3073 6.383 26.3246 6.36567 26.3246 6.331V4.797C26.3246 4.71033 26.3679 4.667 26.4546 4.667H27.3906C27.4773 4.667 27.5206 4.71033 27.5206 4.797V6.331C27.5206 6.36567 27.5379 6.383 27.5726 6.383H28.9766C29.0633 6.383 29.1066 6.42633 29.1066 6.513V7.28ZM35.8461 8.866C35.8807 9.22133 35.8937 9.62 35.8851 10.062C35.8851 10.1487 35.8417 10.192 35.7551 10.192H31.6081C31.5734 10.192 31.5561 10.2093 31.5561 10.244C31.5561 10.5387 31.5821 10.764 31.6341 10.92C31.7294 11.2667 31.9201 11.5397 32.2061 11.739C32.5007 11.9297 32.8691 12.025 33.3111 12.025C33.9524 12.025 34.4464 11.7607 34.7931 11.232C34.8364 11.1453 34.8927 11.1323 34.9621 11.193L35.7031 11.687C35.7637 11.739 35.7767 11.7953 35.7421 11.856C35.4994 12.246 35.1527 12.5537 34.7021 12.779C34.2601 13.0043 33.7574 13.117 33.1941 13.117C32.5614 13.117 32.0284 12.9783 31.5951 12.701C31.1617 12.4237 30.8367 12.0293 30.6201 11.518C30.4121 11.0067 30.3081 10.387 30.3081 9.659C30.3081 9.02633 30.3557 8.54533 30.4511 8.216C30.6071 7.618 30.9191 7.14567 31.3871 6.799C31.8551 6.45233 32.4227 6.279 33.0901 6.279C33.9654 6.279 34.6197 6.5 35.0531 6.942C35.4864 7.37533 35.7507 8.01667 35.8461 8.866ZM33.0901 7.358C32.7174 7.358 32.4097 7.45333 32.1671 7.644C31.9244 7.826 31.7597 8.073 31.6731 8.385C31.6124 8.57567 31.5734 8.81833 31.5561 9.113C31.5561 9.14767 31.5734 9.165 31.6081 9.165H34.5851C34.6197 9.165 34.6371 9.14767 34.6371 9.113C34.6197 8.827 34.5937 8.61467 34.5591 8.476C34.4724 8.138 34.2991 7.86933 34.0391 7.67C33.7877 7.462 33.4714 7.358 33.0901 7.358Z" fill="#DC241F"/>
<path d="M106 4H107.333H118" stroke="#DC241F" stroke-width="2" stroke-linecap="round" stroke-linejoin="round"/>
<path d="M109.333 3.99998V2.66665C109.333 2.31302 109.474 1.97389 109.724 1.72384C109.974 1.47379 110.313 1.33331 110.667 1.33331H113.333C113.687 1.33331 114.026 1.47379 114.276 1.72384C114.526 1.97389 114.667 2.31302 114.667 2.66665V3.99998M116.667 3.99998V13.3333C116.667 13.6869 116.526 14.0261 116.276 14.2761C116.026 14.5262 115.687 14.6666 115.333 14.6666H108.667C108.313 14.6666 107.974 14.5262 107.724 14.2761C107.474 14.0261 107.333 13.6869 107.333 13.3333V3.99998H116.667Z" stroke="#DC241F" stroke-width="2" stroke-linecap="round" stroke-linejoin="round"/>
<path d="M110.667 7.33331V11.3333" stroke="#DC241F" stroke-width="2" stroke-linecap="round" stroke-linejoin="round"/>
<path d="M113.333 7.33331V11.3333" stroke="#DC241F" stroke-width="2" stroke-linecap="round" stroke-linejoin="round"/>
</svg>
