<svg width="40" height="40" viewBox="0 0 40 40" fill="none" xmlns="http://www.w3.org/2000/svg">
<rect width="40" height="40" rx="10" fill="#FFF3E2"/>
<g clip-path="url(#clip0_39696_204083)">
<path opacity="0.4" d="M32.5 26.6667H15.8333C15.6123 26.6667 15.4004 26.7545 15.2441 26.9107C15.0878 27.067 15 27.279 15 27.5V29.1667C15 29.3877 15.0878 29.5996 15.2441 29.7559C15.4004 29.9122 15.6123 30 15.8333 30H32.5C32.721 30 32.933 29.9122 33.0893 29.7559C33.2455 29.5996 33.3333 29.3877 33.3333 29.1667V27.5C33.3333 27.279 33.2455 27.067 33.0893 26.9107C32.933 26.7545 32.721 26.6667 32.5 26.6667ZM32.5 10H15.8333C15.6123 10 15.4004 10.0878 15.2441 10.2441C15.0878 10.4004 15 10.6123 15 10.8333V12.5C15 12.721 15.0878 12.933 15.2441 13.0893C15.4004 13.2455 15.6123 13.3333 15.8333 13.3333H32.5C32.721 13.3333 32.933 13.2455 33.0893 13.0893C33.2455 12.933 33.3333 12.721 33.3333 12.5V10.8333C33.3333 10.6123 33.2455 10.4004 33.0893 10.2441C32.933 10.0878 32.721 10 32.5 10V10ZM32.5 18.3333H15.8333C15.6123 18.3333 15.4004 18.4211 15.2441 18.5774C15.0878 18.7337 15 18.9457 15 19.1667V20.8333C15 21.0543 15.0878 21.2663 15.2441 21.4226C15.4004 21.5789 15.6123 21.6667 15.8333 21.6667H32.5C32.721 21.6667 32.933 21.5789 33.0893 21.4226C33.2455 21.2663 33.3333 21.0543 33.3333 20.8333V19.1667C33.3333 18.9457 33.2455 18.7337 33.0893 18.5774C32.933 18.4211 32.721 18.3333 32.5 18.3333Z" fill="#FFB443"/>
<path d="M9.16675 9.16669C8.6723 9.16669 8.18895 9.31331 7.77782 9.58801C7.3667 9.86272 7.04627 10.2532 6.85705 10.71C6.66783 11.1668 6.61832 11.6695 6.71479 12.1544C6.81125 12.6394 7.04935 13.0848 7.39898 13.4345C7.74861 13.7841 8.19407 14.0222 8.67902 14.1186C9.16398 14.2151 9.66664 14.1656 10.1235 13.9764C10.5803 13.7872 10.9707 13.4667 11.2454 13.0556C11.5201 12.6445 11.6667 12.1611 11.6667 11.6667C11.6667 11.0036 11.4034 10.3678 10.9345 9.89892C10.4657 9.43008 9.82979 9.16669 9.16675 9.16669ZM9.16675 17.5C8.6723 17.5 8.18895 17.6466 7.77782 17.9213C7.3667 18.196 7.04627 18.5865 6.85705 19.0433C6.66783 19.5001 6.61832 20.0028 6.71479 20.4877C6.81125 20.9727 7.04935 21.4182 7.39898 21.7678C7.74861 22.1174 8.19407 22.3555 8.67902 22.452C9.16398 22.5484 9.66664 22.4989 10.1235 22.3097C10.5803 22.1205 10.9707 21.8001 11.2454 21.3889C11.5201 20.9778 11.6667 20.4945 11.6667 20C11.6667 19.337 11.4034 18.7011 10.9345 18.2323C10.4657 17.7634 9.82979 17.5 9.16675 17.5ZM9.16675 25.8333C8.6723 25.8333 8.18895 25.98 7.77782 26.2547C7.3667 26.5294 7.04627 26.9198 6.85705 27.3766C6.66783 27.8335 6.61832 28.3361 6.71479 28.8211C6.81125 29.306 7.04935 29.7515 7.39898 30.1011C7.74861 30.4507 8.19407 30.6888 8.67902 30.7853C9.16398 30.8818 9.66664 30.8323 10.1235 30.643C10.5803 30.4538 10.9707 30.1334 11.2454 29.7223C11.5201 29.3111 11.6667 28.8278 11.6667 28.3333C11.6667 27.6703 11.4034 27.0344 10.9345 26.5656C10.4657 26.0967 9.82979 25.8333 9.16675 25.8333Z" fill="#FFB443"/>
</g>
<defs>
<clipPath id="clip0_39696_204083">
<rect width="26.6667" height="26.6667" fill="white" transform="translate(6.66675 6.66669)"/>
</clipPath>
</defs>
</svg>
