<svg width="40" height="40" viewBox="0 0 40 40" fill="none" xmlns="http://www.w3.org/2000/svg">
<rect width="40" height="40" rx="10" fill="#DEFFE1"/>
<g clip-path="url(#clip0_39696_204192)">
<path opacity="0.4" d="M15.3418 21.391L8.95798 14.9587C8.78581 14.7831 8.69016 14.5465 8.69192 14.3005C8.69367 14.0546 8.7927 13.8194 8.96735 13.6462L11.1601 11.4707C11.3357 11.2985 11.5723 11.2029 11.8182 11.2047C12.0642 11.2064 12.2994 11.3054 12.4726 11.4801L16.0262 15.0619L24.2116 6.93269C24.3873 6.7605 24.624 6.66483 24.8701 6.66659C25.1161 6.66835 25.3514 6.76738 25.5246 6.94207L27.708 9.13582C27.8802 9.31153 27.9758 9.54824 27.9741 9.79426C27.9723 10.0403 27.8733 10.2756 27.6986 10.4488L16.6548 21.4004C16.4791 21.5726 16.2424 21.6683 15.9964 21.6665C15.7504 21.6647 15.5151 21.5657 15.3418 21.391Z" fill="#65D170"/>
<path d="M32.9426 15.6247C33.1928 15.877 33.3332 16.2179 33.3332 16.5732C33.3332 16.9285 33.1928 17.2694 32.9426 17.5216L17.6093 32.9404C17.4859 33.0649 17.3391 33.1637 17.1773 33.2312C17.0155 33.2987 16.8419 33.3334 16.6666 33.3334C16.4913 33.3334 16.3177 33.2987 16.1559 33.2312C15.9941 33.1637 15.8473 33.0649 15.7239 32.9404L7.05723 24.2237C6.80695 23.9716 6.6665 23.6308 6.6665 23.2755C6.6665 22.9203 6.80695 22.5794 7.05723 22.3273L8.94265 20.431C9.06603 20.3065 9.21287 20.2076 9.37468 20.1402C9.53648 20.0727 9.71005 20.038 9.88536 20.038C10.0607 20.038 10.2342 20.0727 10.396 20.1402C10.5578 20.2076 10.7047 20.3065 10.8281 20.431L16.6666 26.3018L29.1718 13.7258C29.2953 13.6014 29.4421 13.5026 29.6039 13.4353C29.7657 13.3679 29.9393 13.3332 30.1145 13.3332C30.2898 13.3332 30.4633 13.3679 30.6251 13.4353C30.7869 13.5026 30.9338 13.6014 31.0572 13.7258L32.9426 15.6247Z" fill="#65D170"/>
</g>
<defs>
<clipPath id="clip0_39696_204192">
<rect width="26.6667" height="26.6667" fill="white" transform="translate(6.6665 6.66669)"/>
</clipPath>
</defs>
</svg>
