<svg width="80" height="80" viewBox="0 0 80 80" fill="none" xmlns="http://www.w3.org/2000/svg">
<path opacity="0.4" d="M10 72.5C10 74.4891 10.7902 76.3968 12.1967 77.8033C13.6032 79.2098 15.5109 80 17.5 80H62.5C64.4891 80 66.3968 79.2098 67.8033 77.8033C69.2098 76.3968 70 74.4891 70 72.5V15H10V72.5ZM52.5 27.5C52.5 26.837 52.7634 26.2011 53.2322 25.7322C53.7011 25.2634 54.337 25 55 25C55.663 25 56.2989 25.2634 56.7678 25.7322C57.2366 26.2011 57.5 26.837 57.5 27.5V62.5C57.5 63.163 57.2366 63.7989 56.7678 64.2678C56.2989 64.7366 55.663 65 55 65C54.337 65 53.7011 64.7366 53.2322 64.2678C52.7634 63.7989 52.5 63.163 52.5 62.5V27.5ZM37.5 27.5C37.5 26.837 37.7634 26.2011 38.2322 25.7322C38.7011 25.2634 39.337 25 40 25C40.663 25 41.2989 25.2634 41.7678 25.7322C42.2366 26.2011 42.5 26.837 42.5 27.5V62.5C42.5 63.163 42.2366 63.7989 41.7678 64.2678C41.2989 64.7366 40.663 65 40 65C39.337 65 38.7011 64.7366 38.2322 64.2678C37.7634 63.7989 37.5 63.163 37.5 62.5V27.5ZM22.5 27.5C22.5 26.837 22.7634 26.2011 23.2322 25.7322C23.7011 25.2634 24.337 25 25 25C25.663 25 26.2989 25.2634 26.7678 25.7322C27.2366 26.2011 27.5 26.837 27.5 27.5V62.5C27.5 63.163 27.2366 63.7989 26.7678 64.2678C26.2989 64.7366 25.663 65 25 65C24.337 65 23.7011 64.7366 23.2322 64.2678C22.7634 63.7989 22.5 63.163 22.5 62.5V27.5Z" fill="#FF6F6F"/>
<path d="M72.5 5.00003H53.75L52.2812 2.07815C51.9701 1.45349 51.4909 0.928032 50.8974 0.5609C50.3039 0.193768 49.6197 -0.000473119 48.9219 2.73949e-05H31.0625C30.3662 -0.00264925 29.6833 0.190868 29.0919 0.558408C28.5005 0.925948 28.0246 1.45264 27.7188 2.07815L26.25 5.00003H7.5C6.83696 5.00003 6.20107 5.26342 5.73223 5.73226C5.26339 6.2011 5 6.83699 5 7.50003L5 12.5C5 13.1631 5.26339 13.799 5.73223 14.2678C6.20107 14.7366 6.83696 15 7.5 15H72.5C73.163 15 73.7989 14.7366 74.2678 14.2678C74.7366 13.799 75 13.1631 75 12.5V7.50003C75 6.83699 74.7366 6.2011 74.2678 5.73226C73.7989 5.26342 73.163 5.00003 72.5 5.00003ZM25 25C24.337 25 23.7011 25.2634 23.2322 25.7323C22.7634 26.2011 22.5 26.837 22.5 27.5V62.5C22.5 63.1631 22.7634 63.799 23.2322 64.2678C23.7011 64.7366 24.337 65 25 65C25.663 65 26.2989 64.7366 26.7678 64.2678C27.2366 63.799 27.5 63.1631 27.5 62.5V27.5C27.5 26.837 27.2366 26.2011 26.7678 25.7323C26.2989 25.2634 25.663 25 25 25ZM40 25C39.337 25 38.7011 25.2634 38.2322 25.7323C37.7634 26.2011 37.5 26.837 37.5 27.5V62.5C37.5 63.1631 37.7634 63.799 38.2322 64.2678C38.7011 64.7366 39.337 65 40 65C40.663 65 41.2989 64.7366 41.7678 64.2678C42.2366 63.799 42.5 63.1631 42.5 62.5V27.5C42.5 26.837 42.2366 26.2011 41.7678 25.7323C41.2989 25.2634 40.663 25 40 25ZM55 25C54.337 25 53.7011 25.2634 53.2322 25.7323C52.7634 26.2011 52.5 26.837 52.5 27.5V62.5C52.5 63.1631 52.7634 63.799 53.2322 64.2678C53.7011 64.7366 54.337 65 55 65C55.663 65 56.2989 64.7366 56.7678 64.2678C57.2366 63.799 57.5 63.1631 57.5 62.5V27.5C57.5 26.837 57.2366 26.2011 56.7678 25.7323C56.2989 25.2634 55.663 25 55 25Z" fill="#FF6F6F"/>
</svg>
