<svg width="253" height="150" viewBox="0 0 253 150" fill="none" xmlns="http://www.w3.org/2000/svg">
<path d="M0 12C0 5.37258 5.37258 0 12 0H241C247.627 0 253 5.37258 253 12V138C253 144.627 247.627 150 241 150H12C5.37258 150 0 144.627 0 138V12Z" fill="white"/>
<path opacity="0.4" d="M127 56.5C125.912 56.5 124.849 56.8226 123.944 57.4269C123.04 58.0313 122.335 58.8902 121.919 59.8952C121.502 60.9002 121.393 62.0061 121.606 63.073C121.818 64.1399 122.342 65.1199 123.111 65.8891C123.88 66.6583 124.86 67.1821 125.927 67.3943C126.994 67.6065 128.1 67.4976 129.105 67.0813C130.11 66.6651 130.969 65.9601 131.573 65.0556C132.177 64.1512 132.5 63.0878 132.5 62C132.5 60.5413 131.921 59.1424 130.889 58.1109C129.858 57.0795 128.459 56.5 127 56.5ZM127 60C126.47 60.0015 125.962 60.2127 125.587 60.5874C125.213 60.9622 125.001 61.47 125 62C125 62.2652 124.895 62.5196 124.707 62.7071C124.52 62.8946 124.265 63 124 63C123.735 63 123.48 62.8946 123.293 62.7071C123.105 62.5196 123 62.2652 123 62C123.001 60.9394 123.423 59.9226 124.173 59.1727C124.923 58.4227 125.939 58.001 127 58C127.265 58 127.52 58.1054 127.707 58.2929C127.895 58.4804 128 58.7348 128 59C128 59.2652 127.895 59.5196 127.707 59.7071C127.52 59.8946 127.265 60 127 60ZM141 44H127L123 47H112C111.735 47 111.48 47.1054 111.293 47.2929C111.105 47.4804 111 47.7348 111 48V52H143V46C142.999 45.47 142.787 44.9622 142.413 44.5874C142.038 44.2127 141.53 44.0015 141 44Z" fill="#DC241F"/>
<path d="M122 45C122 44.7348 121.895 44.4804 121.707 44.2929C121.52 44.1054 121.265 44 121 44H115C114.735 44 114.48 44.1054 114.293 44.2929C114.105 44.4804 114 44.7348 114 45V47H122V45ZM111 52V69C111 69.7956 111.316 70.5587 111.879 71.1213C112.441 71.6839 113.204 72 114 72H140C140.796 72 141.559 71.6839 142.121 71.1213C142.684 70.5587 143 69.7956 143 69V52H111ZM127 69.5C125.517 69.5 124.067 69.0601 122.833 68.236C121.6 67.4119 120.639 66.2406 120.071 64.8701C119.503 63.4997 119.355 61.9917 119.644 60.5368C119.934 59.082 120.648 57.7456 121.697 56.6967C122.746 55.6478 124.082 54.9335 125.537 54.6441C126.992 54.3547 128.5 54.5032 129.87 55.0709C131.241 55.6386 132.412 56.5999 133.236 57.8332C134.06 59.0666 134.5 60.5166 134.5 62C134.5 63.9891 133.71 65.8968 132.303 67.3033C130.897 68.7098 128.989 69.5 127 69.5Z" fill="#DC241F"/>
<path d="M80.0985 93.576C80.0985 93.6627 80.0552 93.706 79.9685 93.706H75.1975C75.1628 93.706 75.1455 93.7233 75.1455 93.758V96.969C75.1455 97.0037 75.1628 97.021 75.1975 97.021H78.5385C78.6252 97.021 78.6685 97.0643 78.6685 97.151V97.697C78.6685 97.7837 78.6252 97.827 78.5385 97.827H75.1975C75.1628 97.827 75.1455 97.8443 75.1455 97.879V101.87C75.1455 101.957 75.1022 102 75.0155 102H74.3525C74.2658 102 74.2225 101.957 74.2225 101.87V93.03C74.2225 92.9433 74.2658 92.9 74.3525 92.9H79.9685C80.0552 92.9 80.0985 92.9433 80.0985 93.03V93.576ZM82.0532 94.226C81.8452 94.226 81.6718 94.1567 81.5332 94.018C81.3945 93.8793 81.3252 93.706 81.3252 93.498C81.3252 93.2813 81.3945 93.108 81.5332 92.978C81.6718 92.8393 81.8452 92.77 82.0532 92.77C82.2612 92.77 82.4345 92.8393 82.5732 92.978C82.7118 93.108 82.7812 93.2813 82.7812 93.498C82.7812 93.706 82.7118 93.8793 82.5732 94.018C82.4345 94.1567 82.2612 94.226 82.0532 94.226ZM81.6892 101.987C81.6025 101.987 81.5592 101.944 81.5592 101.857V95.539C81.5592 95.4523 81.6025 95.409 81.6892 95.409H82.3522C82.4388 95.409 82.4822 95.4523 82.4822 95.539V101.857C82.4822 101.944 82.4388 101.987 82.3522 101.987H81.6892ZM84.8726 102C84.786 102 84.7426 101.957 84.7426 101.87V93.03C84.7426 92.9433 84.786 92.9 84.8726 92.9H85.5356C85.6223 92.9 85.6656 92.9433 85.6656 93.03V101.87C85.6656 101.957 85.6223 102 85.5356 102H84.8726ZM92.7827 97.606C92.8174 97.8487 92.8347 98.152 92.8347 98.516V98.932C92.8347 99.0187 92.7914 99.062 92.7047 99.062H88.5057C88.4711 99.062 88.4537 99.0793 88.4537 99.114C88.4711 99.5907 88.4971 99.8983 88.5317 100.037C88.6271 100.427 88.8307 100.735 89.1427 100.96C89.4547 101.185 89.8534 101.298 90.3387 101.298C90.7027 101.298 91.0234 101.216 91.3007 101.051C91.5781 100.886 91.7947 100.652 91.9507 100.349C92.0027 100.271 92.0634 100.254 92.1327 100.297L92.6397 100.596C92.7091 100.639 92.7264 100.7 92.6917 100.778C92.4751 101.194 92.1501 101.523 91.7167 101.766C91.2834 102 90.7851 102.117 90.2217 102.117C89.6064 102.108 89.0907 101.961 88.6747 101.675C88.2587 101.389 87.9597 100.99 87.7777 100.479C87.6217 100.063 87.5437 99.465 87.5437 98.685C87.5437 98.321 87.5481 98.0263 87.5567 97.801C87.5741 97.567 87.6087 97.359 87.6607 97.177C87.8081 96.6137 88.1027 96.163 88.5447 95.825C88.9954 95.487 89.5371 95.318 90.1697 95.318C90.9584 95.318 91.5651 95.5173 91.9897 95.916C92.4144 96.3147 92.6787 96.878 92.7827 97.606ZM90.1697 96.124C89.7451 96.124 89.3897 96.2367 89.1037 96.462C88.8264 96.6787 88.6444 96.9733 88.5577 97.346C88.5057 97.528 88.4711 97.8227 88.4537 98.23C88.4537 98.2647 88.4711 98.282 88.5057 98.282H91.8727C91.9074 98.282 91.9247 98.2647 91.9247 98.23C91.9074 97.84 91.8814 97.5627 91.8467 97.398C91.7514 97.008 91.5564 96.7003 91.2617 96.475C90.9757 96.241 90.6117 96.124 90.1697 96.124ZM101.355 93.03C101.355 92.9433 101.398 92.9 101.485 92.9H102.148C102.235 92.9 102.278 92.9433 102.278 93.03V101.87C102.278 101.957 102.235 102 102.148 102H101.485C101.398 102 101.355 101.957 101.355 101.87V101.324C101.355 101.307 101.346 101.298 101.329 101.298C101.32 101.289 101.307 101.294 101.29 101.311C101.099 101.562 100.861 101.757 100.575 101.896C100.298 102.035 99.9856 102.104 99.6389 102.104C99.0322 102.104 98.5209 101.948 98.1049 101.636C97.6976 101.324 97.4159 100.899 97.2599 100.362C97.1386 99.972 97.0779 99.4217 97.0779 98.711C97.0779 97.9917 97.1299 97.4543 97.2339 97.099C97.3899 96.5443 97.6759 96.111 98.0919 95.799C98.5079 95.4783 99.0236 95.318 99.6389 95.318C99.9769 95.318 100.289 95.3873 100.575 95.526C100.861 95.656 101.099 95.8467 101.29 96.098C101.307 96.1153 101.32 96.124 101.329 96.124C101.346 96.1153 101.355 96.1023 101.355 96.085V93.03ZM101.121 100.297C101.199 100.124 101.255 99.92 101.29 99.686C101.325 99.452 101.342 99.127 101.342 98.711C101.342 98.295 101.325 97.97 101.29 97.736C101.255 97.4933 101.195 97.281 101.108 97.099C101.004 96.8043 100.831 96.5703 100.588 96.397C100.354 96.215 100.072 96.124 99.7429 96.124C99.3962 96.124 99.0972 96.2107 98.8459 96.384C98.5946 96.5573 98.4126 96.787 98.2999 97.073C98.1959 97.2637 98.1179 97.4803 98.0659 97.723C98.0226 97.957 98.0009 98.2863 98.0009 98.711C98.0009 99.1183 98.0182 99.439 98.0529 99.673C98.0876 99.8983 98.1482 100.102 98.2349 100.284C98.3389 100.596 98.5209 100.843 98.7809 101.025C99.0496 101.207 99.3659 101.298 99.7299 101.298C100.077 101.298 100.367 101.207 100.601 101.025C100.835 100.843 101.008 100.6 101.121 100.297ZM109.414 97.606C109.448 97.8487 109.466 98.152 109.466 98.516V98.932C109.466 99.0187 109.422 99.062 109.336 99.062H105.137C105.102 99.062 105.085 99.0793 105.085 99.114C105.102 99.5907 105.128 99.8983 105.163 100.037C105.258 100.427 105.462 100.735 105.774 100.96C106.086 101.185 106.484 101.298 106.97 101.298C107.334 101.298 107.654 101.216 107.932 101.051C108.209 100.886 108.426 100.652 108.582 100.349C108.634 100.271 108.694 100.254 108.764 100.297L109.271 100.596C109.34 100.639 109.357 100.7 109.323 100.778C109.106 101.194 108.781 101.523 108.348 101.766C107.914 102 107.416 102.117 106.853 102.117C106.237 102.108 105.722 101.961 105.306 101.675C104.89 101.389 104.591 100.99 104.409 100.479C104.253 100.063 104.175 99.465 104.175 98.685C104.175 98.321 104.179 98.0263 104.188 97.801C104.205 97.567 104.24 97.359 104.292 97.177C104.439 96.6137 104.734 96.163 105.176 95.825C105.626 95.487 106.168 95.318 106.801 95.318C107.589 95.318 108.196 95.5173 108.621 95.916C109.045 96.3147 109.31 96.878 109.414 97.606ZM106.801 96.124C106.376 96.124 106.021 96.2367 105.735 96.462C105.457 96.6787 105.275 96.9733 105.189 97.346C105.137 97.528 105.102 97.8227 105.085 98.23C105.085 98.2647 105.102 98.282 105.137 98.282H108.504C108.538 98.282 108.556 98.2647 108.556 98.23C108.538 97.84 108.512 97.5627 108.478 97.398C108.382 97.008 108.187 96.7003 107.893 96.475C107.607 96.241 107.243 96.124 106.801 96.124ZM114.031 95.331C114.725 95.331 115.275 95.5347 115.682 95.942C116.098 96.3493 116.306 96.8953 116.306 97.58V101.87C116.306 101.957 116.263 102 116.176 102H115.513C115.427 102 115.383 101.957 115.383 101.87V97.762C115.383 97.2853 115.236 96.8953 114.941 96.592C114.655 96.2887 114.283 96.137 113.823 96.137C113.347 96.137 112.961 96.2843 112.666 96.579C112.372 96.8737 112.224 97.2593 112.224 97.736V101.87C112.224 101.957 112.181 102 112.094 102H111.431C111.345 102 111.301 101.957 111.301 101.87V95.552C111.301 95.4653 111.345 95.422 111.431 95.422H112.094C112.181 95.422 112.224 95.4653 112.224 95.552V96.111C112.224 96.1283 112.229 96.1413 112.237 96.15C112.255 96.1587 112.268 96.1543 112.276 96.137C112.658 95.5997 113.243 95.331 114.031 95.331ZM122.365 95.552C122.365 95.4653 122.408 95.422 122.495 95.422H123.158C123.245 95.422 123.288 95.4653 123.288 95.552V101.779C123.288 102.75 123.006 103.46 122.443 103.911C121.888 104.362 121.121 104.587 120.142 104.587C119.943 104.587 119.791 104.583 119.687 104.574C119.6 104.565 119.557 104.518 119.557 104.431L119.583 103.833C119.583 103.79 119.596 103.755 119.622 103.729C119.648 103.712 119.678 103.707 119.713 103.716L120.064 103.729C120.87 103.729 121.455 103.569 121.819 103.248C122.183 102.936 122.365 102.438 122.365 101.753V101.272C122.365 101.255 122.356 101.246 122.339 101.246C122.33 101.237 122.317 101.242 122.3 101.259C121.901 101.779 121.334 102.039 120.597 102.039C120.034 102.039 119.531 101.887 119.089 101.584C118.656 101.281 118.365 100.852 118.218 100.297C118.114 99.9417 118.062 99.413 118.062 98.711C118.062 98.3297 118.071 98.009 118.088 97.749C118.114 97.489 118.162 97.255 118.231 97.047C118.387 96.527 118.669 96.111 119.076 95.799C119.483 95.4783 119.973 95.318 120.545 95.318C121.316 95.318 121.901 95.5737 122.3 96.085C122.317 96.1023 122.33 96.1067 122.339 96.098C122.356 96.0893 122.365 96.0763 122.365 96.059V95.552ZM122.3 100.011C122.326 99.881 122.343 99.7207 122.352 99.53C122.361 99.3393 122.365 99.062 122.365 98.698C122.365 98.256 122.361 97.9613 122.352 97.814C122.343 97.658 122.322 97.515 122.287 97.385C122.218 97.021 122.044 96.722 121.767 96.488C121.498 96.2453 121.156 96.124 120.74 96.124C120.333 96.124 119.986 96.241 119.7 96.475C119.423 96.709 119.228 97.0123 119.115 97.385C119.028 97.6623 118.985 98.0957 118.985 98.685C118.985 99.3177 119.028 99.7553 119.115 99.998C119.202 100.362 119.388 100.665 119.674 100.908C119.969 101.142 120.324 101.259 120.74 101.259C121.165 101.259 121.511 101.142 121.78 100.908C122.057 100.674 122.231 100.375 122.3 100.011ZM127.541 95.318C128.321 95.318 128.923 95.5173 129.348 95.916C129.773 96.3147 129.985 96.8433 129.985 97.502V101.87C129.985 101.957 129.942 102 129.855 102H129.192C129.105 102 129.062 101.957 129.062 101.87V101.337C129.062 101.32 129.053 101.307 129.036 101.298C129.027 101.289 129.014 101.294 128.997 101.311C128.78 101.571 128.499 101.77 128.152 101.909C127.805 102.039 127.42 102.104 126.995 102.104C126.38 102.104 125.864 101.948 125.448 101.636C125.032 101.324 124.824 100.847 124.824 100.206C124.824 99.556 125.058 99.0447 125.526 98.672C126.003 98.2907 126.661 98.1 127.502 98.1H129.01C129.045 98.1 129.062 98.0827 129.062 98.048V97.554C129.062 97.112 128.936 96.7653 128.685 96.514C128.442 96.254 128.061 96.124 127.541 96.124C127.125 96.124 126.787 96.2063 126.527 96.371C126.267 96.527 126.107 96.748 126.046 97.034C126.02 97.1207 125.968 97.1597 125.89 97.151L125.188 97.06C125.093 97.0427 125.054 97.008 125.071 96.956C125.14 96.4707 125.4 96.0763 125.851 95.773C126.302 95.4697 126.865 95.318 127.541 95.318ZM127.177 101.311C127.688 101.311 128.13 101.185 128.503 100.934C128.876 100.674 129.062 100.327 129.062 99.894V98.88C129.062 98.8453 129.045 98.828 129.01 98.828H127.645C127.073 98.828 126.614 98.945 126.267 99.179C125.92 99.413 125.747 99.738 125.747 100.154C125.747 100.535 125.877 100.826 126.137 101.025C126.406 101.216 126.752 101.311 127.177 101.311ZM134.636 95.331C135.329 95.331 135.879 95.5347 136.287 95.942C136.703 96.3493 136.911 96.8953 136.911 97.58V101.87C136.911 101.957 136.867 102 136.781 102H136.118C136.031 102 135.988 101.957 135.988 101.87V97.762C135.988 97.2853 135.84 96.8953 135.546 96.592C135.26 96.2887 134.887 96.137 134.428 96.137C133.951 96.137 133.565 96.2843 133.271 96.579C132.976 96.8737 132.829 97.2593 132.829 97.736V101.87C132.829 101.957 132.785 102 132.699 102H132.036C131.949 102 131.906 101.957 131.906 101.87V95.552C131.906 95.4653 131.949 95.422 132.036 95.422H132.699C132.785 95.422 132.829 95.4653 132.829 95.552V96.111C132.829 96.1283 132.833 96.1413 132.842 96.15C132.859 96.1587 132.872 96.1543 132.881 96.137C133.262 95.5997 133.847 95.331 134.636 95.331ZM144.116 93.706C143.639 93.706 143.314 93.8143 143.141 94.031C142.968 94.239 142.881 94.5987 142.881 95.11V95.37C142.881 95.4047 142.898 95.422 142.933 95.422H144.389C144.476 95.422 144.519 95.4653 144.519 95.552V96.137C144.519 96.2237 144.476 96.267 144.389 96.267H142.933C142.898 96.267 142.881 96.2843 142.881 96.319V101.87C142.881 101.957 142.838 102 142.751 102H142.101C142.014 102 141.971 101.957 141.971 101.87V96.319C141.971 96.2843 141.954 96.267 141.919 96.267H141.048C140.961 96.267 140.918 96.2237 140.918 96.137V95.552C140.918 95.4653 140.961 95.422 141.048 95.422H141.919C141.954 95.422 141.971 95.4047 141.971 95.37V95.058C141.971 94.5207 142.032 94.1003 142.153 93.797C142.274 93.485 142.482 93.2597 142.777 93.121C143.08 92.9737 143.501 92.9 144.038 92.9H144.415C144.502 92.9 144.545 92.9433 144.545 93.03V93.576C144.545 93.6627 144.502 93.706 144.415 93.706H144.116ZM148.049 102.104C147.425 102.104 146.888 101.944 146.437 101.623C145.987 101.302 145.675 100.86 145.501 100.297C145.38 99.8983 145.319 99.3653 145.319 98.698C145.319 98.0307 145.38 97.502 145.501 97.112C145.666 96.5573 145.974 96.1197 146.424 95.799C146.875 95.4783 147.421 95.318 148.062 95.318C148.678 95.318 149.206 95.4783 149.648 95.799C150.099 96.1197 150.407 96.553 150.571 97.099C150.693 97.4717 150.753 98.0047 150.753 98.698C150.753 99.4 150.693 99.933 150.571 100.297C150.407 100.86 150.099 101.302 149.648 101.623C149.206 101.944 148.673 102.104 148.049 102.104ZM148.049 101.298C148.465 101.298 148.821 101.185 149.115 100.96C149.41 100.726 149.609 100.414 149.713 100.024C149.791 99.712 149.83 99.2743 149.83 98.711C149.83 98.139 149.796 97.7013 149.726 97.398C149.622 97.008 149.419 96.7003 149.115 96.475C148.821 96.241 148.461 96.124 148.036 96.124C147.612 96.124 147.252 96.241 146.957 96.475C146.663 96.7003 146.463 97.008 146.359 97.398C146.29 97.7013 146.255 98.139 146.255 98.711C146.255 99.283 146.29 99.7207 146.359 100.024C146.455 100.414 146.65 100.726 146.944 100.96C147.248 101.185 147.616 101.298 148.049 101.298ZM155.276 95.357C155.562 95.357 155.809 95.4133 156.017 95.526C156.087 95.5607 156.113 95.617 156.095 95.695L155.952 96.332C155.926 96.4187 155.87 96.4447 155.783 96.41C155.636 96.3493 155.467 96.319 155.276 96.319L155.107 96.332C154.657 96.3493 154.284 96.5183 153.989 96.839C153.695 97.151 153.547 97.5497 153.547 98.035V101.87C153.547 101.957 153.504 102 153.417 102H152.754C152.668 102 152.624 101.957 152.624 101.87V95.552C152.624 95.4653 152.668 95.422 152.754 95.422H153.417C153.504 95.422 153.547 95.4653 153.547 95.552V96.345C153.547 96.371 153.552 96.3883 153.56 96.397C153.578 96.397 153.591 96.3883 153.599 96.371C153.781 96.0503 154.011 95.8033 154.288 95.63C154.574 95.448 154.904 95.357 155.276 95.357ZM164.016 95.331C164.666 95.331 165.177 95.526 165.55 95.916C165.931 96.306 166.122 96.839 166.122 97.515V101.87C166.122 101.957 166.078 102 165.992 102H165.342C165.255 102 165.212 101.957 165.212 101.87V97.697C165.212 97.2203 165.073 96.8433 164.796 96.566C164.527 96.28 164.172 96.137 163.73 96.137C163.27 96.137 162.898 96.2757 162.612 96.553C162.334 96.8303 162.196 97.203 162.196 97.671V101.87C162.196 101.957 162.152 102 162.066 102H161.403C161.316 102 161.273 101.957 161.273 101.87V97.697C161.273 97.2203 161.138 96.8433 160.87 96.566C160.601 96.28 160.241 96.137 159.791 96.137C159.331 96.137 158.963 96.2757 158.686 96.553C158.417 96.8303 158.283 97.203 158.283 97.671V101.87C158.283 101.957 158.239 102 158.153 102H157.49C157.403 102 157.36 101.957 157.36 101.87V95.552C157.36 95.4653 157.403 95.422 157.49 95.422H158.153C158.239 95.422 158.283 95.4653 158.283 95.552V96.072C158.283 96.0893 158.287 96.1023 158.296 96.111C158.313 96.111 158.33 96.1023 158.348 96.085C158.538 95.8337 158.781 95.6473 159.076 95.526C159.379 95.396 159.713 95.331 160.077 95.331C160.527 95.331 160.913 95.422 161.234 95.604C161.554 95.786 161.797 96.0503 161.962 96.397C161.979 96.4403 162.001 96.4403 162.027 96.397C162.217 96.0417 162.486 95.7773 162.833 95.604C163.179 95.422 163.574 95.331 164.016 95.331ZM170.388 95.318C171.168 95.318 171.77 95.5173 172.195 95.916C172.619 96.3147 172.832 96.8433 172.832 97.502V101.87C172.832 101.957 172.788 102 172.702 102H172.039C171.952 102 171.909 101.957 171.909 101.87V101.337C171.909 101.32 171.9 101.307 171.883 101.298C171.874 101.289 171.861 101.294 171.844 101.311C171.627 101.571 171.345 101.77 170.999 101.909C170.652 102.039 170.266 102.104 169.842 102.104C169.226 102.104 168.711 101.948 168.295 101.636C167.879 101.324 167.671 100.847 167.671 100.206C167.671 99.556 167.905 99.0447 168.373 98.672C168.849 98.2907 169.508 98.1 170.349 98.1H171.857C171.891 98.1 171.909 98.0827 171.909 98.048V97.554C171.909 97.112 171.783 96.7653 171.532 96.514C171.289 96.254 170.908 96.124 170.388 96.124C169.972 96.124 169.634 96.2063 169.374 96.371C169.114 96.527 168.953 96.748 168.893 97.034C168.867 97.1207 168.815 97.1597 168.737 97.151L168.035 97.06C167.939 97.0427 167.9 97.008 167.918 96.956C167.987 96.4707 168.247 96.0763 168.698 95.773C169.148 95.4697 169.712 95.318 170.388 95.318ZM170.024 101.311C170.535 101.311 170.977 101.185 171.35 100.934C171.722 100.674 171.909 100.327 171.909 99.894V98.88C171.909 98.8453 171.891 98.828 171.857 98.828H170.492C169.92 98.828 169.46 98.945 169.114 99.179C168.767 99.413 168.594 99.738 168.594 100.154C168.594 100.535 168.724 100.826 168.984 101.025C169.252 101.216 169.599 101.311 170.024 101.311ZM177.653 96.059C177.653 96.1457 177.609 96.189 177.523 96.189H176.054C176.019 96.189 176.002 96.2063 176.002 96.241V100.076C176.002 100.492 176.093 100.787 176.275 100.96C176.465 101.125 176.76 101.207 177.159 101.207H177.484C177.57 101.207 177.614 101.25 177.614 101.337V101.87C177.614 101.957 177.57 102 177.484 102C177.38 102.009 177.219 102.013 177.003 102.013C176.379 102.013 175.906 101.896 175.586 101.662C175.265 101.428 175.105 100.995 175.105 100.362V96.241C175.105 96.2063 175.087 96.189 175.053 96.189H174.26C174.173 96.189 174.13 96.1457 174.13 96.059V95.552C174.13 95.4653 174.173 95.422 174.26 95.422H175.053C175.087 95.422 175.105 95.4047 175.105 95.37V93.862C175.105 93.7753 175.148 93.732 175.235 93.732H175.872C175.958 93.732 176.002 93.7753 176.002 93.862V95.37C176.002 95.4047 176.019 95.422 176.054 95.422H177.523C177.609 95.422 177.653 95.4653 177.653 95.552V96.059ZM87.6591 118.104C87.0697 118.104 86.5497 117.991 86.0991 117.766C85.6571 117.541 85.3147 117.224 85.0721 116.817C84.8294 116.401 84.7081 115.924 84.7081 115.387V114.399C84.7081 114.312 84.7514 114.269 84.8381 114.269H85.5011C85.5877 114.269 85.6311 114.312 85.6311 114.399V115.387C85.6311 115.959 85.8131 116.423 86.1771 116.778C86.5497 117.125 87.0437 117.298 87.6591 117.298C88.2657 117.298 88.7554 117.125 89.1281 116.778C89.5007 116.423 89.6871 115.959 89.6871 115.387V109.03C89.6871 108.943 89.7304 108.9 89.8171 108.9H90.4801C90.5667 108.9 90.6101 108.943 90.6101 109.03V115.387C90.6101 115.924 90.4844 116.401 90.2331 116.817C89.9904 117.224 89.6437 117.541 89.1931 117.766C88.7511 117.991 88.2397 118.104 87.6591 118.104ZM96.514 108.887C97.2767 108.887 97.8877 109.121 98.347 109.589C98.815 110.057 99.049 110.672 99.049 111.435C99.049 112.189 98.8107 112.796 98.334 113.255C97.866 113.714 97.2463 113.944 96.475 113.944H93.94C93.9053 113.944 93.888 113.961 93.888 113.996V117.87C93.888 117.957 93.8447 118 93.758 118H93.095C93.0083 118 92.965 117.957 92.965 117.87V109.017C92.965 108.93 93.0083 108.887 93.095 108.887H96.514ZM96.41 113.177C96.9213 113.177 97.3373 113.021 97.658 112.709C97.9787 112.388 98.139 111.968 98.139 111.448C98.139 110.919 97.9787 110.495 97.658 110.174C97.3373 109.853 96.9213 109.693 96.41 109.693H93.94C93.9053 109.693 93.888 109.71 93.888 109.745V113.125C93.888 113.16 93.9053 113.177 93.94 113.177H96.41ZM103.518 118.104C102.912 118.104 102.379 117.987 101.919 117.753C101.46 117.51 101.1 117.172 100.84 116.739C100.589 116.306 100.463 115.807 100.463 115.244V111.656C100.463 111.093 100.589 110.594 100.84 110.161C101.1 109.728 101.46 109.394 101.919 109.16C102.379 108.917 102.912 108.796 103.518 108.796C104.116 108.796 104.645 108.913 105.104 109.147C105.572 109.381 105.932 109.71 106.183 110.135C106.435 110.551 106.56 111.023 106.56 111.552V111.721C106.56 111.808 106.517 111.851 106.43 111.851H105.767C105.681 111.851 105.637 111.808 105.637 111.721V111.565C105.637 110.984 105.442 110.512 105.052 110.148C104.671 109.784 104.16 109.602 103.518 109.602C102.877 109.602 102.361 109.788 101.971 110.161C101.581 110.534 101.386 111.023 101.386 111.63V115.27C101.386 115.877 101.586 116.366 101.984 116.739C102.383 117.112 102.907 117.298 103.557 117.298C104.19 117.298 104.693 117.125 105.065 116.778C105.447 116.431 105.637 115.968 105.637 115.387V114.204C105.637 114.169 105.62 114.152 105.585 114.152H103.674C103.588 114.152 103.544 114.109 103.544 114.022V113.476C103.544 113.389 103.588 113.346 103.674 113.346H106.43C106.517 113.346 106.56 113.389 106.56 113.476V115.153C106.56 116.08 106.283 116.804 105.728 117.324C105.182 117.844 104.446 118.104 103.518 118.104ZM108.399 119.027C108.356 119.027 108.321 119.014 108.295 118.988C108.278 118.962 108.273 118.927 108.282 118.884L108.854 116.102C108.871 116.024 108.919 115.985 108.997 115.985H109.569C109.612 115.985 109.643 115.998 109.66 116.024C109.686 116.05 109.695 116.085 109.686 116.128L108.958 118.91C108.941 118.988 108.893 119.027 108.815 119.027H108.399ZM114.167 118.104C113.578 118.104 113.058 117.991 112.607 117.766C112.165 117.541 111.823 117.224 111.58 116.817C111.337 116.401 111.216 115.924 111.216 115.387V114.399C111.216 114.312 111.259 114.269 111.346 114.269H112.009C112.096 114.269 112.139 114.312 112.139 114.399V115.387C112.139 115.959 112.321 116.423 112.685 116.778C113.058 117.125 113.552 117.298 114.167 117.298C114.774 117.298 115.263 117.125 115.636 116.778C116.009 116.423 116.195 115.959 116.195 115.387V109.03C116.195 108.943 116.238 108.9 116.325 108.9H116.988C117.075 108.9 117.118 108.943 117.118 109.03V115.387C117.118 115.924 116.992 116.401 116.741 116.817C116.498 117.224 116.152 117.541 115.701 117.766C115.259 117.991 114.748 118.104 114.167 118.104ZM123.022 108.887C123.784 108.887 124.395 109.121 124.855 109.589C125.323 110.057 125.557 110.672 125.557 111.435C125.557 112.189 125.318 112.796 124.842 113.255C124.374 113.714 123.754 113.944 122.983 113.944H120.448C120.413 113.944 120.396 113.961 120.396 113.996V117.87C120.396 117.957 120.352 118 120.266 118H119.603C119.516 118 119.473 117.957 119.473 117.87V109.017C119.473 108.93 119.516 108.887 119.603 108.887H123.022ZM122.918 113.177C123.429 113.177 123.845 113.021 124.166 112.709C124.486 112.388 124.647 111.968 124.647 111.448C124.647 110.919 124.486 110.495 124.166 110.174C123.845 109.853 123.429 109.693 122.918 109.693H120.448C120.413 109.693 120.396 109.71 120.396 109.745V113.125C120.396 113.16 120.413 113.177 120.448 113.177H122.918ZM133.146 109.576C133.146 109.663 133.103 109.706 133.016 109.706H128.232C128.197 109.706 128.18 109.723 128.18 109.758V112.969C128.18 113.004 128.197 113.021 128.232 113.021H131.586C131.673 113.021 131.716 113.064 131.716 113.151V113.697C131.716 113.784 131.673 113.827 131.586 113.827H128.232C128.197 113.827 128.18 113.844 128.18 113.879V117.142C128.18 117.177 128.197 117.194 128.232 117.194H133.016C133.103 117.194 133.146 117.237 133.146 117.324V117.87C133.146 117.957 133.103 118 133.016 118H127.387C127.3 118 127.257 117.957 127.257 117.87V109.03C127.257 108.943 127.3 108.9 127.387 108.9H133.016C133.103 108.9 133.146 108.943 133.146 109.03V109.576ZM137.897 118.104C137.291 118.104 136.758 117.987 136.298 117.753C135.839 117.51 135.479 117.172 135.219 116.739C134.968 116.306 134.842 115.807 134.842 115.244V111.656C134.842 111.093 134.968 110.594 135.219 110.161C135.479 109.728 135.839 109.394 136.298 109.16C136.758 108.917 137.291 108.796 137.897 108.796C138.495 108.796 139.024 108.913 139.483 109.147C139.951 109.381 140.311 109.71 140.562 110.135C140.814 110.551 140.939 111.023 140.939 111.552V111.721C140.939 111.808 140.896 111.851 140.809 111.851H140.146C140.06 111.851 140.016 111.808 140.016 111.721V111.565C140.016 110.984 139.821 110.512 139.431 110.148C139.05 109.784 138.539 109.602 137.897 109.602C137.256 109.602 136.74 109.788 136.35 110.161C135.96 110.534 135.765 111.023 135.765 111.63V115.27C135.765 115.877 135.965 116.366 136.363 116.739C136.762 117.112 137.286 117.298 137.936 117.298C138.569 117.298 139.072 117.125 139.444 116.778C139.826 116.431 140.016 115.968 140.016 115.387V114.204C140.016 114.169 139.999 114.152 139.964 114.152H138.053C137.967 114.152 137.923 114.109 137.923 114.022V113.476C137.923 113.389 137.967 113.346 138.053 113.346H140.809C140.896 113.346 140.939 113.389 140.939 113.476V115.153C140.939 116.08 140.662 116.804 140.107 117.324C139.561 117.844 138.825 118.104 137.897 118.104ZM142.778 119.027C142.735 119.027 142.7 119.014 142.674 118.988C142.657 118.962 142.652 118.927 142.661 118.884L143.233 116.102C143.25 116.024 143.298 115.985 143.376 115.985H143.948C143.991 115.985 144.022 115.998 144.039 116.024C144.065 116.05 144.074 116.085 144.065 116.128L143.337 118.91C143.32 118.988 143.272 119.027 143.194 119.027H142.778ZM149.898 108.887C150.66 108.887 151.271 109.121 151.731 109.589C152.199 110.057 152.433 110.672 152.433 111.435C152.433 112.189 152.194 112.796 151.718 113.255C151.25 113.714 150.63 113.944 149.859 113.944H147.324C147.289 113.944 147.272 113.961 147.272 113.996V117.87C147.272 117.957 147.228 118 147.142 118H146.479C146.392 118 146.349 117.957 146.349 117.87V109.017C146.349 108.93 146.392 108.887 146.479 108.887H149.898ZM149.794 113.177C150.305 113.177 150.721 113.021 151.042 112.709C151.362 112.388 151.523 111.968 151.523 111.448C151.523 110.919 151.362 110.495 151.042 110.174C150.721 109.853 150.305 109.693 149.794 109.693H147.324C147.289 109.693 147.272 109.71 147.272 109.745V113.125C147.272 113.16 147.289 113.177 147.324 113.177H149.794ZM159.554 109.03C159.554 108.943 159.597 108.9 159.684 108.9H160.347C160.434 108.9 160.477 108.943 160.477 109.03V117.87C160.477 117.957 160.434 118 160.347 118H159.697C159.636 118 159.584 117.97 159.541 117.909L155.108 110.694C155.099 110.668 155.086 110.659 155.069 110.668C155.052 110.668 155.043 110.681 155.043 110.707L155.056 117.87C155.056 117.957 155.013 118 154.926 118H154.263C154.176 118 154.133 117.957 154.133 117.87V109.03C154.133 108.943 154.176 108.9 154.263 108.9H154.913C154.974 108.9 155.026 108.93 155.069 108.991L159.502 116.206C159.511 116.232 159.524 116.245 159.541 116.245C159.558 116.236 159.567 116.219 159.567 116.193L159.554 109.03ZM165.687 118.104C165.081 118.104 164.548 117.987 164.088 117.753C163.629 117.51 163.269 117.172 163.009 116.739C162.758 116.306 162.632 115.807 162.632 115.244V111.656C162.632 111.093 162.758 110.594 163.009 110.161C163.269 109.728 163.629 109.394 164.088 109.16C164.548 108.917 165.081 108.796 165.687 108.796C166.285 108.796 166.814 108.913 167.273 109.147C167.741 109.381 168.101 109.71 168.352 110.135C168.604 110.551 168.729 111.023 168.729 111.552V111.721C168.729 111.808 168.686 111.851 168.599 111.851H167.936C167.85 111.851 167.806 111.808 167.806 111.721V111.565C167.806 110.984 167.611 110.512 167.221 110.148C166.84 109.784 166.329 109.602 165.687 109.602C165.046 109.602 164.53 109.788 164.14 110.161C163.75 110.534 163.555 111.023 163.555 111.63V115.27C163.555 115.877 163.755 116.366 164.153 116.739C164.552 117.112 165.076 117.298 165.726 117.298C166.359 117.298 166.862 117.125 167.234 116.778C167.616 116.431 167.806 115.968 167.806 115.387V114.204C167.806 114.169 167.789 114.152 167.754 114.152H165.843C165.757 114.152 165.713 114.109 165.713 114.022V113.476C165.713 113.389 165.757 113.346 165.843 113.346H168.599C168.686 113.346 168.729 113.389 168.729 113.476V115.153C168.729 116.08 168.452 116.804 167.897 117.324C167.351 117.844 166.615 118.104 165.687 118.104Z" fill="#8D98B4"/>
<path d="M12 149C10.5066 149 9.08519 148.703 7.7896 148.166L7.02349 150.013C8.55768 150.649 10.2391 151 12 151V149ZM1.83429 142.21C1.29703 140.915 1 139.493 1 138H-1C-1 139.761 -0.649362 141.442 -0.0131608 142.977L1.83429 142.21ZM1 138V132.75H-1V138H1ZM1 122.25V111.75H-1V122.25H1ZM1 101.25V90.75H-1V101.25H1ZM1 80.25V69.75H-1V80.25H1ZM1 59.25V48.75H-1V59.25H1ZM1 38.25V27.75H-1V38.25H1ZM1 17.25V12H-1V17.25H1ZM1 12C1 10.5066 1.29703 9.08519 1.83429 7.7896L-0.0131594 7.02349C-0.649362 8.55768 -1 10.2392 -1 12H1ZM7.7896 1.83429C9.0852 1.29703 10.5066 1 12 1V-1C10.2392 -1 8.55768 -0.649362 7.02349 -0.0131609L7.7896 1.83429ZM12 1H17.2045V-1H12V1ZM27.6136 1H38.0227V-1H27.6136V1ZM48.4318 1H58.8409V-1H48.4318V1ZM69.25 1H79.6591V-1H69.25V1ZM90.0682 1H100.477V-1H90.0682V1ZM110.886 1H121.295V-1H110.886V1ZM131.705 1H142.114V-1H131.705V1ZM152.523 1H162.932V-1H152.523V1ZM173.341 1H183.75V-1H173.341V1ZM194.159 1H204.568V-1H194.159V1ZM214.977 1H225.386V-1H214.977V1ZM235.795 1H241V-1H235.795V1ZM241 1C242.493 1 243.915 1.29703 245.21 1.83429L245.977 -0.0131596C244.442 -0.649362 242.761 -1 241 -1V1ZM251.166 7.7896C251.703 9.0852 252 10.5066 252 12H254C254 10.2392 253.649 8.55768 253.013 7.02349L251.166 7.7896ZM252 12V17.25H254V12H252ZM252 27.75V38.25H254V27.75H252ZM252 48.75V59.25H254V48.75H252ZM252 69.75V80.25H254V69.75H252ZM252 90.75V101.25H254V90.75H252ZM252 111.75V122.25H254V111.75H252ZM252 132.75V138H254V132.75H252ZM252 138C252 139.493 251.703 140.915 251.166 142.21L253.013 142.977C253.649 141.442 254 139.761 254 138H252ZM245.21 148.166C243.915 148.703 242.493 149 241 149V151C242.761 151 244.442 150.649 245.977 150.013L245.21 148.166ZM241 149H235.795V151H241V149ZM225.386 149H214.977V151H225.386V149ZM204.568 149H194.159V151H204.568V149ZM183.75 149H173.341V151H183.75V149ZM162.932 149H152.523V151H162.932V149ZM142.114 149H131.705V151H142.114V149ZM121.295 149H110.886V151H121.295V149ZM100.477 149H90.0682V151H100.477V149ZM79.6591 149H69.25V151H79.6591V149ZM58.8409 149H48.4318V151H58.8409V149ZM38.0228 149H27.6137V151H38.0228V149ZM17.2046 149H12V151H17.2046V149ZM12 148C10.6404 148 9.34895 147.73 8.17265 147.242L6.64043 150.937C8.29392 151.623 10.1054 152 12 152V148ZM2.75802 141.827C2.27022 140.651 2 139.36 2 138H-2C-2 139.895 -1.62256 141.706 -0.936887 143.36L2.75802 141.827ZM2 138V132.75H-2V138H2ZM2 122.25V111.75H-2V122.25H2ZM2 101.25V90.75H-2V101.25H2ZM2 80.25V69.75H-2V80.25H2ZM2 59.25V48.75H-2V59.25H2ZM2 38.25V27.75H-2V38.25H2ZM2 17.25V12H-2V17.25H2ZM2 12C2 10.6404 2.27023 9.34895 2.75802 8.17265L-0.936885 6.64044C-1.62256 8.29392 -2 10.1054 -2 12H2ZM8.17266 2.75802C9.34896 2.27022 10.6404 2 12 2V-2C10.1054 -2 8.29392 -1.62256 6.64044 -0.936887L8.17266 2.75802ZM12 2H17.2045V-2H12V2ZM27.6136 2H38.0227V-2H27.6136V2ZM48.4318 2H58.8409V-2H48.4318V2ZM69.25 2H79.6591V-2H69.25V2ZM90.0682 2H100.477V-2H90.0682V2ZM110.886 2H121.295V-2H110.886V2ZM131.705 2H142.114V-2H131.705V2ZM152.523 2H162.932V-2H152.523V2ZM173.341 2H183.75V-2H173.341V2ZM194.159 2H204.568V-2H194.159V2ZM214.977 2H225.386V-2H214.977V2ZM235.795 2H241V-2H235.795V2ZM241 2C242.36 2 243.651 2.27023 244.827 2.75802L246.36 -0.936886C244.706 -1.62256 242.895 -2 241 -2V2ZM250.242 8.17265C250.73 9.34896 251 10.6404 251 12H255C255 10.1054 254.623 8.29392 253.937 6.64044L250.242 8.17265ZM251 12V17.25H255V12H251ZM251 27.75V38.25H255V27.75H251ZM251 48.75V59.25H255V48.75H251ZM251 69.75V80.25H255V69.75H251ZM251 90.75V101.25H255V90.75H251ZM251 111.75V122.25H255V111.75H251ZM251 132.75V138H255V132.75H251ZM251 138C251 139.36 250.73 140.651 250.242 141.827L253.937 143.36C254.623 141.706 255 139.895 255 138H251ZM244.827 147.242C243.651 147.73 242.36 148 241 148V152C242.895 152 244.706 151.623 246.36 150.937L244.827 147.242ZM241 148H235.795V152H241V148ZM225.386 148H214.977V152H225.386V148ZM204.568 148H194.159V152H204.568V148ZM183.75 148H173.341V152H183.75V148ZM162.932 148H152.523V152H162.932V148ZM142.114 148H131.705V152H142.114V148ZM121.295 148H110.886V152H121.295V148ZM100.477 148H90.0682V152H100.477V148ZM79.6591 148H69.25V152H79.6591V148ZM58.8409 148H48.4318V152H58.8409V148ZM38.0228 148H27.6137V152H38.0228V148ZM17.2046 148H12V152H17.2046V148Z" fill="#BCC8E7"/>
</svg>
