<svg width="41" height="40" viewBox="0 0 41 40" fill="none" xmlns="http://www.w3.org/2000/svg">
<g clip-path="url(#clip0_42941_2776)">
<path opacity="0.4" d="M20.5 0C9.45161 0 0.5 8.95161 0.5 20C0.5 31.0484 9.45161 40 20.5 40C31.5484 40 40.5 31.0484 40.5 20C40.5 8.95161 31.5484 0 20.5 0ZM33.025 15.7508L18.1863 30.5895C17.9443 30.8313 17.6163 30.9671 17.2742 30.9671C16.9321 30.9671 16.6041 30.8313 16.3621 30.5895L7.975 22.2024C7.7332 21.9605 7.59737 21.6324 7.59737 21.2903C7.59737 20.9483 7.7332 20.6202 7.975 20.3782L9.79919 18.5532C9.91901 18.4334 10.0613 18.3383 10.2178 18.2734C10.3744 18.2086 10.5422 18.1752 10.7117 18.1752C10.8812 18.1752 11.049 18.2086 11.2055 18.2734C11.3621 18.3383 11.5044 18.4334 11.6242 18.5532L17.2742 24.2032L29.3758 12.1016C29.4956 11.9818 29.6379 11.8867 29.7945 11.8218C29.951 11.757 30.1188 11.7236 30.2883 11.7236C30.4578 11.7236 30.6256 11.757 30.7822 11.8218C30.9387 11.8867 31.081 11.9818 31.2008 12.1016L33.025 13.9266C33.2668 14.1686 33.4026 14.4966 33.4026 14.8387C33.4026 15.1808 33.2668 15.5088 33.025 15.7508Z" fill="#DC241F"/>
<path d="M18.1866 30.5886C17.9446 30.8304 17.6165 30.9662 17.2745 30.9662C16.9324 30.9662 16.6043 30.8304 16.3624 30.5886L7.97528 22.2015C7.73348 21.9595 7.59766 21.6315 7.59766 21.2894C7.59766 20.9473 7.73348 20.6192 7.97528 20.3773L9.79948 18.5523C9.9193 18.4324 10.0616 18.3374 10.2181 18.2725C10.3747 18.2076 10.5425 18.1743 10.712 18.1743C10.8815 18.1743 11.0493 18.2076 11.2058 18.2725C11.3624 18.3374 11.5047 18.4324 11.6245 18.5523L17.2745 24.2023L29.3761 12.1007C29.4959 11.9808 29.6382 11.8858 29.7947 11.8209C29.9513 11.756 30.1191 11.7227 30.2886 11.7227C30.4581 11.7227 30.6259 11.756 30.7824 11.8209C30.939 11.8858 31.0813 11.9808 31.2011 12.1007L33.0253 13.9257C33.2671 14.1676 33.4029 14.4957 33.4029 14.8378C33.4029 15.1798 33.2671 15.5079 33.0253 15.7499L18.1866 30.5886Z" fill="#DC241F"/>
</g>
<defs>
<clipPath id="clip0_42941_2776">
<rect width="40" height="40" fill="white" transform="translate(0.5)"/>
</clipPath>
</defs>
</svg>
