<svg width="42" height="38" viewBox="0 0 42 38" fill="none" xmlns="http://www.w3.org/2000/svg">
<path d="M15.5663 10.8731C15.4991 10.5802 15.3351 10.3189 15.1011 10.1318C14.867 9.94462 14.5767 9.84275 14.2776 9.84277H4.66049C4.30978 9.84277 3.97343 9.98276 3.72544 10.2319C3.47745 10.4811 3.33813 10.8191 3.33813 11.1715V32.6502C3.33813 33.0026 3.47745 33.3405 3.72544 33.5897C3.97343 33.8389 4.30978 33.9789 4.66049 33.9789H35.1948C35.5455 33.9789 35.8819 33.8389 36.1299 33.5897C36.3779 33.3405 36.5172 33.0026 36.5172 32.6502V14.6079C36.5172 14.2555 36.3779 13.9176 36.1299 13.6684C35.8819 13.4192 35.5455 13.2792 35.1948 13.2792H18.5752C17.8768 13.2793 17.1989 13.0415 16.6524 12.6044C16.1058 12.1674 15.723 11.557 15.5663 10.8731Z" fill="#FF514D"/>
<path opacity="0.6" d="M15.5663 10.8731C15.4991 10.5802 15.3351 10.3189 15.1011 10.1318C14.867 9.94462 14.5767 9.84275 14.2776 9.84277H4.66049C4.30978 9.84277 3.97343 9.98276 3.72544 10.2319C3.47745 10.4811 3.33813 10.8191 3.33813 11.1715V32.6502C3.33813 33.0026 3.47745 33.3405 3.72544 33.5897C3.97343 33.8389 4.30978 33.9789 4.66049 33.9789H35.1948C35.5455 33.9789 35.8819 33.8389 36.1299 33.5897C36.3779 33.3405 36.5172 33.0026 36.5172 32.6502V14.6079C36.5172 14.2555 36.3779 13.9176 36.1299 13.6684C35.8819 13.4192 35.5455 13.2792 35.1948 13.2792H18.5752C17.8768 13.2793 17.1989 13.0415 16.6524 12.6044C16.1058 12.1674 15.723 11.557 15.5663 10.8731Z" fill="black"/>
<path opacity="0.22" d="M12.1714 4.18359L13.0285 6.97262C13.1379 7.32758 13.3831 7.6244 13.7101 7.79788C14.0372 7.97136 14.4194 8.00732 14.7728 7.89786L17.5474 7.03664L12.1714 4.18359Z" fill="#FF514D"/>
<path d="M12.1715 4.18359L2.25389 7.26251C2.07882 7.31655 1.91606 7.40475 1.77494 7.52205C1.63382 7.63936 1.5171 7.78347 1.43146 7.94614C1.34583 8.10882 1.29295 8.28686 1.27586 8.47008C1.25876 8.65331 1.27779 8.83812 1.33185 9.01395L6.99393 27.4319C7.04797 27.6077 7.13596 27.7712 7.25287 27.9128C7.36979 28.0545 7.51334 28.1717 7.67532 28.2576C7.8373 28.3435 8.01454 28.3965 8.19692 28.4136C8.3793 28.4307 8.56324 28.4115 8.73823 28.3571L21.4316 24.417C21.6066 24.3628 21.7692 24.2745 21.9102 24.1572C22.0512 24.0398 22.1678 23.8957 22.2533 23.733C22.3388 23.5704 22.3916 23.3924 22.4086 23.2092C22.4256 23.026 22.4065 22.8413 22.3525 22.6655L17.5439 7.03663L12.1715 4.18359Z" fill="#FF514D"/>
<path opacity="0.8" d="M12.1715 4.18359L2.25389 7.26251C2.07882 7.31655 1.91606 7.40475 1.77494 7.52205C1.63382 7.63936 1.5171 7.78347 1.43146 7.94614C1.34583 8.10882 1.29295 8.28686 1.27586 8.47008C1.25876 8.65331 1.27779 8.83812 1.33185 9.01395L6.99393 27.4319C7.04797 27.6077 7.13596 27.7712 7.25287 27.9128C7.36979 28.0545 7.51334 28.1717 7.67532 28.2576C7.8373 28.3435 8.01454 28.3965 8.19692 28.4136C8.3793 28.4307 8.56324 28.4115 8.73823 28.3571L21.4316 24.417C21.6066 24.3628 21.7692 24.2745 21.9102 24.1572C22.0512 24.0398 22.1678 23.8957 22.2533 23.733C22.3388 23.5704 22.3916 23.3924 22.4086 23.2092C22.4256 23.026 22.4065 22.8413 22.3525 22.6655L17.5439 7.03663L12.1715 4.18359Z" fill="white"/>
<g opacity="0.28">
<path opacity="0.28" d="M17.5079 23.6122L9.25641 26.1729C9.10209 26.2205 8.93529 26.2048 8.79247 26.1292C8.64965 26.0536 8.54243 25.9243 8.49425 25.7695C8.44727 25.6144 8.46325 25.447 8.5387 25.3038C8.61415 25.1605 8.74295 25.0531 8.89696 25.0049L17.1485 22.443C17.3029 22.3954 17.4699 22.4113 17.6127 22.4871C17.7556 22.5629 17.8627 22.6926 17.9106 22.8476C17.9576 23.0026 17.9416 23.1701 17.8662 23.3133C17.7907 23.4566 17.6619 23.564 17.5079 23.6122Z" fill="#FF514D"/>
</g>
<g opacity="0.28">
<path opacity="0.28" d="M8.62778 8.58428L4.26401 9.93833C4.1097 9.98562 3.94304 9.96976 3.8003 9.89421C3.65757 9.81865 3.55031 9.68951 3.50186 9.53489C3.45484 9.37968 3.47079 9.21209 3.54622 9.06864C3.62166 8.92519 3.75047 8.81752 3.90457 8.76909L8.26834 7.41504C8.42265 7.36708 8.5896 7.38264 8.7325 7.45828C8.87541 7.53393 8.98259 7.66348 9.03049 7.81848C9.07751 7.97369 9.06156 8.14128 8.98613 8.28473C8.91069 8.42818 8.78188 8.53585 8.62778 8.58428Z" fill="#FF514D"/>
</g>
<g opacity="0.28">
<path opacity="0.28" d="M12.1882 10.0205L4.97537 12.2587C4.82138 12.3052 4.65536 12.2888 4.51334 12.213C4.37133 12.1373 4.26478 12.0083 4.21682 11.8541C4.16946 11.6992 4.18512 11.5318 4.26038 11.3884C4.33564 11.2451 4.46435 11.1376 4.61833 11.0895L11.8312 8.85126C11.9855 8.80364 12.1523 8.81935 12.2951 8.89495C12.4379 8.97055 12.5451 9.09989 12.5933 9.2547C12.6399 9.41023 12.6235 9.57795 12.5476 9.72137C12.4717 9.86479 12.3426 9.9723 12.1882 10.0205Z" fill="#FF514D"/>
</g>
<g opacity="0.28">
<path opacity="0.28" d="M16.2156 11.3112L5.68967 14.5725C5.53552 14.6201 5.36888 14.6043 5.22625 14.5287C5.08362 14.4531 4.97663 14.3238 4.92872 14.1691C4.88165 14.014 4.89743 13.8465 4.97263 13.7031C5.04782 13.5597 5.17635 13.4519 5.33023 13.4033L15.8562 10.1419C16.0103 10.0947 16.1768 10.1106 16.3194 10.1861C16.4619 10.2617 16.5689 10.3908 16.6171 10.5454C16.6645 10.7004 16.6489 10.868 16.5736 11.0115C16.4984 11.155 16.3697 11.2628 16.2156 11.3112Z" fill="#FF514D"/>
</g>
<g opacity="0.28">
<path opacity="0.28" d="M16.9284 13.6302L10.8095 15.5302C10.6552 15.5774 10.4886 15.5613 10.346 15.4855C10.2034 15.4097 10.0965 15.2803 10.0486 15.1255C10.0015 14.9706 10.0173 14.8033 10.0925 14.6601C10.1678 14.5169 10.2963 14.4093 10.4501 14.3609L16.569 12.4609C16.7234 12.414 16.8901 12.4302 17.0328 12.5059C17.1754 12.5817 17.2826 12.7109 17.3311 12.8656C17.3781 13.0206 17.3621 13.188 17.2867 13.3313C17.2112 13.4745 17.0824 13.582 16.9284 13.6302Z" fill="#FF514D"/>
</g>
<g opacity="0.28">
<path opacity="0.28" d="M8.00376 16.4011L6.40371 16.8975C6.2494 16.9451 6.0826 16.9294 5.93978 16.8538C5.79696 16.7782 5.68973 16.6489 5.64156 16.4941C5.59421 16.3389 5.61001 16.1711 5.68549 16.0276C5.76097 15.8841 5.88998 15.7764 6.04427 15.7283L7.64432 15.2318C7.79864 15.1845 7.96529 15.2004 8.10803 15.2759C8.25077 15.3515 8.35803 15.4806 8.40648 15.6353C8.45317 15.7905 8.43707 15.9579 8.36168 16.1013C8.28629 16.2446 8.15768 16.3524 8.00376 16.4011Z" fill="#FF514D"/>
</g>
<g opacity="0.28">
<path opacity="0.28" d="M17.6424 15.9508L7.11645 19.2182C6.96213 19.2654 6.7955 19.2493 6.65293 19.1735C6.51036 19.0977 6.40343 18.9683 6.35549 18.8135C6.30813 18.6586 6.32379 18.4912 6.39905 18.3479C6.47431 18.2046 6.60302 18.0971 6.757 18.0489L17.2829 14.7816C17.4371 14.7343 17.6036 14.7502 17.7461 14.8258C17.8887 14.9014 17.9957 15.0305 18.0439 15.185C18.0913 15.3401 18.0757 15.5077 18.0004 15.6512C17.9252 15.7947 17.7964 15.9024 17.6424 15.9508Z" fill="#FF514D"/>
</g>
<g opacity="0.28">
<path opacity="0.28" d="M14.2932 19.5308L7.82932 21.5371C7.67517 21.5844 7.50867 21.5685 7.36613 21.4929C7.22359 21.4174 7.11656 21.2882 7.06837 21.1337C7.0213 20.9787 7.03708 20.8112 7.11228 20.6678C7.18747 20.5244 7.316 20.4166 7.46988 20.3679L13.9338 18.3616C14.0883 18.3144 14.2551 18.3304 14.3978 18.4062C14.5406 18.482 14.6477 18.6114 14.6959 18.7662C14.7433 18.9213 14.7274 19.0889 14.6519 19.2322C14.5764 19.3755 14.4474 19.4829 14.2932 19.5308Z" fill="#FF514D"/>
</g>
<g opacity="0.28">
<path opacity="0.28" d="M18.3553 18.2714L16.6302 18.8065C16.4757 18.8538 16.3089 18.8378 16.1662 18.762C16.0234 18.6862 15.9162 18.5567 15.868 18.4019C15.821 18.2468 15.837 18.0794 15.9125 17.9362C15.9879 17.7929 16.1167 17.6855 16.2707 17.6373L17.9958 17.1022C18.15 17.0546 18.3166 17.0704 18.4592 17.146C18.6019 17.2216 18.7089 17.3509 18.7568 17.5056C18.8042 17.6607 18.7885 17.8283 18.7133 17.9718C18.6381 18.1153 18.5093 18.223 18.3553 18.2714Z" fill="#FF514D"/>
</g>
<g opacity="0.28">
<path opacity="0.28" d="M19.0683 20.5932L8.54479 23.8545C8.39032 23.9021 8.22338 23.8862 8.08053 23.8104C7.93768 23.7346 7.83056 23.6049 7.78263 23.4499C7.73532 23.2948 7.75115 23.1273 7.82665 22.9839C7.90215 22.8406 8.03114 22.7332 8.18535 22.6853L18.7101 19.4179C18.8645 19.371 19.0312 19.3872 19.1739 19.463C19.3166 19.5387 19.4238 19.6679 19.4722 19.8226C19.4964 19.8998 19.5051 19.9811 19.4978 20.0617C19.4906 20.1424 19.4675 20.2208 19.4299 20.2924C19.3924 20.364 19.3411 20.4275 19.2791 20.4791C19.217 20.5308 19.1454 20.5695 19.0683 20.5932Z" fill="#FF514D"/>
</g>
<path d="M23.58 5.52148L13.22 6.16408C13.0369 6.17501 12.8578 6.2221 12.6929 6.30266C12.528 6.38321 12.3806 6.49565 12.259 6.63354C12.1374 6.77142 12.044 6.93205 11.9843 7.10622C11.9246 7.2804 11.8996 7.4647 11.9108 7.64858L13.0925 26.8879C13.1035 27.0719 13.1506 27.2519 13.231 27.4176C13.3114 27.5833 13.4235 27.7315 13.561 27.8536C13.6985 27.9757 13.8586 28.0693 14.0321 28.1291C14.2057 28.1889 14.3893 28.2137 14.5724 28.2021L27.832 27.3795C28.0148 27.3684 28.1936 27.3212 28.3583 27.2406C28.5229 27.1599 28.6701 27.0474 28.7913 26.9095C28.9126 26.7716 29.0056 26.611 29.065 26.4369C29.1244 26.2628 29.149 26.0787 29.1375 25.895L28.1397 9.56792L23.58 5.52148Z" fill="#FF514D"/>
<path opacity="0.8" d="M23.58 5.52148L13.22 6.16408C13.0369 6.17501 12.8578 6.2221 12.6929 6.30266C12.528 6.38321 12.3806 6.49565 12.259 6.63354C12.1374 6.77142 12.044 6.93205 11.9843 7.10622C11.9246 7.2804 11.8996 7.4647 11.9108 7.64858L13.0925 26.8879C13.1035 27.0719 13.1506 27.2519 13.231 27.4176C13.3114 27.5833 13.4235 27.7315 13.561 27.8536C13.6985 27.9757 13.8586 28.0693 14.0321 28.1291C14.2057 28.1889 14.3893 28.2137 14.5724 28.2021L27.832 27.3795C28.0148 27.3684 28.1936 27.3212 28.3583 27.2406C28.5229 27.1599 28.6701 27.0474 28.7913 26.9095C28.9126 26.7716 29.0056 26.611 29.065 26.4369C29.1244 26.2628 29.149 26.0787 29.1375 25.895L28.1397 9.56792L23.58 5.52148Z" fill="white"/>
<g opacity="0.22">
<path opacity="0.22" d="M24.2063 25.6656L15.5858 26.2007C15.4247 26.21 15.2666 26.1548 15.1459 26.0473C15.0251 25.9398 14.9516 25.7887 14.9414 25.627C14.9322 25.4652 14.9869 25.3064 15.0936 25.1849C15.2003 25.0634 15.3504 24.9892 15.5112 24.9783L24.1318 24.4444C24.2928 24.4348 24.4511 24.4897 24.5721 24.5969C24.693 24.7042 24.7668 24.8552 24.7773 25.017C24.7869 25.179 24.7322 25.3382 24.6251 25.4598C24.5181 25.5813 24.3675 25.6554 24.2063 25.6656Z" fill="#FF514D"/>
</g>
<g opacity="0.22">
<path opacity="0.22" d="M19.1042 8.95807L14.5445 9.2383C14.3835 9.24758 14.2254 9.19264 14.1045 9.08543C13.9837 8.97822 13.9098 8.8274 13.8989 8.66576C13.8897 8.50382 13.9446 8.34478 14.0515 8.22329C14.1585 8.10179 14.3089 8.02769 14.47 8.01712L19.0297 7.73447C19.1906 7.72488 19.3488 7.77974 19.4695 7.88705C19.5903 7.99435 19.6638 8.14536 19.674 8.30701C19.6842 8.46924 19.63 8.6289 19.5231 8.75097C19.4163 8.87303 19.2656 8.94751 19.1042 8.95807Z" fill="#FF514D"/>
</g>
<g opacity="0.22">
<path opacity="0.22" d="M22.2275 11.1979L14.6937 11.6642C14.5326 11.6741 14.3741 11.6194 14.2531 11.512C14.1321 11.4047 14.0584 11.2535 14.0482 11.0916C14.0386 10.9296 14.0934 10.7704 14.2004 10.6488C14.3074 10.5273 14.458 10.4532 14.6192 10.443L22.1518 9.97673C22.3129 9.96681 22.4714 10.0215 22.5924 10.1289C22.7134 10.2362 22.7871 10.3874 22.7974 10.5493C22.8069 10.7111 22.7523 10.8701 22.6456 10.9917C22.5388 11.1132 22.3885 11.1873 22.2275 11.1979Z" fill="#FF514D"/>
</g>
<g opacity="0.22">
<path opacity="0.22" d="M25.8374 13.407L14.8426 14.0882C14.6811 14.0982 14.5222 14.0434 14.4007 13.9358C14.2793 13.8283 14.2052 13.6768 14.1947 13.5145C14.1851 13.3528 14.2397 13.1939 14.3465 13.0725C14.4533 12.9512 14.6036 12.8773 14.7645 12.8671L25.7604 12.1846C25.9215 12.1753 26.0796 12.2305 26.2004 12.338C26.3211 12.4455 26.3946 12.5966 26.4048 12.7583C26.4144 12.9198 26.3601 13.0785 26.2539 13.1999C26.1476 13.3214 25.9979 13.3958 25.8374 13.407Z" fill="#FF514D"/>
</g>
<g opacity="0.22">
<path opacity="0.22" d="M25.9865 15.8297L19.5947 16.2259C19.4336 16.2355 19.2754 16.1807 19.1544 16.0734C19.0334 15.9662 18.9597 15.8152 18.9491 15.6534C18.9393 15.4915 18.9937 15.3323 19.1005 15.2107C19.2074 15.0891 19.3578 15.015 19.519 15.0048L25.9107 14.6086C26.0719 14.5986 26.2303 14.6534 26.3513 14.7607C26.4724 14.868 26.5461 15.0192 26.5563 15.1811C26.5658 15.3429 26.5113 15.502 26.4045 15.6235C26.2977 15.745 26.1474 15.8192 25.9865 15.8297Z" fill="#FF514D"/>
</g>
<g opacity="0.22">
<path opacity="0.22" d="M16.6628 16.4077L14.9906 16.5116C14.8297 16.5212 14.6716 16.4663 14.5508 16.359C14.43 16.2517 14.3565 16.1007 14.3463 15.9391C14.3367 15.7773 14.3913 15.6182 14.4981 15.4967C14.6048 15.3751 14.7551 15.301 14.9161 15.2904L16.5883 15.1866C16.7494 15.1773 16.9077 15.2324 17.0286 15.3399C17.1496 15.4473 17.2233 15.5984 17.2338 15.7603C17.243 15.9221 17.1882 16.081 17.0812 16.2023C16.9742 16.3236 16.8238 16.3975 16.6628 16.4077Z" fill="#FF514D"/>
</g>
<g opacity="0.22">
<path opacity="0.22" d="M26.1354 18.2535L15.1395 18.9347C14.9784 18.9443 14.8201 18.8895 14.6992 18.7823C14.5782 18.675 14.5044 18.524 14.4939 18.3622C14.4847 18.2003 14.5395 18.0412 14.6465 17.9197C14.7534 17.7982 14.9038 17.7241 15.0649 17.7136L26.0597 17.0323C26.2209 17.0227 26.3794 17.0777 26.5004 17.1853C26.6214 17.2928 26.695 17.4441 26.7052 17.6061C26.7148 17.7678 26.6602 17.9267 26.5534 18.048C26.4466 18.1694 26.2963 18.2432 26.1354 18.2535Z" fill="#FF514D"/>
</g>
<g opacity="0.22">
<path opacity="0.22" d="M22.041 20.94L15.2886 21.3591C15.1275 21.3684 14.9692 21.3133 14.8483 21.2058C14.7274 21.0983 14.6536 20.9472 14.6431 20.7853C14.6339 20.6235 14.6887 20.4646 14.7957 20.3433C14.9027 20.222 15.0531 20.1482 15.2141 20.1379L21.9665 19.7188C22.1276 19.7095 22.2857 19.7647 22.4064 19.8722C22.5272 19.9796 22.6006 20.1308 22.6109 20.2925C22.6207 20.4543 22.5662 20.6134 22.4594 20.7348C22.3525 20.8562 22.202 20.93 22.041 20.94Z" fill="#FF514D"/>
</g>
<g opacity="0.22">
<path opacity="0.22" d="M26.2834 20.6774L24.4802 20.7885C24.3193 20.7981 24.1611 20.7433 24.0404 20.636C23.9196 20.5287 23.8461 20.3776 23.8359 20.216C23.826 20.0541 23.8804 19.8949 23.9873 19.7733C24.0941 19.6517 24.2446 19.5776 24.4057 19.5674L26.2089 19.4562C26.37 19.4463 26.5285 19.501 26.6495 19.6084C26.7705 19.7157 26.8442 19.8669 26.8544 20.0288C26.8636 20.1907 26.8088 20.3497 26.7019 20.4712C26.5949 20.5927 26.4445 20.6668 26.2834 20.6774Z" fill="#FF514D"/>
</g>
<g opacity="0.22">
<path opacity="0.22" d="M26.4326 23.1002L15.4379 23.7814C15.2768 23.791 15.1185 23.7362 14.9976 23.6289C14.8766 23.5217 14.8028 23.3707 14.7923 23.2089C14.7828 23.0471 14.8373 22.888 14.9441 22.7665C15.0509 22.645 15.2012 22.5708 15.3621 22.5603L26.3581 21.879C26.519 21.8694 26.6772 21.9243 26.798 22.0316C26.9187 22.1389 26.9923 22.2899 27.0025 22.4515C27.0123 22.6134 26.9579 22.7727 26.8511 22.8943C26.7442 23.0159 26.5938 23.0899 26.4326 23.1002Z" fill="#FF514D"/>
</g>
<path opacity="0.22" d="M23.5798 5.52148L23.759 8.43492C23.7701 8.61862 23.8172 8.7983 23.8975 8.9637C23.9778 9.12911 24.0898 9.277 24.227 9.39893C24.3642 9.52085 24.5239 9.61443 24.6971 9.6743C24.8703 9.73418 25.0536 9.75919 25.2364 9.7479L28.1395 9.56792L23.5798 5.52148Z" fill="#FF514D"/>
<path opacity="0.5" d="M20.1874 12.79C20.1856 12.6504 20.156 12.5125 20.1002 12.3846C20.0445 12.2567 19.9638 12.1413 19.863 12.0453C19.7621 11.9492 19.6431 11.8745 19.513 11.8254C19.3829 11.7763 19.2443 11.754 19.1055 11.7596H9.47635C8.74665 11.7596 8.03379 12.3551 7.89674 13.0883L4.09678 32.6501C3.95493 33.3833 4.43098 33.9788 5.16067 33.9788H35.695C36.4247 33.9788 37.1316 33.3845 37.2746 32.6501L40.4086 16.5248C40.5504 15.7904 40.0744 15.1961 39.3447 15.1961H22.7299C21.2874 15.1961 20.2367 14.1984 20.1874 12.79Z" fill="#FF514D"/>
</svg>
