<svg width="41" height="40" viewBox="0 0 41 40" fill="none" xmlns="http://www.w3.org/2000/svg">
<g clip-path="url(#clip0_42941_14337)">
<path opacity="0.4" d="M4.54433 29.9991C4.54433 30.2937 4.66138 30.5763 4.86975 30.7847C5.07811 30.9931 5.36071 31.1101 5.65538 31.1101H6.51576C7.14557 31.1107 7.75958 30.9129 8.27064 30.5449C8.7817 30.1768 9.16384 29.6571 9.36284 29.0595L10.0996 26.8457L11.2683 30.3504C11.5773 31.2851 12.8731 31.383 13.3154 30.4956L13.8494 29.4303C13.912 29.2998 14.0107 29.19 14.1337 29.1138C14.2568 29.0377 14.3991 28.9983 14.5438 29.0005C14.6927 28.9995 14.8387 29.0418 14.9641 29.1222C15.0894 29.2025 15.1888 29.3175 15.25 29.4533C15.4938 29.9438 15.8678 30.3579 16.3312 30.6501C16.7945 30.9423 17.3293 31.1015 17.877 31.1101H24.8905L26.7654 29.222V36.1182C26.7649 36.3365 26.7214 36.5526 26.6373 36.7541C26.5533 36.9556 26.4303 37.1385 26.2756 37.2925C26.1208 37.4465 25.9373 37.5685 25.7354 37.6515C25.5335 37.7345 25.3172 37.777 25.0989 37.7765H1.75835C1.54004 37.7759 1.32398 37.7324 1.12249 37.6483C0.921006 37.5643 0.738049 37.4414 0.584066 37.2866C0.430083 37.1318 0.30809 36.9483 0.225051 36.7464C0.142012 36.5445 0.0995551 36.3282 0.100103 36.1099V3.88091C0.100649 3.6626 0.14419 3.44653 0.22824 3.24505C0.312289 3.04356 0.435202 2.86061 0.589958 2.70662C0.744715 2.55264 0.928286 2.43065 1.13019 2.34761C1.33209 2.26457 1.54837 2.22211 1.76669 2.22266H17.877V10.0001C17.877 10.2947 17.9941 10.5773 18.2024 10.7857C18.4108 10.9941 18.6934 11.1111 18.9881 11.1111H26.7654V19.6989L20.0991 26.3187V28.888H17.877C17.7392 28.8747 17.607 28.8263 17.4933 28.7472C17.3796 28.6682 17.2882 28.5612 17.2277 28.4366C16.3986 26.7798 14.0161 26.3291 12.6446 27.4534L11.6808 24.5618C11.5704 24.2297 11.3582 23.9407 11.0743 23.7359C10.7904 23.5311 10.4493 23.4209 10.0993 23.4209C9.74922 23.4209 9.40808 23.5311 9.1242 23.7359C8.84033 23.9407 8.62814 24.2297 8.51774 24.5618L7.25253 28.3561C7.20089 28.5107 7.10201 28.6453 6.96981 28.7407C6.83762 28.8362 6.6788 28.8877 6.51576 28.888H5.65538C5.36071 28.888 5.07811 29.0051 4.86975 29.2134C4.66138 29.4218 4.54433 29.7044 4.54433 29.9991Z" fill="#DC241F"/>
<path d="M26.7654 10.6875C26.7654 10.4696 26.7224 10.2538 26.639 10.0524C26.5556 9.85104 26.4334 9.66808 26.2793 9.51397L19.481 2.70875C19.3259 2.55412 19.1417 2.43159 18.9392 2.34819C18.7366 2.26478 18.5196 2.22212 18.3005 2.22266H17.877V10.0001C17.877 10.2947 17.994 10.5773 18.2024 10.7857C18.4107 10.9941 18.6933 11.1111 18.988 11.1111H26.7654V10.6875ZM20.0991 26.3187V31.1101H24.8905L36.1169 19.8065L31.4033 15.0929L20.0991 26.3187ZM39.5813 13.8436L37.3683 11.6305C37.0365 11.2994 36.587 11.1135 36.1183 11.1135C35.6497 11.1135 35.2001 11.2994 34.8684 11.6305L32.9761 13.5228L37.6898 18.2365L39.582 16.3442C39.7463 16.18 39.8766 15.9851 39.9654 15.7705C40.0543 15.556 40.1 15.326 40.0999 15.0938C40.0999 14.8615 40.054 14.6316 39.9651 14.4171C39.8761 14.2026 39.7457 14.0077 39.5813 13.8436Z" fill="#DC241F"/>
</g>
<defs>
<clipPath id="clip0_42941_14337">
<rect width="40" height="40" fill="white" transform="translate(0.100098)"/>
</clipPath>
</defs>
</svg>
