<svg width="41" height="40" viewBox="0 0 41 40" fill="none" xmlns="http://www.w3.org/2000/svg">
<g clip-path="url(#clip0_42941_3129)">
<path opacity="0.4" d="M20.2998 0C9.25142 0 0.299805 8.95161 0.299805 20C0.299805 31.0484 9.25142 40 20.2998 40C31.3482 40 40.2998 31.0484 40.2998 20C40.2998 8.95161 31.3482 0 20.2998 0ZM19.0095 26.4516C19.0095 26.7938 18.8735 27.122 18.6316 27.364C18.3896 27.606 18.0614 27.7419 17.7192 27.7419H13.8482C13.506 27.7419 13.1778 27.606 12.9358 27.364C12.6938 27.122 12.5579 26.7938 12.5579 26.4516V13.5484C12.5579 13.2062 12.6938 12.878 12.9358 12.636C13.1778 12.394 13.506 12.2581 13.8482 12.2581H17.7192C18.0614 12.2581 18.3896 12.394 18.6316 12.636C18.8735 12.878 19.0095 13.2062 19.0095 13.5484V26.4516ZM28.0417 26.4516C28.0417 26.7938 27.9058 27.122 27.6638 27.364C27.4218 27.606 27.0936 27.7419 26.7514 27.7419H22.8804C22.5382 27.7419 22.21 27.606 21.9681 27.364C21.7261 27.122 21.5901 26.7938 21.5901 26.4516V13.5484C21.5901 13.2062 21.7261 12.878 21.9681 12.636C22.21 12.394 22.5382 12.2581 22.8804 12.2581H26.7514C27.0936 12.2581 27.4218 12.394 27.6638 12.636C27.9058 12.878 28.0417 13.2062 28.0417 13.5484V26.4516Z" fill="#DC241F"/>
<path d="M17.7194 12.2578H13.8484C13.5062 12.2578 13.178 12.3938 12.936 12.6357C12.6941 12.8777 12.5581 13.2059 12.5581 13.5481V26.4514C12.5581 26.7936 12.6941 27.1218 12.936 27.3638C13.178 27.6057 13.5062 27.7417 13.8484 27.7417H17.7194C18.0616 27.7417 18.3898 27.6057 18.6318 27.3638C18.8738 27.1218 19.0097 26.7936 19.0097 26.4514V13.5481C19.0097 13.2059 18.8738 12.8777 18.6318 12.6357C18.3898 12.3938 18.0616 12.2578 17.7194 12.2578ZM26.7517 12.2578H22.8807C22.5385 12.2578 22.2103 12.3938 21.9683 12.6357C21.7263 12.8777 21.5904 13.2059 21.5904 13.5481V26.4514C21.5904 26.7936 21.7263 27.1218 21.9683 27.3638C22.2103 27.6057 22.5385 27.7417 22.8807 27.7417H26.7517C27.0939 27.7417 27.4221 27.6057 27.6641 27.3638C27.906 27.1218 28.042 26.7936 28.042 26.4514V13.5481C28.042 13.2059 27.906 12.8777 27.6641 12.6357C27.4221 12.3938 27.0939 12.2578 26.7517 12.2578Z" fill="#DC241F"/>
</g>
<defs>
<clipPath id="clip0_42941_3129">
<rect width="40" height="40" fill="white" transform="translate(0.299805)"/>
</clipPath>
</defs>
</svg>
