<svg width="41" height="40" viewBox="0 0 41 40" fill="none" xmlns="http://www.w3.org/2000/svg">
<g clip-path="url(#clip0_42941_14330)">
<path opacity="0.4" d="M20.8999 4.44434C9.85408 4.44434 0.89992 13.3985 0.89992 24.4443C0.895178 27.9776 1.83142 31.4483 3.61242 34.4999C4.002 35.1679 4.74436 35.5554 5.51797 35.5554H36.2818C37.0554 35.5554 37.7978 35.1679 38.1874 34.4999C39.9684 31.4483 40.9046 27.9776 40.8999 24.4443C40.8999 13.3985 31.9457 4.44434 20.8999 4.44434ZM32.2332 16.5561L24.695 26.6068C25.1138 27.2821 25.3385 28.0597 25.3442 28.8543C25.35 29.6489 25.1367 30.4297 24.7277 31.111H17.0721C16.6726 30.4383 16.4597 29.6712 16.4555 28.8888C16.4555 27.71 16.9237 26.5796 17.7572 25.7461C18.5907 24.9126 19.7212 24.4443 20.8999 24.4443C21.2813 24.4492 21.6604 24.5038 22.0277 24.6068L29.5666 14.5547C29.832 14.2011 30.227 13.9674 30.6647 13.905C31.1024 13.8427 31.547 13.9567 31.9006 14.2221C32.2542 14.4875 32.4879 14.8825 32.5503 15.3202C32.6127 15.7579 32.4986 16.2025 32.2332 16.5561Z" fill="#DC241F"/>
<path d="M20.9 24.4437C21.2814 24.4485 21.6605 24.5032 22.0278 24.6062L29.5667 14.5541C29.8321 14.2005 30.2271 13.9668 30.6648 13.9044C31.1025 13.842 31.5471 13.9561 31.9007 14.2215C32.2543 14.4869 32.488 14.8819 32.5504 15.3196C32.6128 15.7573 32.4987 16.2019 32.2333 16.5555L24.6951 26.6061C25.114 27.2814 25.3386 28.0591 25.3443 28.8536C25.3501 29.6482 25.1368 30.429 24.7278 31.1103H17.0722C16.6727 30.4376 16.4598 29.6705 16.4556 28.8881C16.4556 27.7094 16.9238 26.5789 17.7573 25.7454C18.5908 24.9119 19.7213 24.4437 20.9 24.4437Z" fill="#DC241F"/>
</g>
<defs>
<clipPath id="clip0_42941_14330">
<rect width="40" height="40" fill="white" transform="translate(0.899902)"/>
</clipPath>
</defs>
</svg>
