<svg width="41" height="40" viewBox="0 0 41 40" fill="none" xmlns="http://www.w3.org/2000/svg">
<g clip-path="url(#clip0_42941_3200)">
<path opacity="0.4" d="M20.7002 0C9.65181 0 0.700195 8.95161 0.700195 20C0.700195 31.0484 9.65181 40 20.7002 40C31.7486 40 40.7002 31.0484 40.7002 20C40.7002 8.95161 31.7486 0 20.7002 0ZM30.5066 25.25C30.5969 25.3399 30.6684 25.4467 30.7173 25.5644C30.7661 25.682 30.7913 25.8081 30.7913 25.9355C30.7913 26.0629 30.7661 26.189 30.7173 26.3066C30.6684 26.4242 30.5969 26.5311 30.5066 26.621L27.3131 29.8065C27.2232 29.8967 27.1164 29.9683 26.9987 30.0171C26.8811 30.0659 26.755 30.0911 26.6276 30.0911C26.5002 30.0911 26.3741 30.0659 26.2565 30.0171C26.1389 29.9683 26.032 29.8967 25.9421 29.8065L20.7002 24.5161L15.4502 29.8065C15.3603 29.8967 15.2535 29.9683 15.1358 30.0171C15.0182 30.0659 14.8921 30.0911 14.7647 30.0911C14.6373 30.0911 14.5112 30.0659 14.3936 30.0171C14.276 29.9683 14.1691 29.8967 14.0792 29.8065L10.8937 26.6129C10.8035 26.523 10.7319 26.4162 10.6831 26.2985C10.6343 26.1809 10.6091 26.0548 10.6091 25.9274C10.6091 25.8001 10.6343 25.6739 10.6831 25.5563C10.7319 25.4387 10.8035 25.3318 10.8937 25.2419L16.1841 20L10.8937 14.75C10.8035 14.6601 10.7319 14.5533 10.6831 14.4356C10.6343 14.318 10.6091 14.1919 10.6091 14.0645C10.6091 13.9371 10.6343 13.811 10.6831 13.6934C10.7319 13.5758 10.8035 13.4689 10.8937 13.379L14.0873 10.1855C14.1772 10.0953 14.284 10.0237 14.4017 9.97484C14.5193 9.92599 14.6454 9.90085 14.7728 9.90085C14.9001 9.90085 15.0263 9.92599 15.1439 9.97484C15.2615 10.0237 15.3684 10.0953 15.4583 10.1855L20.7002 15.4839L25.9502 10.1935C26.0401 10.1033 26.1469 10.0317 26.2646 9.9829C26.3822 9.93406 26.5083 9.90891 26.6357 9.90891C26.763 9.90891 26.8892 9.93406 27.0068 9.9829C27.1244 10.0317 27.2313 10.1033 27.3212 10.1935L30.5147 13.3871C30.6049 13.477 30.6765 13.5838 30.7254 13.7015C30.7742 13.8191 30.7993 13.9452 30.7993 14.0726C30.7993 14.1999 30.7742 14.3261 30.7254 14.4437C30.6765 14.5613 30.6049 14.6682 30.5147 14.7581L25.2163 20L30.5066 25.25Z" fill="#DC241F"/>
<path d="M30.5074 25.2486C30.5976 25.3385 30.6692 25.4453 30.718 25.5629C30.7669 25.6806 30.792 25.8067 30.792 25.934C30.792 26.0614 30.7669 26.1875 30.718 26.3052C30.6692 26.4228 30.5976 26.5296 30.5074 26.6195L27.3139 29.805C27.2239 29.8952 27.1171 29.9668 26.9995 30.0157C26.8819 30.0645 26.7557 30.0896 26.6284 30.0896C26.501 30.0896 26.3749 30.0645 26.2573 30.0157C26.1396 29.9668 26.0328 29.8952 25.9429 29.805L20.7009 24.5147L15.4509 29.805C15.361 29.8952 15.2542 29.9668 15.1366 30.0157C15.0189 30.0645 14.8928 30.0896 14.7655 30.0896C14.6381 30.0896 14.512 30.0645 14.3943 30.0157C14.2767 29.9668 14.1699 29.8952 14.08 29.805L10.8945 26.6115C10.8043 26.5216 10.7327 26.4147 10.6838 26.2971C10.635 26.1795 10.6099 26.0534 10.6099 25.926C10.6099 25.7986 10.635 25.6725 10.6838 25.5549C10.7327 25.4372 10.8043 25.3304 10.8945 25.2405L16.1848 19.9986L10.8945 14.7486C10.8043 14.6587 10.7327 14.5518 10.6838 14.4342C10.635 14.3166 10.6099 14.1904 10.6099 14.0631C10.6099 13.9357 10.635 13.8096 10.6838 13.692C10.7327 13.5743 10.8043 13.4675 10.8945 13.3776L14.088 10.184C14.178 10.0938 14.2848 10.0222 14.4024 9.9734C14.52 9.92456 14.6462 9.89941 14.7735 9.89941C14.9009 9.89941 15.027 9.92456 15.1446 9.9734C15.2623 10.0222 15.3691 10.0938 15.459 10.184L20.7009 15.4824L25.9509 10.1921C26.0409 10.1019 26.1477 10.0303 26.2653 9.98147C26.3829 9.93262 26.5091 9.90748 26.6364 9.90748C26.7638 9.90748 26.8899 9.93262 27.0075 9.98147C27.1252 10.0303 27.232 10.1019 27.3219 10.1921L30.5155 13.3857C30.6057 13.4756 30.6773 13.5824 30.7261 13.7C30.775 13.8177 30.8001 13.9438 30.8001 14.0711C30.8001 14.1985 30.775 14.3246 30.7261 14.4423C30.6773 14.5599 30.6057 14.6667 30.5155 14.7566L25.2171 19.9986L30.5074 25.2486Z" fill="#DC241F"/>
</g>
<defs>
<clipPath id="clip0_42941_3200">
<rect width="40" height="40" fill="white" transform="translate(0.700195)"/>
</clipPath>
</defs>
</svg>
