<svg width="30" height="30" viewBox="0 0 30 30" fill="none" xmlns="http://www.w3.org/2000/svg">
<rect width="30" height="30" rx="10" fill="#FFF5F4"/>
<path opacity="0.4" d="M12.1436 23.9289V15.001H17.8623V23.9289C17.8623 24.213 17.7494 24.4855 17.5485 24.6864C17.3476 24.8873 17.0751 25.0002 16.791 25.0002H13.2149C12.9308 25.0002 12.6583 24.8873 12.4573 24.6864C12.2564 24.4855 12.1436 24.213 12.1436 23.9289Z" fill="#DC241F"/>
<path d="M6.74429 13.1702L14.2415 5.31363C14.443 5.11278 14.7159 5 15.0004 5C15.2849 5 15.5578 5.11278 15.7592 5.31363L23.2551 13.1702C23.9296 13.8438 23.4515 15.0004 22.4962 15.0004H7.50317C6.54699 15.0004 6.07247 13.8532 6.74429 13.1702Z" fill="#DC241F"/>
</svg>
