<svg width="31" height="30" viewBox="0 0 31 30" fill="none" xmlns="http://www.w3.org/2000/svg">
<rect x="0.5" width="30" height="30" rx="10" fill="#FFF5F4"/>
<g clip-path="url(#clip0_41709_217644)">
<path opacity="0.4" d="M10.5005 15.6241V17.4989H24.5612C24.8099 17.4989 25.0483 17.5977 25.2241 17.7735C25.3999 17.9492 25.4986 18.1877 25.4986 18.4363V19.0612C25.4986 19.3098 25.3999 19.5482 25.2241 19.724C25.0483 19.8998 24.8099 19.9986 24.5612 19.9986H10.5005V21.8733C10.5005 22.7107 9.48735 23.1232 8.89914 22.5373L5.77453 19.4127C5.59875 19.2369 5.5 18.9985 5.5 18.7499C5.5 18.5013 5.59875 18.2629 5.77453 18.0871L8.89914 14.9625C9.49047 14.372 10.5005 14.7926 10.5005 15.6241Z" fill="#DC241F"/>
<path d="M25.2251 10.5889C25.3122 10.676 25.3813 10.7794 25.4284 10.8931C25.4755 11.0069 25.4998 11.1288 25.4998 11.2519C25.4998 11.3751 25.4755 11.497 25.4284 11.6108C25.3813 11.7245 25.3122 11.8279 25.2251 11.915L22.1005 15.0396C21.5146 15.6254 20.4991 15.2149 20.4991 14.3756V12.5008H6.43836C6.18975 12.5008 5.95132 12.4021 5.77553 12.2263C5.59974 12.0505 5.50098 11.812 5.50098 11.5634V10.9385C5.50098 10.6899 5.59974 10.4515 5.77553 10.2757C5.95132 10.0999 6.18975 10.0011 6.43836 10.0011H20.4991V8.12636C20.4991 7.29209 21.5107 6.87651 22.1005 7.46238L25.2251 10.5889Z" fill="#DC241F"/>
</g>
<defs>
<clipPath id="clip0_41709_217644">
<rect width="20" height="20" fill="white" transform="translate(5.5 5)"/>
</clipPath>
</defs>
</svg>
