<svg width="14" height="14" viewBox="0 0 14 14" fill="none" xmlns="http://www.w3.org/2000/svg">
<path d="M5.98389 3.04867C5.98389 2.95884 6.01957 2.87269 6.08309 2.80917C6.14661 2.74565 6.23277 2.70996 6.3226 2.70996H7.67744C7.76727 2.70996 7.85342 2.74565 7.91694 2.80917C7.98046 2.87269 8.01615 2.95884 8.01615 3.04867V6.93536L9.80848 8.2394C9.8445 8.26566 9.87498 8.29878 9.89817 8.33686C9.92136 8.37493 9.93681 8.4172 9.94363 8.46126C9.95045 8.50531 9.9485 8.55028 9.9379 8.59358C9.92731 8.63688 9.90826 8.67766 9.88187 8.71359L9.0859 9.80875C9.03248 9.881 8.9527 9.92923 8.8639 9.94298C8.7751 9.95672 8.68447 9.93485 8.61171 9.88214L6.12219 8.07286C6.07936 8.0412 6.04453 7.99995 6.02051 7.9524C5.9965 7.90485 5.98395 7.85234 5.98389 7.79907V3.04867Z" fill="#DC241F"/>
<path opacity="0.4" d="M7 0C3.13306 0 0 3.13306 0 7C0 10.8669 3.13306 14 7 14C10.8669 14 14 10.8669 14 7C14 3.13306 10.8669 0 7 0ZM9.88186 8.71331L9.08589 9.80847C9.03246 9.88071 8.95268 9.92895 8.86388 9.94269C8.77509 9.95643 8.68446 9.93457 8.61169 9.88186L6.12218 8.07258C6.07934 8.04092 6.04452 7.99966 6.0205 7.95212C5.99648 7.90457 5.98394 7.85206 5.98387 7.79879V3.04839C5.98387 2.95856 6.01956 2.8724 6.08308 2.80888C6.1466 2.74536 6.23275 2.70968 6.32258 2.70968H7.67742C7.76725 2.70968 7.8534 2.74536 7.91692 2.80888C7.98044 2.8724 8.01613 2.95856 8.01613 3.04839V6.93508L9.80847 8.23911C9.84449 8.26538 9.87496 8.2985 9.89815 8.33657C9.92135 8.37464 9.93679 8.41692 9.94361 8.46097C9.95043 8.50503 9.94848 8.55 9.93789 8.5933C9.92729 8.6366 9.90825 8.67738 9.88186 8.71331Z" fill="#DC241F"/>
</svg>
