<svg width="20" height="22" viewBox="0 0 20 22" fill="none" xmlns="http://www.w3.org/2000/svg">
<path d="M11.6668 3.49967C11.6668 4.42015 10.9206 5.16634 10.0002 5.16634C9.07969 5.16634 8.3335 4.42015 8.3335 3.49967C8.3335 2.5792 9.07969 1.83301 10.0002 1.83301C10.9206 1.83301 11.6668 2.5792 11.6668 3.49967Z" stroke="#8D98B4" stroke-width="2" stroke-linecap="round" stroke-linejoin="round"/>
<path d="M11.6668 10.9997C11.6668 11.9201 10.9206 12.6663 10.0002 12.6663C9.07969 12.6663 8.3335 11.9201 8.3335 10.9997C8.3335 10.0792 9.07969 9.33301 10.0002 9.33301C10.9206 9.33301 11.6668 10.0792 11.6668 10.9997Z" stroke="#8D98B4" stroke-width="2" stroke-linecap="round" stroke-linejoin="round"/>
<path d="M11.6668 18.4997C11.6668 19.4201 10.9206 20.1663 10.0002 20.1663C9.07969 20.1663 8.3335 19.4201 8.3335 18.4997C8.3335 17.5792 9.07969 16.833 10.0002 16.833C10.9206 16.833 11.6668 17.5792 11.6668 18.4997Z" stroke="#8D98B4" stroke-width="2" stroke-linecap="round" stroke-linejoin="round"/>
</svg>
