<svg width="14" height="14" viewBox="0 0 14 14" fill="none" xmlns="http://www.w3.org/2000/svg">
<path opacity="0.4" d="M13.8422 11.4726L8.01042 1.36164C7.56223 0.583879 6.43812 0.583879 5.9892 1.36164L0.157414 11.4726C-0.290288 12.2489 0.27019 13.2226 1.16778 13.2226H12.8316C13.7277 13.2226 14.2914 12.2504 13.8422 11.4726ZM6.99981 11.667C6.84598 11.667 6.69561 11.6214 6.56771 11.536C6.4398 11.4505 6.34012 11.329 6.28125 11.1869C6.22238 11.0448 6.20698 10.8884 6.23699 10.7375C6.267 10.5867 6.34107 10.4481 6.44985 10.3393C6.55862 10.2305 6.6972 10.1565 6.84808 10.1265C6.99895 10.0964 7.15533 10.1118 7.29745 10.1707C7.43957 10.2296 7.56104 10.3293 7.6465 10.4572C7.73196 10.5851 7.77758 10.7355 7.77758 10.8893C7.77758 11.0956 7.69563 11.2934 7.54977 11.4392C7.40391 11.5851 7.20609 11.667 6.99981 11.667ZM7.92924 5.87244L7.61813 8.98351C7.60855 9.07948 7.56365 9.16846 7.49214 9.23318C7.42064 9.2979 7.32764 9.33374 7.23119 9.33375H6.7694C6.67295 9.33374 6.57995 9.2979 6.50845 9.23318C6.43694 9.16846 6.39204 9.07948 6.38246 8.98351L6.07135 5.87244C6.06596 5.81847 6.07192 5.76396 6.08885 5.71243C6.10578 5.66089 6.13331 5.61347 6.16966 5.5732C6.20601 5.53294 6.25038 5.50073 6.29992 5.47863C6.34946 5.45654 6.40307 5.44505 6.45732 5.44492H7.5423C7.59663 5.44492 7.65035 5.4563 7.70001 5.47834C7.74967 5.50037 7.79416 5.53257 7.83061 5.57284C7.86706 5.61312 7.89468 5.66059 7.91166 5.7122C7.92865 5.7638 7.93464 5.81839 7.92924 5.87244Z" fill="#DC241F"/>
<path d="M7.5427 5.44531H6.45771C6.40339 5.44532 6.34966 5.4567 6.3 5.47873C6.25035 5.50077 6.20586 5.53296 6.1694 5.57324C6.13295 5.61352 6.10534 5.66099 6.08835 5.71259C6.07136 5.76419 6.06537 5.81878 6.07077 5.87284L6.38188 8.9839C6.39146 9.07987 6.43637 9.16885 6.50787 9.23357C6.57937 9.2983 6.67237 9.33414 6.76882 9.33414H7.23062C7.32706 9.33414 7.42006 9.2983 7.49157 9.23357C7.56307 9.16885 7.60797 9.07987 7.61756 8.9839L7.92866 5.87284C7.93405 5.81886 7.92809 5.76436 7.91116 5.71282C7.89423 5.66129 7.86671 5.61387 7.83036 5.5736C7.79401 5.53334 7.74964 5.50112 7.7001 5.47903C7.65056 5.45694 7.59694 5.44545 7.5427 5.44531ZM7.0002 10.1119C6.84638 10.1119 6.696 10.1575 6.5681 10.243C6.4402 10.3284 6.34051 10.4499 6.28164 10.592C6.22277 10.7342 6.20737 10.8905 6.23738 11.0414C6.26739 11.1923 6.34147 11.3309 6.45024 11.4396C6.55901 11.5484 6.6976 11.6225 6.84847 11.6525C6.99934 11.6825 7.15572 11.6671 7.29784 11.6082C7.43996 11.5494 7.56143 11.4497 7.64689 11.3218C7.73235 11.1939 7.77797 11.0435 7.77797 10.8897C7.77797 10.6834 7.69603 10.4856 7.55017 10.3397C7.40431 10.1939 7.20648 10.1119 7.0002 10.1119Z" fill="#DC241F"/>
</svg>
