<svg width="64" height="64" viewBox="0 0 64 64" fill="none" xmlns="http://www.w3.org/2000/svg">
<path d="M34.667 5.33398H16.0003C14.5858 5.33398 13.2293 5.89589 12.2291 6.89608C11.2289 7.89628 10.667 9.25283 10.667 10.6673V53.334C10.667 54.7485 11.2289 56.105 12.2291 57.1052C13.2293 58.1054 14.5858 58.6673 16.0003 58.6673H48.0003C49.4148 58.6673 50.7714 58.1054 51.7716 57.1052C52.7718 56.105 53.3337 54.7485 53.3337 53.334V24.0007L34.667 5.33398Z" fill="white"/>
<path d="M34.667 5.33398V24.0007H53.3337" fill="white"/>
<path d="M34.667 5.33398H16.0003C14.5858 5.33398 13.2293 5.89589 12.2291 6.89608C11.2289 7.89628 10.667 9.25283 10.667 10.6673V53.334C10.667 54.7485 11.2289 56.105 12.2291 57.1052C13.2293 58.1054 14.5858 58.6673 16.0003 58.6673H48.0003C49.4148 58.6673 50.7714 58.1054 51.7716 57.1052C52.7718 56.105 53.3337 54.7485 53.3337 53.334V24.0006M34.667 5.33398L53.3337 24.0006M34.667 5.33398V24.0006H53.3337" stroke="#E6EAF3" stroke-width="0.5" stroke-linecap="round" stroke-linejoin="round"/>
<path d="M34.667 24.0007V5.33398L53.3337 24.0007H34.667Z" fill="#E6EAF3"/>
<rect x="16" y="13" width="14" height="2" rx="1" fill="#E6EAF3"/>
<rect x="16" y="19" width="14" height="2" rx="1" fill="#E6EAF3"/>
<rect x="16" y="25" width="14" height="2" rx="1" fill="#E6EAF3"/>
<rect x="16" y="30" width="31" height="2" rx="1" fill="#E6EAF3"/>
<rect x="16" y="35" width="31" height="2" rx="1" fill="#E6EAF3"/>
<rect x="16" y="40" width="31" height="2" rx="1" fill="#E6EAF3"/>
<rect x="16" y="45" width="31" height="2" rx="1" fill="#E6EAF3"/>
<rect x="16" y="50" width="31" height="2" rx="1" fill="#E6EAF3"/>
</svg>
