<svg width="18" height="18" viewBox="0 0 18 18" fill="none" xmlns="http://www.w3.org/2000/svg">
<path d="M15 11.25L15.7071 11.9571C15.8946 11.7696 16 11.5152 16 11.25H15ZM15 2.25H16C16 1.84554 15.7564 1.4809 15.3827 1.32612C15.009 1.17134 14.5789 1.2569 14.2929 1.54289L15 2.25ZM3 2.25L2.29289 1.54289C2.10536 1.73043 2 1.98478 2 2.25H3ZM2 16.5C2 17.0523 2.44772 17.5 3 17.5C3.55228 17.5 4 17.0523 4 16.5H2ZM3 11.25C3.70711 11.9571 3.70659 11.9576 3.70608 11.9581C3.70591 11.9583 3.7054 11.9588 3.70506 11.9591C3.70439 11.9598 3.70373 11.9605 3.70308 11.9611C3.70178 11.9624 3.70052 11.9636 3.69929 11.9648C3.69684 11.9672 3.69456 11.9694 3.69243 11.9715C3.68818 11.9755 3.68458 11.9789 3.68164 11.9815C3.67578 11.9868 3.67261 11.9895 3.67233 11.9897C3.67172 11.9902 3.6828 11.981 3.70704 11.9649C3.75516 11.9328 3.85782 11.8714 4.02764 11.8035C4.36551 11.6683 4.98772 11.5 6 11.5V9.5C4.76228 9.5 3.88449 9.70667 3.28486 9.94652C2.98593 10.0661 2.76046 10.1922 2.59764 10.3008C2.51641 10.3549 2.45132 10.4043 2.40091 10.4458C2.37573 10.4666 2.35425 10.4853 2.3363 10.5016C2.32733 10.5098 2.31924 10.5173 2.31201 10.5242C2.3084 10.5277 2.305 10.531 2.30181 10.5341C2.30022 10.5356 2.29868 10.5371 2.29719 10.5386C2.29645 10.5394 2.29572 10.5401 2.295 10.5408C2.29465 10.5411 2.29412 10.5417 2.29394 10.5418C2.29341 10.5424 2.29289 10.5429 3 11.25ZM6 11.5C6.90569 11.5 7.67301 11.7962 8.62861 12.1785C9.54801 12.5462 10.6557 13 12 13V11C11.0943 11 10.327 10.7038 9.37139 10.3215C8.45199 9.95376 7.34431 9.5 6 9.5V11.5ZM12 13C13.2377 13 14.1155 12.7933 14.7151 12.5535C15.0141 12.4339 15.2395 12.3078 15.4024 12.1992C15.4836 12.1451 15.5487 12.0957 15.5991 12.0542C15.6243 12.0334 15.6458 12.0147 15.6637 11.9984C15.6727 11.9902 15.6808 11.9827 15.688 11.9758C15.6916 11.9723 15.695 11.969 15.6982 11.9659C15.6998 11.9644 15.7013 11.9629 15.7028 11.9614C15.7035 11.9606 15.7043 11.9599 15.705 11.9592C15.7054 11.9589 15.7059 11.9583 15.7061 11.9582C15.7066 11.9576 15.7071 11.9571 15 11.25C14.2929 10.5429 14.2934 10.5424 14.2939 10.5419C14.2941 10.5417 14.2946 10.5412 14.2949 10.5409C14.2956 10.5402 14.2963 10.5395 14.2969 10.5389C14.2982 10.5376 14.2995 10.5364 14.3007 10.5352C14.3032 10.5328 14.3054 10.5306 14.3076 10.5285C14.3118 10.5245 14.3154 10.5211 14.3184 10.5185C14.3242 10.5132 14.3274 10.5105 14.3277 10.5103C14.3283 10.5098 14.3172 10.519 14.293 10.5351C14.2448 10.5672 14.1422 10.6286 13.9724 10.6965C13.6345 10.8317 13.0123 11 12 11V13ZM16 11.25V2.25H14V11.25H16ZM15 2.25C14.2929 1.54289 14.2934 1.54238 14.2939 1.54187C14.2941 1.5417 14.2946 1.54119 14.2949 1.54086C14.2956 1.54019 14.2963 1.53953 14.2969 1.53889C14.2982 1.5376 14.2995 1.53636 14.3007 1.53517C14.3032 1.53278 14.3054 1.53057 14.3076 1.52854C14.3118 1.52449 14.3154 1.52115 14.3184 1.51848C14.3242 1.51315 14.3274 1.51053 14.3277 1.5103C14.3283 1.5098 14.3172 1.51898 14.293 1.53514C14.2448 1.56722 14.1422 1.62859 13.9724 1.69652C13.6345 1.83167 13.0123 2 12 2V4C13.2377 4 14.1155 3.79333 14.7151 3.55348C15.0141 3.43391 15.2395 3.30778 15.4024 3.19924C15.4836 3.14508 15.5487 3.09567 15.5991 3.05416C15.6243 3.03341 15.6458 3.01468 15.6637 2.99836C15.6727 2.9902 15.6808 2.98265 15.688 2.97576C15.6916 2.97231 15.695 2.96903 15.6982 2.96592C15.6998 2.96436 15.7013 2.96285 15.7028 2.96138C15.7035 2.96065 15.7043 2.95992 15.705 2.95921C15.7054 2.95886 15.7059 2.95833 15.7061 2.95815C15.7066 2.95763 15.7071 2.95711 15 2.25ZM12 2C11.0943 2 10.327 1.70376 9.37139 1.32152C8.45199 0.953762 7.34431 0.5 6 0.5V2.5C6.90569 2.5 7.67301 2.79624 8.62861 3.17848C9.54801 3.54624 10.6557 4 12 4V2ZM6 0.5C4.76228 0.5 3.88449 0.706672 3.28486 0.946523C2.98593 1.06609 2.76046 1.19222 2.59764 1.30076C2.51641 1.35491 2.45132 1.40433 2.40091 1.44584C2.37573 1.46659 2.35425 1.48532 2.3363 1.50164C2.32733 1.5098 2.31924 1.51735 2.31201 1.52424C2.3084 1.52769 2.305 1.53097 2.30181 1.53408C2.30022 1.53564 2.29868 1.53715 2.29719 1.53862C2.29645 1.53935 2.29572 1.54008 2.295 1.54079C2.29465 1.54114 2.29412 1.54167 2.29394 1.54185C2.29341 1.54237 2.29289 1.54289 3 2.25C3.70711 2.95711 3.70659 2.95762 3.70608 2.95813C3.70591 2.9583 3.7054 2.95881 3.70506 2.95914C3.70439 2.95981 3.70373 2.96047 3.70308 2.96111C3.70178 2.9624 3.70052 2.96364 3.69929 2.96483C3.69684 2.96722 3.69456 2.96943 3.69243 2.97146C3.68818 2.97551 3.68458 2.97885 3.68164 2.98152C3.67578 2.98685 3.67261 2.98947 3.67233 2.9897C3.67172 2.9902 3.6828 2.98102 3.70704 2.96486C3.75516 2.93278 3.85782 2.87141 4.02764 2.80348C4.36551 2.66833 4.98772 2.5 6 2.5V0.5ZM2 2.25V11.25H4V2.25H2ZM4 16.5V11.25H2V16.5H4Z" fill="#BCC8E7"/>
</svg>
