<svg width="16" height="16" viewBox="0 0 16 16" fill="none" xmlns="http://www.w3.org/2000/svg">
<path d="M13 9.875L13.3536 10.2286C13.4473 10.1348 13.5 10.0076 13.5 9.875H13ZM13 2.375H13.5C13.5 2.17277 13.3782 1.99045 13.1913 1.91306C13.0045 1.83567 12.7894 1.87845 12.6464 2.02145L13 2.375ZM3 2.375L2.64645 2.02145C2.55268 2.11521 2.5 2.24239 2.5 2.375H3ZM2.5 14.25C2.5 14.5261 2.72386 14.75 3 14.75C3.27614 14.75 3.5 14.5261 3.5 14.25H2.5ZM3 9.875C3.35355 10.2286 3.3533 10.2288 3.35304 10.2291C3.35296 10.2291 3.35271 10.2294 3.35254 10.2296C3.35222 10.2299 3.3519 10.2302 3.35159 10.2305C3.35097 10.2311 3.35038 10.2317 3.34983 10.2322C3.34873 10.2333 3.34777 10.2342 3.34696 10.235C3.34533 10.2366 3.34427 10.2375 3.34381 10.238C3.34289 10.2388 3.34436 10.2374 3.34837 10.2341C3.35637 10.2275 3.37461 10.2132 3.4043 10.1934C3.46352 10.1539 3.56953 10.092 3.73257 10.0267C4.05776 9.89666 4.61886 9.75 5.5 9.75V8.75C4.50614 8.75 3.81724 8.91584 3.36118 9.09826C3.13359 9.1893 2.96617 9.28361 2.8496 9.36132C2.79141 9.40011 2.74617 9.43459 2.71266 9.46218C2.69592 9.47597 2.68213 9.48802 2.67114 9.49801C2.66565 9.50301 2.66085 9.50748 2.65674 9.5114C2.65469 9.51336 2.65281 9.51518 2.65109 9.51686C2.65023 9.5177 2.64942 9.5185 2.64864 9.51926C2.64826 9.51965 2.64788 9.52002 2.64751 9.52038C2.64733 9.52056 2.64706 9.52083 2.64697 9.52092C2.64671 9.52119 2.64645 9.52145 3 9.875ZM5.5 9.75C6.32785 9.75 7.02401 10.0231 7.8143 10.3392C8.58651 10.6481 9.45285 11 10.5 11V10C9.67215 10 8.97599 9.72688 8.1857 9.41076C7.41349 9.10188 6.54715 8.75 5.5 8.75V9.75ZM10.5 11C11.4939 11 12.1828 10.8342 12.6388 10.6517C12.8664 10.5607 13.0338 10.4664 13.1504 10.3887C13.2086 10.3499 13.2538 10.3154 13.2873 10.2878C13.3041 10.274 13.3179 10.262 13.3289 10.252C13.3344 10.247 13.3391 10.2425 13.3433 10.2386C13.3453 10.2366 13.3472 10.2348 13.3489 10.2331C13.3498 10.2323 13.3506 10.2315 13.3514 10.2307C13.3517 10.2304 13.3521 10.23 13.3525 10.2296C13.3527 10.2294 13.3529 10.2292 13.353 10.2291C13.3533 10.2288 13.3536 10.2286 13 9.875C12.6464 9.52145 12.6467 9.52119 12.647 9.52094C12.647 9.52085 12.6473 9.5206 12.6475 9.52044C12.6478 9.52011 12.6481 9.5198 12.6484 9.51949C12.649 9.51888 12.6496 9.5183 12.6502 9.51777C12.6513 9.51669 12.6522 9.51577 12.653 9.51499C12.6547 9.51343 12.6557 9.51247 12.6562 9.51205C12.6571 9.51121 12.6556 9.51259 12.6516 9.51589C12.6436 9.52248 12.6254 9.53683 12.5957 9.55663C12.5365 9.59611 12.4305 9.65805 12.2674 9.72326C11.9422 9.85334 11.3811 10 10.5 10V11ZM13.5 9.875V2.375H12.5V9.875H13.5ZM13 2.375C12.6464 2.02145 12.6467 2.02119 12.647 2.02094C12.647 2.02085 12.6473 2.0206 12.6475 2.02044C12.6478 2.02011 12.6481 2.0198 12.6484 2.01949C12.649 2.01888 12.6496 2.0183 12.6502 2.01776C12.6513 2.01669 12.6522 2.01577 12.653 2.01499C12.6547 2.01343 12.6557 2.01247 12.6562 2.01205C12.6571 2.01121 12.6556 2.01259 12.6516 2.01589C12.6436 2.02248 12.6254 2.03683 12.5957 2.05663C12.5365 2.09611 12.4305 2.15805 12.2674 2.22326C11.9422 2.35334 11.3811 2.5 10.5 2.5V3.5C11.4939 3.5 12.1828 3.33416 12.6388 3.15174C12.8664 3.0607 13.0338 2.96639 13.1504 2.88868C13.2086 2.84989 13.2538 2.81541 13.2873 2.78782C13.3041 2.77403 13.3179 2.76198 13.3289 2.75199C13.3344 2.74699 13.3391 2.74252 13.3433 2.7386C13.3453 2.73664 13.3472 2.73482 13.3489 2.73314C13.3498 2.7323 13.3506 2.7315 13.3514 2.73074C13.3517 2.73035 13.3521 2.72998 13.3525 2.72962C13.3527 2.72944 13.3529 2.72917 13.353 2.72908C13.3533 2.72881 13.3536 2.72855 13 2.375ZM10.5 2.5C9.67215 2.5 8.97599 2.22688 8.1857 1.91076C7.41349 1.60188 6.54715 1.25 5.5 1.25V2.25C6.32785 2.25 7.02401 2.52312 7.8143 2.83924C8.58651 3.14812 9.45285 3.5 10.5 3.5V2.5ZM5.5 1.25C4.50614 1.25 3.81724 1.41584 3.36118 1.59826C3.13359 1.6893 2.96617 1.78361 2.8496 1.86132C2.79141 1.90011 2.74617 1.93459 2.71266 1.96218C2.69592 1.97597 2.68213 1.98802 2.67114 1.99801C2.66565 2.00301 2.66085 2.00748 2.65674 2.0114C2.65469 2.01336 2.65281 2.01518 2.65109 2.01686C2.65023 2.0177 2.64942 2.0185 2.64864 2.01926C2.64826 2.01965 2.64788 2.02002 2.64751 2.02038C2.64733 2.02056 2.64706 2.02083 2.64697 2.02092C2.64671 2.02119 2.64645 2.02145 3 2.375C3.35355 2.72855 3.3533 2.72881 3.35304 2.72906C3.35296 2.72915 3.35271 2.7294 3.35254 2.72956C3.35222 2.72989 3.3519 2.7302 3.35159 2.73051C3.35097 2.73112 3.35038 2.7317 3.34983 2.73224C3.34873 2.73331 3.34777 2.73423 3.34696 2.73501C3.34533 2.73657 3.34427 2.73753 3.34381 2.73795C3.34289 2.73879 3.34436 2.73741 3.34837 2.73411C3.35637 2.72752 3.37461 2.71317 3.4043 2.69337C3.46352 2.65389 3.56953 2.59195 3.73257 2.52674C4.05776 2.39666 4.61886 2.25 5.5 2.25V1.25ZM2.5 2.375V9.875H3.5V2.375H2.5ZM3.5 14.25V9.875H2.5V14.25H3.5Z" fill="#DC241F"/>
</svg>
