<svg width="40" height="30" viewBox="0 0 40 30" fill="none" xmlns="http://www.w3.org/2000/svg">
<path d="M14.5663 6.87213C14.4991 6.57926 14.3351 6.31791 14.1011 6.13078C13.867 5.94364 13.5767 5.84177 13.2776 5.8418H3.66049C3.30978 5.8418 2.97343 5.98178 2.72544 6.23096C2.47745 6.48014 2.33813 6.81809 2.33813 7.17048V28.6492C2.33813 29.0016 2.47745 29.3395 2.72544 29.5887C2.97343 29.8379 3.30978 29.9779 3.66049 29.9779H34.1948C34.5455 29.9779 34.8819 29.8379 35.1299 29.5887C35.3779 29.3395 35.5172 29.0016 35.5172 28.6492V10.6069C35.5172 10.2545 35.3779 9.91659 35.1299 9.66741C34.8819 9.41823 34.5455 9.27825 34.1948 9.27825H17.5752C16.8768 9.27837 16.1989 9.04048 15.6524 8.60344C15.1058 8.16641 14.723 7.55607 14.5663 6.87213Z" fill="#FF514D"/>
<path opacity="0.6" d="M14.5663 6.87213C14.4991 6.57926 14.3351 6.31791 14.1011 6.13078C13.867 5.94364 13.5767 5.84177 13.2776 5.8418H3.66049C3.30978 5.8418 2.97343 5.98178 2.72544 6.23096C2.47745 6.48014 2.33813 6.81809 2.33813 7.17048V28.6492C2.33813 29.0016 2.47745 29.3395 2.72544 29.5887C2.97343 29.8379 3.30978 29.9779 3.66049 29.9779H34.1948C34.5455 29.9779 34.8819 29.8379 35.1299 29.5887C35.3779 29.3395 35.5172 29.0016 35.5172 28.6492V10.6069C35.5172 10.2545 35.3779 9.91659 35.1299 9.66741C34.8819 9.41823 34.5455 9.27825 34.1948 9.27825H17.5752C16.8768 9.27837 16.1989 9.04048 15.6524 8.60344C15.1058 8.16641 14.723 7.55607 14.5663 6.87213Z" fill="black"/>
<path opacity="0.22" d="M11.1714 0.183594L12.0285 2.97262C12.1379 3.32758 12.3831 3.6244 12.7101 3.79788C13.0372 3.97136 13.4194 4.00732 13.7728 3.89786L16.5474 3.03664L11.1714 0.183594Z" fill="#FF514D"/>
<path d="M11.1715 0.183594L1.25389 3.26251C1.07882 3.31655 0.916063 3.40475 0.774942 3.52205C0.633821 3.63936 0.517103 3.78347 0.431465 3.94614C0.345826 4.10882 0.292948 4.28686 0.275856 4.47008C0.258764 4.65331 0.277793 4.83812 0.331854 5.01395L5.99393 23.4319C6.04797 23.6077 6.13596 23.7712 6.25287 23.9128C6.36979 24.0545 6.51334 24.1717 6.67532 24.2576C6.8373 24.3435 7.01454 24.3965 7.19692 24.4136C7.3793 24.4307 7.56324 24.4115 7.73823 24.3571L20.4316 20.417C20.6066 20.3628 20.7692 20.2745 20.9102 20.1572C21.0512 20.0398 21.1678 19.8957 21.2533 19.733C21.3388 19.5704 21.3916 19.3924 21.4086 19.2092C21.4256 19.026 21.4065 18.8413 21.3525 18.6655L16.5439 3.03663L11.1715 0.183594Z" fill="#FF514D"/>
<path opacity="0.8" d="M11.1715 0.183594L1.25389 3.26251C1.07882 3.31655 0.916063 3.40475 0.774942 3.52205C0.633821 3.63936 0.517103 3.78347 0.431465 3.94614C0.345826 4.10882 0.292948 4.28686 0.275856 4.47008C0.258764 4.65331 0.277793 4.83812 0.331854 5.01395L5.99393 23.4319C6.04797 23.6077 6.13596 23.7712 6.25287 23.9128C6.36979 24.0545 6.51334 24.1717 6.67532 24.2576C6.8373 24.3435 7.01454 24.3965 7.19692 24.4136C7.3793 24.4307 7.56324 24.4115 7.73823 24.3571L20.4316 20.417C20.6066 20.3628 20.7692 20.2745 20.9102 20.1572C21.0512 20.0398 21.1678 19.8957 21.2533 19.733C21.3388 19.5704 21.3916 19.3924 21.4086 19.2092C21.4256 19.026 21.4065 18.8413 21.3525 18.6655L16.5439 3.03663L11.1715 0.183594Z" fill="white"/>
<g opacity="0.28">
<path opacity="0.28" d="M16.5079 19.6122L8.25641 22.1729C8.10209 22.2205 7.93529 22.2048 7.79247 22.1292C7.64965 22.0536 7.54243 21.9243 7.49425 21.7695C7.44727 21.6144 7.46325 21.447 7.5387 21.3038C7.61415 21.1605 7.74295 21.0531 7.89696 21.0049L16.1485 18.443C16.3029 18.3954 16.4699 18.4113 16.6127 18.4871C16.7556 18.5629 16.8627 18.6926 16.9106 18.8476C16.9576 19.0026 16.9416 19.1701 16.8662 19.3133C16.7907 19.4566 16.6619 19.564 16.5079 19.6122Z" fill="#FF514D"/>
</g>
<g opacity="0.28">
<path opacity="0.28" d="M7.62778 4.5833L3.26401 5.93735C3.1097 5.98464 2.94304 5.96879 2.8003 5.89323C2.65757 5.81768 2.55031 5.68854 2.50186 5.53392C2.45484 5.3787 2.47079 5.21111 2.54622 5.06767C2.62166 4.92422 2.75047 4.81654 2.90457 4.76811L7.26834 3.41406C7.42265 3.36611 7.5896 3.38166 7.7325 3.45731C7.87541 3.53295 7.98259 3.66251 8.03049 3.8175C8.07751 3.97271 8.06156 4.1403 7.98613 4.28375C7.91069 4.4272 7.78188 4.53487 7.62778 4.5833Z" fill="#FF514D"/>
</g>
<g opacity="0.28">
<path opacity="0.28" d="M11.1882 6.0205L3.97537 8.25873C3.82138 8.3052 3.65536 8.28877 3.51334 8.21302C3.37133 8.13726 3.26478 8.00828 3.21682 7.85408C3.16946 7.69919 3.18512 7.53175 3.26038 7.38844C3.33564 7.24513 3.46435 7.13763 3.61833 7.08949L10.8312 4.85126C10.9855 4.80364 11.1523 4.81935 11.2951 4.89495C11.4379 4.97055 11.5451 5.09989 11.5933 5.2547C11.6399 5.41023 11.6235 5.57795 11.5476 5.72137C11.4717 5.86479 11.3426 5.9723 11.1882 6.0205Z" fill="#FF514D"/>
</g>
<g opacity="0.28">
<path opacity="0.28" d="M15.2156 7.31118L4.68967 10.5725C4.53552 10.6201 4.36888 10.6043 4.22625 10.5287C4.08362 10.4531 3.97663 10.3238 3.92872 10.1691C3.88165 10.014 3.89743 9.84655 3.97263 9.70313C4.04782 9.55971 4.17635 9.45193 4.33023 9.40325L14.8562 6.14194C15.0103 6.09469 15.1768 6.11058 15.3194 6.18615C15.4619 6.26172 15.5689 6.39085 15.6171 6.54538C15.6645 6.70043 15.6489 6.86803 15.5736 7.01154C15.4984 7.15504 15.3697 7.26277 15.2156 7.31118Z" fill="#FF514D"/>
</g>
<g opacity="0.28">
<path opacity="0.28" d="M15.9284 9.63113L9.80951 11.5311C9.65519 11.5783 9.48856 11.5623 9.34599 11.4865C9.20342 11.4107 9.09649 11.2813 9.04855 11.1265C9.00152 10.9716 9.01734 10.8043 9.09255 10.6611C9.16776 10.5179 9.29627 10.4103 9.45007 10.3619L15.569 8.46189C15.7234 8.41498 15.8901 8.43116 16.0328 8.50691C16.1754 8.58266 16.2826 8.71188 16.3311 8.86654C16.3781 9.02159 16.3621 9.18902 16.2867 9.33227C16.2112 9.47552 16.0824 9.58296 15.9284 9.63113Z" fill="#FF514D"/>
</g>
<g opacity="0.28">
<path opacity="0.28" d="M7.00376 12.4011L5.40371 12.8975C5.2494 12.9451 5.0826 12.9294 4.93978 12.8538C4.79696 12.7782 4.68973 12.6489 4.64156 12.4941C4.59421 12.3389 4.61001 12.1711 4.68549 12.0276C4.76097 11.8841 4.88998 11.7764 5.04427 11.7283L6.64432 11.2318C6.79864 11.1845 6.96529 11.2004 7.10803 11.2759C7.25077 11.3515 7.35803 11.4806 7.40648 11.6353C7.45317 11.7905 7.43707 11.9579 7.36168 12.1013C7.28629 12.2446 7.15768 12.3524 7.00376 12.4011Z" fill="#FF514D"/>
</g>
<g opacity="0.28">
<path opacity="0.28" d="M16.6424 11.9518L6.11645 15.2191C5.96213 15.2664 5.7955 15.2503 5.65293 15.1745C5.51036 15.0987 5.40343 14.9693 5.35549 14.8145C5.30813 14.6596 5.32379 14.4922 5.39905 14.3489C5.47431 14.2056 5.60302 14.0981 5.757 14.0499L16.2829 10.7826C16.4371 10.7353 16.6036 10.7512 16.7461 10.8268C16.8887 10.9023 16.9957 11.0315 17.0439 11.186C17.0913 11.3411 17.0757 11.5087 17.0004 11.6522C16.9252 11.7957 16.7964 11.9034 16.6424 11.9518Z" fill="#FF514D"/>
</g>
<g opacity="0.28">
<path opacity="0.28" d="M13.2932 15.5318L6.82932 17.5381C6.67517 17.5854 6.50867 17.5695 6.36613 17.4939C6.22359 17.4183 6.11656 17.2892 6.06837 17.1347C6.0213 16.9796 6.03708 16.8122 6.11228 16.6688C6.18747 16.5253 6.316 16.4176 6.46988 16.3689L12.9338 14.3626C13.0883 14.3153 13.2551 14.3314 13.3978 14.4072C13.5406 14.483 13.6477 14.6124 13.6959 14.7672C13.7433 14.9223 13.7274 15.0898 13.6519 15.2332C13.5764 15.3765 13.4474 15.4839 13.2932 15.5318Z" fill="#FF514D"/>
</g>
<g opacity="0.28">
<path opacity="0.28" d="M17.3553 14.2705L15.6302 14.8056C15.4757 14.8528 15.3089 14.8368 15.1662 14.761C15.0234 14.6852 14.9162 14.5558 14.868 14.4009C14.821 14.2459 14.837 14.0784 14.9125 13.9352C14.9879 13.7919 15.1167 13.6845 15.2707 13.6363L16.9958 13.1012C17.15 13.0536 17.3166 13.0694 17.4592 13.145C17.6019 13.2206 17.7089 13.3499 17.7568 13.5047C17.8042 13.6597 17.7885 13.8273 17.7133 13.9708C17.6381 14.1143 17.5093 14.2221 17.3553 14.2705Z" fill="#FF514D"/>
</g>
<g opacity="0.28">
<path opacity="0.28" d="M18.0683 16.5923L7.54479 19.8536C7.39032 19.9011 7.22338 19.8853 7.08053 19.8094C6.93768 19.7336 6.83056 19.6039 6.78263 19.4489C6.73532 19.2939 6.75115 19.1263 6.82665 18.983C6.90215 18.8396 7.03114 18.7322 7.18535 18.6843L17.7101 15.417C17.8645 15.3701 18.0312 15.3862 18.1739 15.462C18.3166 15.5377 18.4238 15.667 18.4722 15.8216C18.4964 15.8989 18.5051 15.9801 18.4978 16.0608C18.4906 16.1414 18.4675 16.2198 18.4299 16.2914C18.3924 16.3631 18.3411 16.4265 18.2791 16.4782C18.217 16.5298 18.1454 16.5686 18.0683 16.5923Z" fill="#FF514D"/>
</g>
<path d="M22.58 1.52148L12.22 2.16408C12.0369 2.17501 11.8578 2.2221 11.6929 2.30266C11.528 2.38321 11.3806 2.49565 11.259 2.63354C11.1374 2.77142 11.044 2.93205 10.9843 3.10622C10.9246 3.2804 10.8996 3.4647 10.9108 3.64858L12.0925 22.8879C12.1035 23.0719 12.1506 23.2519 12.231 23.4176C12.3114 23.5833 12.4235 23.7315 12.561 23.8536C12.6985 23.9757 12.8586 24.0693 13.0321 24.1291C13.2057 24.1889 13.3893 24.2137 13.5724 24.2021L26.832 23.3795C27.0148 23.3684 27.1936 23.3212 27.3583 23.2406C27.5229 23.1599 27.6701 23.0474 27.7913 22.9095C27.9126 22.7716 28.0056 22.611 28.065 22.4369C28.1244 22.2628 28.149 22.0787 28.1375 21.895L27.1397 5.56792L22.58 1.52148Z" fill="#FF514D"/>
<path opacity="0.8" d="M22.58 1.52148L12.22 2.16408C12.0369 2.17501 11.8578 2.2221 11.6929 2.30266C11.528 2.38321 11.3806 2.49565 11.259 2.63354C11.1374 2.77142 11.044 2.93205 10.9843 3.10622C10.9246 3.2804 10.8996 3.4647 10.9108 3.64858L12.0925 22.8879C12.1035 23.0719 12.1506 23.2519 12.231 23.4176C12.3114 23.5833 12.4235 23.7315 12.561 23.8536C12.6985 23.9757 12.8586 24.0693 13.0321 24.1291C13.2057 24.1889 13.3893 24.2137 13.5724 24.2021L26.832 23.3795C27.0148 23.3684 27.1936 23.3212 27.3583 23.2406C27.5229 23.1599 27.6701 23.0474 27.7913 22.9095C27.9126 22.7716 28.0056 22.611 28.065 22.4369C28.1244 22.2628 28.149 22.0787 28.1375 21.895L27.1397 5.56792L22.58 1.52148Z" fill="white"/>
<g opacity="0.22">
<path opacity="0.22" d="M23.2063 21.6656L14.5858 22.2007C14.4247 22.21 14.2666 22.1548 14.1459 22.0473C14.0251 21.9398 13.9516 21.7887 13.9414 21.627C13.9322 21.4652 13.9869 21.3064 14.0936 21.1849C14.2003 21.0634 14.3504 20.9892 14.5112 20.9783L23.1318 20.4444C23.2928 20.4348 23.4511 20.4897 23.5721 20.5969C23.693 20.7042 23.7668 20.8552 23.7773 21.017C23.7869 21.179 23.7322 21.3382 23.6251 21.4598C23.5181 21.5813 23.3675 21.6554 23.2063 21.6656Z" fill="#FF514D"/>
</g>
<g opacity="0.22">
<path opacity="0.22" d="M18.1042 4.95904L13.5445 5.23927C13.3835 5.24855 13.2254 5.19362 13.1045 5.0864C12.9837 4.97919 12.9098 4.82838 12.8989 4.66673C12.8897 4.5048 12.9446 4.34576 13.0515 4.22426C13.1585 4.10277 13.3089 4.02867 13.47 4.0181L18.0297 3.73545C18.1906 3.72586 18.3488 3.78072 18.4695 3.88803C18.5903 3.99533 18.6638 4.14633 18.674 4.30799C18.6842 4.47021 18.63 4.62988 18.5231 4.75194C18.4163 4.87401 18.2656 4.94849 18.1042 4.95904Z" fill="#FF514D"/>
</g>
<g opacity="0.22">
<path opacity="0.22" d="M21.2275 7.19694L13.6937 7.66318C13.5326 7.67311 13.3741 7.61839 13.2531 7.51106C13.1321 7.40372 13.0584 7.25252 13.0482 7.09064C13.0386 6.92863 13.0934 6.76941 13.2004 6.64784C13.3074 6.52628 13.458 6.45226 13.6192 6.442L21.1518 5.97576C21.3129 5.96584 21.4714 6.02055 21.5924 6.12788C21.7134 6.23522 21.7871 6.38642 21.7974 6.5483C21.8069 6.71012 21.7523 6.86916 21.6456 6.99069C21.5388 7.11223 21.3885 7.18637 21.2275 7.19694Z" fill="#FF514D"/>
</g>
<g opacity="0.22">
<path opacity="0.22" d="M24.8374 9.40698L13.8426 10.0882C13.6811 10.0982 13.5222 10.0434 13.4007 9.93582C13.2793 9.82829 13.2052 9.67679 13.1947 9.51448C13.1851 9.35279 13.2397 9.19388 13.3465 9.07254C13.4533 8.9512 13.6036 8.87731 13.7645 8.86705L24.7604 8.1846C24.9215 8.17534 25.0796 8.23048 25.2004 8.33797C25.3211 8.44547 25.3946 8.59659 25.4048 8.75834C25.4144 8.91977 25.3601 9.07847 25.2539 9.19994C25.1476 9.3214 24.9979 9.39581 24.8374 9.40698Z" fill="#FF514D"/>
</g>
<g opacity="0.22">
<path opacity="0.22" d="M24.9865 11.8297L18.5947 12.2259C18.4336 12.2355 18.2754 12.1807 18.1544 12.0734C18.0334 11.9662 17.9597 11.8152 17.9491 11.6534C17.9393 11.4915 17.9937 11.3323 18.1005 11.2107C18.2074 11.0891 18.3578 11.015 18.519 11.0048L24.9107 10.6086C25.0719 10.5986 25.2303 10.6534 25.3513 10.7607C25.4724 10.868 25.5461 11.0192 25.5563 11.1811C25.5658 11.3429 25.5113 11.502 25.4045 11.6235C25.2977 11.745 25.1474 11.8192 24.9865 11.8297Z" fill="#FF514D"/>
</g>
<g opacity="0.22">
<path opacity="0.22" d="M15.6628 12.4077L13.9906 12.5116C13.8297 12.5212 13.6716 12.4663 13.5508 12.359C13.43 12.2517 13.3565 12.1007 13.3463 11.9391C13.3367 11.7773 13.3913 11.6182 13.4981 11.4967C13.6048 11.3751 13.7551 11.301 13.9161 11.2904L15.5883 11.1866C15.7494 11.1773 15.9077 11.2324 16.0286 11.3399C16.1496 11.4473 16.2233 11.5984 16.2338 11.7603C16.243 11.9221 16.1882 12.081 16.0812 12.2023C15.9742 12.3236 15.8238 12.3975 15.6628 12.4077Z" fill="#FF514D"/>
</g>
<g opacity="0.22">
<path opacity="0.22" d="M25.1354 14.2535L14.1395 14.9347C13.9784 14.9443 13.8201 14.8895 13.6992 14.7823C13.5782 14.675 13.5044 14.524 13.4939 14.3622C13.4847 14.2003 13.5395 14.0412 13.6465 13.9197C13.7534 13.7982 13.9038 13.7241 14.0649 13.7136L25.0597 13.0323C25.2209 13.0227 25.3794 13.0777 25.5004 13.1853C25.6214 13.2928 25.695 13.4441 25.7052 13.6061C25.7148 13.7678 25.6602 13.9267 25.5534 14.048C25.4466 14.1694 25.2963 14.2432 25.1354 14.2535Z" fill="#FF514D"/>
</g>
<g opacity="0.22">
<path opacity="0.22" d="M21.041 16.939L14.2886 17.3581C14.1275 17.3674 13.9692 17.3123 13.8483 17.2048C13.7274 17.0973 13.6536 16.9462 13.6431 16.7844C13.6339 16.6226 13.6887 16.4637 13.7957 16.3423C13.9027 16.221 14.0531 16.1472 14.2141 16.1369L20.9665 15.7178C21.1276 15.7085 21.2857 15.7637 21.4064 15.8712C21.5272 15.9787 21.6006 16.1298 21.6109 16.2915C21.6207 16.4533 21.5662 16.6124 21.4594 16.7338C21.3525 16.8552 21.202 16.929 21.041 16.939Z" fill="#FF514D"/>
</g>
<g opacity="0.22">
<path opacity="0.22" d="M25.2834 16.6774L23.4802 16.7885C23.3193 16.7981 23.1611 16.7433 23.0404 16.636C22.9196 16.5287 22.8461 16.3776 22.8359 16.216C22.826 16.0541 22.8804 15.8949 22.9873 15.7733C23.0941 15.6517 23.2446 15.5776 23.4057 15.5674L25.2089 15.4562C25.37 15.4463 25.5285 15.501 25.6495 15.6084C25.7705 15.7157 25.8442 15.8669 25.8544 16.0288C25.8636 16.1907 25.8088 16.3497 25.7019 16.4712C25.5949 16.5927 25.4445 16.6668 25.2834 16.6774Z" fill="#FF514D"/>
</g>
<g opacity="0.22">
<path opacity="0.22" d="M25.4326 19.1012L14.4379 19.7824C14.2768 19.792 14.1185 19.7372 13.9976 19.6299C13.8766 19.5226 13.8028 19.3716 13.7923 19.2099C13.7828 19.0481 13.8373 18.889 13.9441 18.7675C14.0509 18.6459 14.2012 18.5718 14.3621 18.5612L25.3581 17.88C25.519 17.8704 25.6772 17.9253 25.798 18.0326C25.9187 18.1399 25.9923 18.2909 26.0025 18.4525C26.0123 18.6144 25.9579 18.7736 25.8511 18.8952C25.7442 19.0169 25.5938 19.0909 25.4326 19.1012Z" fill="#FF514D"/>
</g>
<path opacity="0.22" d="M22.5798 1.52148L22.759 4.43492C22.7701 4.61862 22.8172 4.7983 22.8975 4.9637C22.9778 5.12911 23.0898 5.277 23.227 5.39893C23.3642 5.52085 23.5239 5.61443 23.6971 5.6743C23.8703 5.73418 24.0536 5.75919 24.2364 5.7479L27.1395 5.56792L22.5798 1.52148Z" fill="#FF514D"/>
<path opacity="0.5" d="M19.1874 8.789C19.1856 8.64939 19.156 8.51155 19.1002 8.38365C19.0445 8.25574 18.9638 8.14035 18.863 8.0443C18.7621 7.94825 18.6431 7.87349 18.513 7.82443C18.3829 7.77537 18.2443 7.75301 18.1055 7.75867H8.47635C7.74665 7.75867 7.03379 8.35416 6.89674 9.08735L3.09678 28.6492C2.95493 29.3824 3.43098 29.9778 4.16067 29.9778H34.695C35.4247 29.9778 36.1316 29.3836 36.2746 28.6492L39.4086 12.5238C39.5504 11.7894 39.0744 11.1951 38.3447 11.1951H21.7299C20.2874 11.1951 19.2367 10.1974 19.1874 8.789Z" fill="#FF514D"/>
</svg>
