<svg width="42" height="38" viewBox="0 0 42 38" fill="none" xmlns="http://www.w3.org/2000/svg">
<path d="M15.5663 10.8726C15.4991 10.5797 15.3351 10.3183 15.1011 10.1312C14.867 9.94407 14.5767 9.8422 14.2776 9.84222H4.66049C4.30978 9.84222 3.97343 9.98221 3.72544 10.2314C3.47745 10.4806 3.33813 10.8185 3.33813 11.1709V32.6496C3.33813 33.002 3.47745 33.34 3.72544 33.5892C3.97343 33.8383 4.30978 33.9783 4.66049 33.9783H35.1948C35.5455 33.9783 35.8819 33.8383 36.1299 33.5892C36.3779 33.34 36.5172 33.002 36.5172 32.6496V14.6074C36.5172 14.255 36.3779 13.917 36.1299 13.6678C35.8819 13.4187 35.5455 13.2787 35.1948 13.2787H18.5752C17.8768 13.2788 17.1989 13.0409 16.6524 12.6039C16.1058 12.1668 15.723 11.5565 15.5663 10.8726Z" fill="#FF514D"/>
<path opacity="0.6" d="M15.5663 10.8726C15.4991 10.5797 15.3351 10.3183 15.1011 10.1312C14.867 9.94407 14.5767 9.8422 14.2776 9.84222H4.66049C4.30978 9.84222 3.97343 9.98221 3.72544 10.2314C3.47745 10.4806 3.33813 10.8185 3.33813 11.1709V32.6496C3.33813 33.002 3.47745 33.34 3.72544 33.5892C3.97343 33.8383 4.30978 33.9783 4.66049 33.9783H35.1948C35.5455 33.9783 35.8819 33.8383 36.1299 33.5892C36.3779 33.34 36.5172 33.002 36.5172 32.6496V14.6074C36.5172 14.255 36.3779 13.917 36.1299 13.6678C35.8819 13.4187 35.5455 13.2787 35.1948 13.2787H18.5752C17.8768 13.2788 17.1989 13.0409 16.6524 12.6039C16.1058 12.1668 15.723 11.5565 15.5663 10.8726Z" fill="black"/>
<path opacity="0.22" d="M12.1714 4.18326L13.0285 6.97228C13.1379 7.32724 13.3831 7.62406 13.7101 7.79754C14.0372 7.97102 14.4194 8.00698 14.7728 7.89753L17.5474 7.0363L12.1714 4.18326Z" fill="#FF514D"/>
<path d="M12.1715 4.18326L2.25389 7.26217C2.07882 7.31622 1.91606 7.40441 1.77494 7.52172C1.63382 7.63902 1.5171 7.78314 1.43146 7.94581C1.34583 8.10848 1.29295 8.28652 1.27586 8.46975C1.25876 8.65297 1.27779 8.83779 1.33185 9.01362L6.99393 27.4315C7.04797 27.6074 7.13596 27.7708 7.25287 27.9125C7.36979 28.0542 7.51334 28.1713 7.67532 28.2572C7.8373 28.3432 8.01454 28.3962 8.19692 28.4133C8.3793 28.4303 8.56324 28.4112 8.73823 28.3568L21.4316 24.4167C21.6066 24.3625 21.7692 24.2742 21.9102 24.1568C22.0512 24.0395 22.1678 23.8953 22.2533 23.7327C22.3388 23.57 22.3916 23.392 22.4086 23.2089C22.4256 23.0257 22.4065 22.841 22.3525 22.6652L17.5439 7.0363L12.1715 4.18326Z" fill="#FF514D"/>
<path opacity="0.8" d="M12.1715 4.18326L2.25389 7.26217C2.07882 7.31622 1.91606 7.40441 1.77494 7.52172C1.63382 7.63902 1.5171 7.78314 1.43146 7.94581C1.34583 8.10848 1.29295 8.28652 1.27586 8.46975C1.25876 8.65297 1.27779 8.83779 1.33185 9.01362L6.99393 27.4315C7.04797 27.6074 7.13596 27.7708 7.25287 27.9125C7.36979 28.0542 7.51334 28.1713 7.67532 28.2572C7.8373 28.3432 8.01454 28.3962 8.19692 28.4133C8.3793 28.4303 8.56324 28.4112 8.73823 28.3568L21.4316 24.4167C21.6066 24.3625 21.7692 24.2742 21.9102 24.1568C22.0512 24.0395 22.1678 23.8953 22.2533 23.7327C22.3388 23.57 22.3916 23.392 22.4086 23.2089C22.4256 23.0257 22.4065 22.841 22.3525 22.6652L17.5439 7.0363L12.1715 4.18326Z" fill="white"/>
<g opacity="0.28">
<path opacity="0.28" d="M17.5079 23.6122L9.25641 26.1729C9.10209 26.2205 8.93529 26.2048 8.79247 26.1292C8.64965 26.0536 8.54243 25.9243 8.49425 25.7695C8.44727 25.6144 8.46325 25.447 8.5387 25.3038C8.61415 25.1605 8.74295 25.0531 8.89696 25.0049L17.1485 22.443C17.3029 22.3954 17.4699 22.4113 17.6127 22.4871C17.7556 22.5629 17.8627 22.6926 17.9106 22.8476C17.9576 23.0026 17.9416 23.1701 17.8662 23.3133C17.7907 23.4566 17.6619 23.564 17.5079 23.6122Z" fill="#FF514D"/>
</g>
<g opacity="0.28">
<path opacity="0.28" d="M8.62778 8.58361L4.26401 9.93766C4.1097 9.98495 3.94304 9.96909 3.8003 9.89354C3.65757 9.81798 3.55031 9.68884 3.50186 9.53422C3.45484 9.37901 3.47079 9.21142 3.54622 9.06797C3.62166 8.92452 3.75047 8.81685 3.90457 8.76842L8.26834 7.41437C8.42265 7.36641 8.5896 7.38197 8.7325 7.45761C8.87541 7.53326 8.98259 7.66281 9.03049 7.81781C9.07751 7.97302 9.06156 8.14061 8.98613 8.28406C8.91069 8.4275 8.78188 8.53518 8.62778 8.58361Z" fill="#FF514D"/>
</g>
<g opacity="0.28">
<path opacity="0.28" d="M12.1882 10.0198L4.97537 12.258C4.82138 12.3045 4.65536 12.2881 4.51334 12.2123C4.37133 12.1366 4.26478 12.0076 4.21682 11.8534C4.16946 11.6985 4.18512 11.5311 4.26038 11.3877C4.33564 11.2444 4.46435 11.1369 4.61833 11.0888L11.8312 8.85056C11.9855 8.80294 12.1523 8.81864 12.2951 8.89424C12.4379 8.96984 12.5451 9.09919 12.5933 9.254C12.6399 9.40953 12.6235 9.57725 12.5476 9.72067C12.4717 9.86409 12.3426 9.9716 12.1882 10.0198Z" fill="#FF514D"/>
</g>
<g opacity="0.28">
<path opacity="0.28" d="M16.2156 11.311L5.68967 14.5723C5.53552 14.6199 5.36888 14.6042 5.22625 14.5286C5.08362 14.453 4.97663 14.3236 4.92872 14.1689C4.88165 14.0139 4.89743 13.8464 4.97263 13.703C5.04782 13.5596 5.17635 13.4518 5.33023 13.4031L15.8562 10.1418C16.0103 10.0945 16.1768 10.1104 16.3194 10.186C16.4619 10.2616 16.5689 10.3907 16.6171 10.5452C16.6645 10.7003 16.6489 10.8679 16.5736 11.0114C16.4984 11.1549 16.3697 11.2626 16.2156 11.311Z" fill="#FF514D"/>
</g>
<g opacity="0.28">
<path opacity="0.28" d="M16.9284 13.6302L10.8095 15.5302C10.6552 15.5774 10.4886 15.5613 10.346 15.4855C10.2034 15.4097 10.0965 15.2803 10.0486 15.1256C10.0015 14.9707 10.0173 14.8034 10.0925 14.6601C10.1678 14.5169 10.2963 14.4094 10.4501 14.361L16.569 12.4609C16.7234 12.414 16.8901 12.4302 17.0328 12.506C17.1754 12.5817 17.2826 12.7109 17.3311 12.8656C17.3781 13.0206 17.3621 13.1881 17.2867 13.3313C17.2112 13.4746 17.0824 13.582 16.9284 13.6302Z" fill="#FF514D"/>
</g>
<g opacity="0.28">
<path opacity="0.28" d="M8.00376 16.4011L6.40371 16.8975C6.2494 16.9451 6.0826 16.9294 5.93978 16.8538C5.79696 16.7782 5.68973 16.6489 5.64156 16.4941C5.59421 16.3389 5.61001 16.1711 5.68549 16.0276C5.76097 15.8841 5.88998 15.7764 6.04427 15.7283L7.64432 15.2318C7.79864 15.1845 7.96529 15.2004 8.10803 15.2759C8.25077 15.3515 8.35803 15.4806 8.40648 15.6353C8.45317 15.7905 8.43707 15.9579 8.36168 16.1013C8.28629 16.2446 8.15768 16.3524 8.00376 16.4011Z" fill="#FF514D"/>
</g>
<g opacity="0.28">
<path opacity="0.28" d="M17.6424 15.9506L7.11645 19.2179C6.96213 19.2651 6.7955 19.249 6.65293 19.1732C6.51036 19.0974 6.40343 18.968 6.35549 18.8133C6.30813 18.6584 6.32379 18.4909 6.39905 18.3476C6.47431 18.2043 6.60302 18.0968 6.757 18.0487L17.2829 14.7813C17.4371 14.7341 17.6036 14.75 17.7461 14.8255C17.8887 14.9011 17.9957 15.0302 18.0439 15.1848C18.0913 15.3398 18.0757 15.5074 18.0004 15.6509C17.9252 15.7944 17.7964 15.9021 17.6424 15.9506Z" fill="#FF514D"/>
</g>
<g opacity="0.28">
<path opacity="0.28" d="M14.2932 19.5307L7.82932 21.5371C7.67517 21.5843 7.50867 21.5684 7.36613 21.4928C7.22359 21.4173 7.11656 21.2882 7.06837 21.1336C7.0213 20.9786 7.03708 20.8111 7.11228 20.6677C7.18747 20.5243 7.316 20.4165 7.46988 20.3678L13.9338 18.3615C14.0883 18.3143 14.2551 18.3303 14.3978 18.4061C14.5406 18.4819 14.6477 18.6113 14.6959 18.7662C14.7433 18.9212 14.7274 19.0888 14.6519 19.2321C14.5764 19.3755 14.4474 19.4829 14.2932 19.5307Z" fill="#FF514D"/>
</g>
<g opacity="0.28">
<path opacity="0.28" d="M18.3553 18.2709L16.6302 18.806C16.4757 18.8532 16.3089 18.8372 16.1662 18.7614C16.0234 18.6856 15.9162 18.5562 15.868 18.4013C15.821 18.2463 15.837 18.0789 15.9125 17.9356C15.9879 17.7924 16.1167 17.6849 16.2707 17.6367L17.9958 17.1017C18.15 17.0541 18.3166 17.0698 18.4592 17.1454C18.6019 17.221 18.7089 17.3504 18.7568 17.5051C18.8042 17.6601 18.7885 17.8277 18.7133 17.9712C18.6381 18.1147 18.5093 18.2225 18.3553 18.2709Z" fill="#FF514D"/>
</g>
<g opacity="0.28">
<path opacity="0.28" d="M19.0683 20.5925L8.54479 23.8538C8.39032 23.9013 8.22338 23.8855 8.08053 23.8096C7.93768 23.7338 7.83056 23.6042 7.78263 23.4491C7.73532 23.2941 7.75115 23.1265 7.82665 22.9832C7.90215 22.8398 8.03114 22.7324 8.18535 22.6845L18.7101 19.4172C18.8645 19.3703 19.0312 19.3864 19.1739 19.4622C19.3166 19.538 19.4238 19.6672 19.4722 19.8218C19.4964 19.8991 19.5051 19.9803 19.4978 20.061C19.4906 20.1416 19.4675 20.22 19.4299 20.2916C19.3924 20.3633 19.3411 20.4267 19.2791 20.4784C19.217 20.53 19.1454 20.5688 19.0683 20.5925Z" fill="#FF514D"/>
</g>
<path d="M23.58 5.52161L13.22 6.16421C13.0369 6.17514 12.8578 6.22223 12.6929 6.30278C12.528 6.38334 12.3806 6.49577 12.259 6.63366C12.1374 6.77154 12.044 6.93217 11.9843 7.10635C11.9246 7.28052 11.8996 7.46482 11.9108 7.6487L13.0925 26.888C13.1035 27.072 13.1506 27.252 13.231 27.4178C13.3114 27.5835 13.4235 27.7316 13.561 27.8537C13.6985 27.9758 13.8586 28.0694 14.0321 28.1292C14.2057 28.189 14.3893 28.2138 14.5724 28.2022L27.832 27.3796C28.0148 27.3685 28.1936 27.3213 28.3583 27.2407C28.5229 27.16 28.6701 27.0475 28.7913 26.9096C28.9126 26.7717 29.0056 26.6111 29.065 26.437C29.1244 26.2629 29.149 26.0788 29.1375 25.8951L28.1397 9.56804L23.58 5.52161Z" fill="#FF514D"/>
<path opacity="0.8" d="M23.58 5.52161L13.22 6.16421C13.0369 6.17514 12.8578 6.22223 12.6929 6.30278C12.528 6.38334 12.3806 6.49577 12.259 6.63366C12.1374 6.77154 12.044 6.93217 11.9843 7.10635C11.9246 7.28052 11.8996 7.46482 11.9108 7.6487L13.0925 26.888C13.1035 27.072 13.1506 27.252 13.231 27.4178C13.3114 27.5835 13.4235 27.7316 13.561 27.8537C13.6985 27.9758 13.8586 28.0694 14.0321 28.1292C14.2057 28.189 14.3893 28.2138 14.5724 28.2022L27.832 27.3796C28.0148 27.3685 28.1936 27.3213 28.3583 27.2407C28.5229 27.16 28.6701 27.0475 28.7913 26.9096C28.9126 26.7717 29.0056 26.6111 29.065 26.437C29.1244 26.2629 29.149 26.0788 29.1375 25.8951L28.1397 9.56804L23.58 5.52161Z" fill="white"/>
<g opacity="0.22">
<path opacity="0.22" d="M24.2063 25.6656L15.5858 26.2007C15.4247 26.21 15.2666 26.1548 15.1459 26.0473C15.0251 25.9398 14.9516 25.7887 14.9414 25.627C14.9322 25.4652 14.9869 25.3064 15.0936 25.1849C15.2003 25.0634 15.3504 24.9892 15.5112 24.9783L24.1318 24.4444C24.2928 24.4348 24.4511 24.4897 24.5721 24.5969C24.693 24.7042 24.7668 24.8552 24.7773 25.017C24.7869 25.179 24.7322 25.3382 24.6251 25.4598C24.5181 25.5813 24.3675 25.6554 24.2063 25.6656Z" fill="#FF514D"/>
</g>
<g opacity="0.22">
<path opacity="0.22" d="M19.1042 8.95807L14.5445 9.2383C14.3835 9.24758 14.2254 9.19264 14.1045 9.08543C13.9837 8.97822 13.9098 8.8274 13.8989 8.66576C13.8897 8.50382 13.9446 8.34478 14.0515 8.22329C14.1585 8.10179 14.3089 8.02769 14.47 8.01712L19.0297 7.73447C19.1906 7.72488 19.3488 7.77974 19.4695 7.88705C19.5903 7.99435 19.6638 8.14536 19.674 8.30701C19.6842 8.46924 19.63 8.6289 19.5231 8.75097C19.4163 8.87303 19.2656 8.94751 19.1042 8.95807Z" fill="#FF514D"/>
</g>
<g opacity="0.22">
<path opacity="0.22" d="M22.2275 11.1975L14.6937 11.6637C14.5326 11.6737 14.3741 11.6189 14.2531 11.5116C14.1321 11.4043 14.0584 11.2531 14.0482 11.0912C14.0386 10.9292 14.0934 10.77 14.2004 10.6484C14.3074 10.5268 14.458 10.4528 14.6192 10.4426L22.1518 9.97631C22.3129 9.96638 22.4714 10.0211 22.5924 10.1284C22.7134 10.2358 22.7871 10.387 22.7974 10.5488C22.8069 10.7107 22.7523 10.8697 22.6456 10.9912C22.5388 11.1128 22.3885 11.1869 22.2275 11.1975Z" fill="#FF514D"/>
</g>
<g opacity="0.22">
<path opacity="0.22" d="M25.8374 13.4067L14.8426 14.088C14.6811 14.0979 14.5222 14.0431 14.4007 13.9356C14.2793 13.828 14.2052 13.6765 14.1947 13.5142C14.1851 13.3525 14.2397 13.1936 14.3465 13.0723C14.4533 12.9509 14.6036 12.877 14.7645 12.8668L25.7604 12.1843C25.9215 12.1751 26.0796 12.2302 26.2004 12.3377C26.3211 12.4452 26.3946 12.5963 26.4048 12.7581C26.4144 12.9195 26.3601 13.0782 26.2539 13.1997C26.1476 13.3211 25.9979 13.3955 25.8374 13.4067Z" fill="#FF514D"/>
</g>
<g opacity="0.22">
<path opacity="0.22" d="M25.9865 15.8297L19.5947 16.2259C19.4336 16.2355 19.2754 16.1807 19.1544 16.0734C19.0334 15.9662 18.9597 15.8152 18.9491 15.6534C18.9393 15.4915 18.9937 15.3323 19.1005 15.2107C19.2074 15.0891 19.3578 15.015 19.519 15.0048L25.9107 14.6086C26.0719 14.5986 26.2303 14.6534 26.3513 14.7607C26.4724 14.868 26.5461 15.0192 26.5563 15.1811C26.5658 15.3429 26.5113 15.502 26.4045 15.6235C26.2977 15.745 26.1474 15.8192 25.9865 15.8297Z" fill="#FF514D"/>
</g>
<g opacity="0.22">
<path opacity="0.22" d="M16.6628 16.4071L14.9906 16.511C14.8297 16.5206 14.6716 16.4657 14.5508 16.3584C14.43 16.2511 14.3565 16.1001 14.3463 15.9385C14.3367 15.7766 14.3913 15.6176 14.4981 15.4961C14.6048 15.3745 14.7551 15.3004 14.9161 15.2898L16.5883 15.1859C16.7494 15.1767 16.9077 15.2318 17.0286 15.3392C17.1496 15.4467 17.2233 15.5978 17.2338 15.7597C17.243 15.9215 17.1882 16.0804 17.0812 16.2017C16.9742 16.323 16.8238 16.3969 16.6628 16.4071Z" fill="#FF514D"/>
</g>
<g opacity="0.22">
<path opacity="0.22" d="M26.1354 18.2528L15.1395 18.934C14.9784 18.9436 14.8201 18.8888 14.6992 18.7815C14.5782 18.6742 14.5044 18.5232 14.4939 18.3615C14.4847 18.1995 14.5395 18.0405 14.6465 17.919C14.7534 17.7975 14.9038 17.7234 15.0649 17.7128L26.0597 17.0316C26.2209 17.022 26.3794 17.077 26.5004 17.1845C26.6214 17.292 26.695 17.4434 26.7052 17.6053C26.7148 17.767 26.6602 17.9259 26.5534 18.0473C26.4466 18.1686 26.2963 18.2425 26.1354 18.2528Z" fill="#FF514D"/>
</g>
<g opacity="0.22">
<path opacity="0.22" d="M22.041 20.9391L15.2886 21.3583C15.1275 21.3675 14.9692 21.3124 14.8483 21.205C14.7274 21.0975 14.6536 20.9464 14.6431 20.7845C14.6339 20.6227 14.6887 20.4638 14.7957 20.3425C14.9027 20.2212 15.0531 20.1474 15.2141 20.1371L21.9665 19.718C22.1276 19.7087 22.2857 19.7638 22.4064 19.8713C22.5272 19.9788 22.6006 20.1299 22.6109 20.2917C22.6207 20.4535 22.5662 20.6126 22.4594 20.734C22.3525 20.8554 22.202 20.9292 22.041 20.9391Z" fill="#FF514D"/>
</g>
<g opacity="0.22">
<path opacity="0.22" d="M26.2834 20.677L24.4802 20.7881C24.3193 20.7977 24.1611 20.7429 24.0404 20.6356C23.9196 20.5283 23.8461 20.3773 23.8359 20.2156C23.826 20.0537 23.8804 19.8945 23.9873 19.7729C24.0941 19.6513 24.2446 19.5772 24.4057 19.567L26.2089 19.4558C26.37 19.4459 26.5285 19.5006 26.6495 19.608C26.7705 19.7153 26.8442 19.8665 26.8544 20.0284C26.8636 20.1903 26.8088 20.3493 26.7019 20.4708C26.5949 20.5923 26.4445 20.6664 26.2834 20.677Z" fill="#FF514D"/>
</g>
<g opacity="0.22">
<path opacity="0.22" d="M26.4326 23.1L15.4379 23.7813C15.2768 23.7909 15.1185 23.7361 14.9976 23.6288C14.8766 23.5215 14.8028 23.3705 14.7923 23.2087C14.7828 23.0469 14.8373 22.8879 14.9441 22.7663C15.0509 22.6448 15.2012 22.5707 15.3621 22.5601L26.3581 21.8789C26.519 21.8693 26.6772 21.9241 26.798 22.0314C26.9187 22.1387 26.9923 22.2897 27.0025 22.4514C27.0123 22.6133 26.9579 22.7725 26.8511 22.8941C26.7442 23.0157 26.5938 23.0898 26.4326 23.1Z" fill="#FF514D"/>
</g>
<path opacity="0.22" d="M23.5798 5.52161L23.759 8.43504C23.7701 8.61874 23.8172 8.79842 23.8975 8.96382C23.9778 9.12923 24.0898 9.27712 24.227 9.39905C24.3642 9.52097 24.5239 9.61455 24.6971 9.67443C24.8703 9.7343 25.0536 9.75931 25.2364 9.74802L28.1395 9.56805L23.5798 5.52161Z" fill="#FF514D"/>
<path opacity="0.5" d="M20.1874 12.7895C20.1856 12.6499 20.156 12.512 20.1002 12.3841C20.0445 12.2562 19.9638 12.1408 19.863 12.0448C19.7621 11.9487 19.6431 11.874 19.513 11.8249C19.3829 11.7759 19.2443 11.7535 19.1055 11.7592H9.47635C8.74665 11.7592 8.03379 12.3547 7.89674 13.0878L4.09678 32.6497C3.95493 33.3828 4.43098 33.9783 5.16067 33.9783H35.695C36.4247 33.9783 37.1316 33.3841 37.2746 32.6497L40.4086 16.5243C40.5504 15.7899 40.0744 15.1956 39.3447 15.1956H22.7299C21.2874 15.1956 20.2367 14.1979 20.1874 12.7895Z" fill="#FF514D"/>
</svg>
