<svg width="47" height="40" viewBox="0 0 47 40" fill="none" xmlns="http://www.w3.org/2000/svg">
<path d="M0.5 6C0.5 2.96243 2.96243 0.5 6 0.5H46.5V39.5H6C2.96243 39.5 0.5 37.0376 0.5 34V6Z" fill="#DC241F"/>
<path d="M9.09863 25V13.6475H10.688V20.9351L13.5957 18.0566H15.5586L12.4092 21.1182L15.8589 25H13.8081L10.688 21.4185V25H9.09863ZM15.7051 14.2773H17.4263L19.4551 19.6899C19.5869 20.0464 19.6968 20.3589 19.7847 20.6274C19.8774 20.896 19.958 21.1475 20.0264 21.3818C20.1973 20.8154 20.3755 20.2612 20.561 19.7192C20.5854 19.6509 20.6025 19.6045 20.6123 19.5801L22.7656 13.8525L25.0361 19.6899C25.1436 19.9731 25.2437 20.2563 25.3364 20.5396C25.4341 20.8228 25.5244 21.1084 25.6074 21.3965C25.6562 21.1768 25.7222 20.9351 25.8052 20.6714C25.8882 20.4077 25.9956 20.0952 26.1274 19.7339L28.1416 14.2773H29.8774L25.7246 25.4175L23.2783 19.3018C23.1709 19.0283 23.0732 18.7671 22.9854 18.5181C22.8975 18.2642 22.8193 18.0249 22.751 17.8003C22.668 18.0884 22.585 18.3594 22.502 18.6133C22.4189 18.8623 22.3335 19.1016 22.2456 19.3311L19.8433 25.4175L15.7051 14.2773ZM30.9395 25V13.6475H32.4336V19.1919C32.751 18.7134 33.1245 18.3643 33.5542 18.1445C33.9839 17.9248 34.5063 17.8149 35.1216 17.8149C35.6392 17.8149 36.0786 17.8979 36.4399 18.064C36.8062 18.2251 37.0918 18.4668 37.2969 18.7891C37.4189 18.9795 37.5068 19.2017 37.5605 19.4556C37.6143 19.7095 37.6411 20.1538 37.6411 20.7886V25H36.0371V21.4331C36.0371 20.52 35.9248 19.9146 35.7002 19.6167C35.4805 19.314 35.0874 19.1626 34.521 19.1626C34.1499 19.1626 33.8179 19.231 33.5249 19.3677C33.2368 19.5044 33.0098 19.6973 32.8438 19.9463C32.7266 20.1123 32.6436 20.3271 32.5947 20.5908C32.5508 20.8496 32.5288 21.2646 32.5288 21.8359V25H30.9395Z" fill="white"/>
<path d="M0.5 6C0.5 2.96243 2.96243 0.5 6 0.5H46.5V39.5H6C2.96243 39.5 0.5 37.0376 0.5 34V6Z" stroke="#DC241F"/>
</svg>
