<svg width="34" height="40" viewBox="0 0 34 40" fill="none" xmlns="http://www.w3.org/2000/svg">
<path d="M0.5 6C0.5 2.96243 2.96243 0.5 6 0.5H33.5V39.5H6C2.96243 39.5 0.5 37.0376 0.5 34V6Z" fill="#DC241F"/>
<path d="M10.9736 18.8477H11.2886C12.2114 18.8477 12.8242 18.7402 13.127 18.5254C13.4297 18.3105 13.5811 17.9297 13.5811 17.3828C13.5811 16.792 13.4175 16.377 13.0903 16.1377C12.7681 15.8936 12.1675 15.7715 11.2886 15.7715H10.9736V18.8477ZM10.8638 20.2026V25H9.23047V14.2773H11.6621C12.375 14.2773 12.9268 14.3237 13.3174 14.4165C13.7129 14.5093 14.0498 14.6631 14.3281 14.8779C14.6602 15.1367 14.9165 15.4712 15.0972 15.8813C15.2778 16.2915 15.3682 16.7407 15.3682 17.229C15.3682 18.0884 15.1606 18.7622 14.7456 19.2505C14.3306 19.7339 13.7178 20.0244 12.9072 20.1221L16.5986 25H14.6284L11.0615 20.2026H10.8638ZM19.0449 21.5063C19.0449 22.2241 19.2231 22.7979 19.5796 23.2275C19.9409 23.6572 20.4146 23.8721 21.0005 23.8721C21.6011 23.8721 22.0649 23.6719 22.3921 23.2715C22.7241 22.8711 22.8901 22.3022 22.8901 21.5649C22.8901 20.8325 22.7168 20.2612 22.3701 19.8511C22.0283 19.436 21.5571 19.2285 20.9565 19.2285C20.356 19.2285 19.8872 19.4287 19.5503 19.8291C19.2134 20.2295 19.0449 20.7886 19.0449 21.5063ZM17.5068 28.2666V18.0566H19.0962V19.1919C19.2817 18.7524 19.5771 18.4131 19.9824 18.1738C20.3926 17.9346 20.8809 17.8149 21.4473 17.8149C22.3701 17.8149 23.1172 18.1567 23.6885 18.8403C24.2646 19.519 24.5527 20.4126 24.5527 21.521C24.5527 22.688 24.2695 23.6084 23.7031 24.2822C23.1416 24.9512 22.3701 25.2856 21.3887 25.2856C20.9004 25.2856 20.4658 25.188 20.085 24.9927C19.709 24.7974 19.3794 24.4995 19.0962 24.0991V28.2666H17.5068Z" fill="white"/>
<path d="M0.5 6C0.5 2.96243 2.96243 0.5 6 0.5H33.5V39.5H6C2.96243 39.5 0.5 37.0376 0.5 34V6Z" stroke="#DC241F"/>
</svg>
