<svg width="8" height="14" viewBox="0 0 8 14" fill="none" xmlns="http://www.w3.org/2000/svg">
<path d="M6.90938 7.075C6.87474 7.03983 6.83351 7.01185 6.78804 6.99266C6.74257 6.97346 6.69375 6.96343 6.6444 6.96314C6.59504 6.96285 6.54612 6.9723 6.50042 6.99096C6.45473 7.00962 6.41317 7.03712 6.37813 7.07187L3.06563 10.3594L1.62812 8.90937C1.59349 8.87421 1.55226 8.84623 1.50679 8.82703C1.46132 8.80783 1.4125 8.7978 1.36315 8.79751C1.31379 8.79722 1.26487 8.80668 1.21917 8.82534C1.17348 8.844 1.13192 8.87149 1.09687 8.90625L0.209375 9.7875C0.174209 9.82213 0.146226 9.86337 0.127031 9.90884C0.107835 9.95431 0.0978045 10.0031 0.0975142 10.0525C0.0972238 10.1018 0.106679 10.1508 0.125339 10.1965C0.143998 10.2421 0.171494 10.2837 0.20625 10.3187L2.7875 12.9219C2.82213 12.957 2.86337 12.985 2.90884 13.0042C2.95431 13.0234 3.00312 13.0334 3.05248 13.0337C3.10183 13.034 3.15076 13.0246 3.19645 13.0059C3.24215 12.9873 3.28371 12.9598 3.31875 12.925L7.7875 8.49375C7.82267 8.45912 7.85065 8.41788 7.86984 8.37241C7.88904 8.32694 7.89907 8.27813 7.89936 8.22877C7.89965 8.17942 7.8902 8.13049 7.87154 8.0848C7.85288 8.0391 7.82538 7.99754 7.79062 7.9625L6.90938 7.075ZM6 2C6 1.46957 5.78929 0.960859 5.41421 0.585786C5.03914 0.210714 4.53043 0 4 0C3.46957 0 2.96086 0.210714 2.58579 0.585786C2.21071 0.960859 2 1.46957 2 2C1.46957 2 0.960859 2.21071 0.585786 2.58579C0.210714 2.96086 0 3.46957 0 4H8C8 3.46957 7.78929 2.96086 7.41421 2.58579C7.03914 2.21071 6.53043 2 6 2ZM4 2.75C3.85166 2.75 3.70666 2.70601 3.58332 2.6236C3.45999 2.54119 3.36386 2.42406 3.30709 2.28701C3.25032 2.14997 3.23547 1.99917 3.26441 1.85368C3.29335 1.7082 3.36478 1.57456 3.46967 1.46967C3.57456 1.36478 3.7082 1.29335 3.85368 1.26441C3.99917 1.23547 4.14997 1.25032 4.28701 1.30709C4.42406 1.36386 4.54119 1.45999 4.6236 1.58332C4.70601 1.70666 4.75 1.85166 4.75 2C4.75025 2.09856 4.73102 2.1962 4.69341 2.2873C4.65581 2.37841 4.60057 2.46119 4.53088 2.53088C4.46119 2.60057 4.37841 2.65581 4.2873 2.69341C4.1962 2.73102 4.09856 2.75025 4 2.75Z" fill="#DC241F"/>
</svg>
