<svg width="57" height="24" viewBox="0 0 57 24" fill="none" xmlns="http://www.w3.org/2000/svg">
<g clip-path="url(#clip0_30954_192714)">
<path opacity="0.4" d="M8.40137 10.2397L10.8035 8.73828C10.9152 9.24072 11.1959 9.68961 11.5987 10.01L9.1966 11.5114C9.0849 11.009 8.80419 10.5601 8.40137 10.2397ZM11.5987 13.9897L9.1966 12.4883C9.0849 12.9907 8.80419 13.4396 8.40137 13.76L10.8035 15.2614C10.9152 14.759 11.1959 14.3101 11.5987 13.9897Z" fill="#BCC8E7"/>
<path d="M7 9.75C6.55499 9.75 6.11998 9.88196 5.74997 10.1292C5.37996 10.3764 5.09157 10.7278 4.92127 11.139C4.75097 11.5501 4.70642 12.0025 4.79323 12.439C4.88005 12.8754 5.09434 13.2763 5.40901 13.591C5.72368 13.9057 6.12459 14.12 6.56105 14.2068C6.9975 14.2936 7.4499 14.249 7.86103 14.0787C8.27217 13.9084 8.62357 13.62 8.8708 13.25C9.11803 12.88 9.24999 12.445 9.24999 12C9.24999 11.4033 9.01294 10.831 8.59099 10.409C8.16903 9.98705 7.59673 9.75 7 9.75ZM13 10.5C13.445 10.5 13.88 10.368 14.25 10.1208C14.62 9.87357 14.9084 9.52217 15.0787 9.11104C15.249 8.69991 15.2936 8.24751 15.2068 7.81105C15.1199 7.37459 14.9056 6.97368 14.591 6.65901C14.2763 6.34434 13.8754 6.13005 13.4389 6.04323C13.0025 5.95642 12.5501 6.00097 12.139 6.17127C11.7278 6.34157 11.3764 6.62996 11.1292 6.99997C10.882 7.36998 10.75 7.80499 10.75 8.25C10.75 8.84674 10.987 9.41903 11.409 9.84099C11.831 10.2629 12.4033 10.5 13 10.5ZM13 13.5C12.555 13.5 12.12 13.632 11.75 13.8792C11.3799 14.1264 11.0916 14.4778 10.9213 14.889C10.751 15.3001 10.7064 15.7525 10.7932 16.189C10.88 16.6254 11.0943 17.0263 11.409 17.341C11.7237 17.6557 12.1246 17.87 12.561 17.9568C12.9975 18.0436 13.4499 17.999 13.861 17.8287C14.2722 17.6584 14.6236 17.37 14.8708 17C15.118 16.63 15.25 16.195 15.25 15.75C15.25 15.1533 15.0129 14.581 14.591 14.159C14.169 13.7371 13.5967 13.5 13 13.5Z" fill="#BCC8E7"/>
</g>
<path d="M23.848 17.104C22.8687 17.104 22.093 16.883 21.521 16.441C20.9577 15.999 20.676 15.4097 20.676 14.673V14.27C20.676 14.1833 20.7193 14.14 20.806 14.14H21.443C21.5297 14.14 21.573 14.1833 21.573 14.27V14.621C21.573 15.1237 21.781 15.531 22.197 15.843C22.613 16.1463 23.1893 16.298 23.926 16.298C24.5933 16.298 25.1003 16.1593 25.447 15.882C25.7937 15.596 25.967 15.219 25.967 14.751C25.967 14.4477 25.8847 14.1877 25.72 13.971C25.564 13.7543 25.317 13.5507 24.979 13.36C24.6497 13.1693 24.1817 12.9483 23.575 12.697C22.925 12.437 22.418 12.2117 22.054 12.021C21.6987 11.8217 21.4083 11.5703 21.183 11.267C20.9663 10.955 20.858 10.565 20.858 10.097C20.858 9.369 21.1093 8.80567 21.612 8.407C22.1233 7.99967 22.821 7.796 23.705 7.796C24.667 7.796 25.4253 8.02133 25.98 8.472C26.5347 8.92267 26.812 9.52067 26.812 10.266V10.552C26.812 10.6387 26.7687 10.682 26.682 10.682H26.032C25.9453 10.682 25.902 10.6387 25.902 10.552V10.318C25.902 9.81533 25.7027 9.40367 25.304 9.083C24.914 8.76233 24.368 8.602 23.666 8.602C23.0507 8.602 22.5783 8.72767 22.249 8.979C21.9197 9.23033 21.755 9.59433 21.755 10.071C21.755 10.383 21.833 10.643 21.989 10.851C22.1537 11.0503 22.3833 11.228 22.678 11.384C22.9813 11.5313 23.445 11.7263 24.069 11.969C24.7017 12.229 25.2087 12.4717 25.59 12.697C25.98 12.9223 26.292 13.1997 26.526 13.529C26.7687 13.8497 26.89 14.244 26.89 14.712C26.89 15.44 26.6213 16.0207 26.084 16.454C25.5467 16.8873 24.8013 17.104 23.848 17.104ZM31.3618 10.331C32.0551 10.331 32.6055 10.5347 33.0128 10.942C33.4288 11.3493 33.6368 11.8953 33.6368 12.58V16.87C33.6368 16.9567 33.5935 17 33.5068 17H32.8438C32.7571 17 32.7138 16.9567 32.7138 16.87V12.762C32.7138 12.2853 32.5665 11.8953 32.2718 11.592C31.9858 11.2887 31.6131 11.137 31.1538 11.137C30.6771 11.137 30.2915 11.2843 29.9968 11.579C29.7021 11.8737 29.5548 12.2593 29.5548 12.736V16.87C29.5548 16.9567 29.5115 17 29.4248 17H28.7618C28.6751 17 28.6318 16.9567 28.6318 16.87V8.03C28.6318 7.94333 28.6751 7.9 28.7618 7.9H29.4248C29.5115 7.9 29.5548 7.94333 29.5548 8.03V11.111C29.5548 11.1283 29.5591 11.1413 29.5678 11.15C29.5851 11.1587 29.5981 11.1543 29.6068 11.137C29.9881 10.5997 30.5731 10.331 31.3618 10.331ZM37.9146 10.318C38.6946 10.318 39.2969 10.5173 39.7216 10.916C40.1463 11.3147 40.3586 11.8433 40.3586 12.502V16.87C40.3586 16.9567 40.3153 17 40.2286 17H39.5656C39.4789 17 39.4356 16.9567 39.4356 16.87V16.337C39.4356 16.3197 39.4269 16.3067 39.4096 16.298C39.4009 16.2893 39.3879 16.2937 39.3706 16.311C39.1539 16.571 38.8723 16.7703 38.5256 16.909C38.1789 17.039 37.7933 17.104 37.3686 17.104C36.7533 17.104 36.2376 16.948 35.8216 16.636C35.4056 16.324 35.1976 15.8473 35.1976 15.206C35.1976 14.556 35.4316 14.0447 35.8996 13.672C36.3763 13.2907 37.0349 13.1 37.8756 13.1H39.3836C39.4183 13.1 39.4356 13.0827 39.4356 13.048V12.554C39.4356 12.112 39.3099 11.7653 39.0586 11.514C38.8159 11.254 38.4346 11.124 37.9146 11.124C37.4986 11.124 37.1606 11.2063 36.9006 11.371C36.6406 11.527 36.4803 11.748 36.4196 12.034C36.3936 12.1207 36.3416 12.1597 36.2636 12.151L35.5616 12.06C35.4663 12.0427 35.4273 12.008 35.4446 11.956C35.5139 11.4707 35.7739 11.0763 36.2246 10.773C36.6753 10.4697 37.2386 10.318 37.9146 10.318ZM37.5506 16.311C38.0619 16.311 38.5039 16.1853 38.8766 15.934C39.2493 15.674 39.4356 15.3273 39.4356 14.894V13.88C39.4356 13.8453 39.4183 13.828 39.3836 13.828H38.0186C37.4466 13.828 36.9873 13.945 36.6406 14.179C36.2939 14.413 36.1206 14.738 36.1206 15.154C36.1206 15.5353 36.2506 15.8257 36.5106 16.025C36.7793 16.2157 37.1259 16.311 37.5506 16.311ZM44.9313 10.357C45.2173 10.357 45.4643 10.4133 45.6723 10.526C45.7416 10.5607 45.7676 10.617 45.7503 10.695L45.6073 11.332C45.5813 11.4187 45.5249 11.4447 45.4383 11.41C45.2909 11.3493 45.1219 11.319 44.9313 11.319L44.7623 11.332C44.3116 11.3493 43.9389 11.5183 43.6443 11.839C43.3496 12.151 43.2023 12.5497 43.2023 13.035V16.87C43.2023 16.9567 43.1589 17 43.0723 17H42.4093C42.3226 17 42.2793 16.9567 42.2793 16.87V10.552C42.2793 10.4653 42.3226 10.422 42.4093 10.422H43.0723C43.1589 10.422 43.2023 10.4653 43.2023 10.552V11.345C43.2023 11.371 43.2066 11.3883 43.2153 11.397C43.2326 11.397 43.2456 11.3883 43.2543 11.371C43.4363 11.0503 43.6659 10.8033 43.9433 10.63C44.2293 10.448 44.5586 10.357 44.9313 10.357ZM51.9951 12.606C52.0298 12.8487 52.0471 13.152 52.0471 13.516V13.932C52.0471 14.0187 52.0038 14.062 51.9171 14.062H47.7181C47.6835 14.062 47.6661 14.0793 47.6661 14.114C47.6835 14.5907 47.7095 14.8983 47.7441 15.037C47.8395 15.427 48.0431 15.7347 48.3551 15.96C48.6671 16.1853 49.0658 16.298 49.5511 16.298C49.9151 16.298 50.2358 16.2157 50.5131 16.051C50.7905 15.8863 51.0071 15.6523 51.1631 15.349C51.2151 15.271 51.2758 15.2537 51.3451 15.297L51.8521 15.596C51.9215 15.6393 51.9388 15.7 51.9041 15.778C51.6875 16.194 51.3625 16.5233 50.9291 16.766C50.4958 17 49.9975 17.117 49.4341 17.117C48.8188 17.1083 48.3031 16.961 47.8871 16.675C47.4711 16.389 47.1721 15.9903 46.9901 15.479C46.8341 15.063 46.7561 14.465 46.7561 13.685C46.7561 13.321 46.7605 13.0263 46.7691 12.801C46.7865 12.567 46.8211 12.359 46.8731 12.177C47.0205 11.6137 47.3151 11.163 47.7571 10.825C48.2078 10.487 48.7495 10.318 49.3821 10.318C50.1708 10.318 50.7775 10.5173 51.2021 10.916C51.6268 11.3147 51.8911 11.878 51.9951 12.606ZM49.3821 11.124C48.9575 11.124 48.6021 11.2367 48.3161 11.462C48.0388 11.6787 47.8568 11.9733 47.7701 12.346C47.7181 12.528 47.6835 12.8227 47.6661 13.23C47.6661 13.2647 47.6835 13.282 47.7181 13.282H51.0851C51.1198 13.282 51.1371 13.2647 51.1371 13.23C51.1198 12.84 51.0938 12.5627 51.0591 12.398C50.9638 12.008 50.7688 11.7003 50.4741 11.475C50.1881 11.241 49.8241 11.124 49.3821 11.124Z" fill="#BCC8E7"/>
<rect x="0.5" y="0.5" width="56" height="23" rx="7.5" stroke="#BCC8E7"/>
<defs>
<clipPath id="clip0_30954_192714">
<rect width="12" height="12" fill="white" transform="translate(4 6)"/>
</clipPath>
</defs>
</svg>
