<svg width="100" height="80" viewBox="0 0 100 80" fill="none" xmlns="http://www.w3.org/2000/svg">
<path d="M0 10C0 4.47715 4.47715 0 10 0H90C95.5228 0 100 4.47715 100 10V70C100 75.5229 95.5229 80 90 80H10C4.47716 80 0 75.5229 0 70V10Z" fill="white"/>
<path d="M50 17V31" stroke="#DC241F" stroke-width="2" stroke-linecap="round" stroke-linejoin="round"/>
<path d="M43 24H57" stroke="#DC241F" stroke-width="2" stroke-linecap="round" stroke-linejoin="round"/>
<path d="M34.0405 39.9C34.1272 39.9 34.1705 39.9433 34.1705 40.03V40.589C34.1705 40.6757 34.1272 40.719 34.0405 40.719H31.4925C31.4579 40.719 31.4405 40.7363 31.4405 40.771V48.87C31.4405 48.9567 31.3972 49 31.3105 49H30.6475C30.5609 49 30.5175 48.9567 30.5175 48.87V40.771C30.5175 40.7363 30.5002 40.719 30.4655 40.719H28.0215C27.9349 40.719 27.8915 40.6757 27.8915 40.589V40.03C27.8915 39.9433 27.9349 39.9 28.0215 39.9H34.0405ZM37.8585 42.318C38.6385 42.318 39.2408 42.5173 39.6655 42.916C40.0901 43.3147 40.3025 43.8433 40.3025 44.502V48.87C40.3025 48.9567 40.2591 49 40.1725 49H39.5095C39.4228 49 39.3795 48.9567 39.3795 48.87V48.337C39.3795 48.3197 39.3708 48.3067 39.3535 48.298C39.3448 48.2893 39.3318 48.2937 39.3145 48.311C39.0978 48.571 38.8161 48.7703 38.4695 48.909C38.1228 49.039 37.7371 49.104 37.3125 49.104C36.6971 49.104 36.1815 48.948 35.7655 48.636C35.3495 48.324 35.1415 47.8473 35.1415 47.206C35.1415 46.556 35.3755 46.0447 35.8435 45.672C36.3201 45.2907 36.9788 45.1 37.8195 45.1H39.3275C39.3621 45.1 39.3795 45.0827 39.3795 45.048V44.554C39.3795 44.112 39.2538 43.7653 39.0025 43.514C38.7598 43.254 38.3785 43.124 37.8585 43.124C37.4425 43.124 37.1045 43.2063 36.8445 43.371C36.5845 43.527 36.4241 43.748 36.3635 44.034C36.3375 44.1207 36.2855 44.1597 36.2075 44.151L35.5055 44.06C35.4101 44.0427 35.3711 44.008 35.3885 43.956C35.4578 43.4707 35.7178 43.0763 36.1685 42.773C36.6191 42.4697 37.1825 42.318 37.8585 42.318ZM37.4945 48.311C38.0058 48.311 38.4478 48.1853 38.8205 47.934C39.1931 47.674 39.3795 47.3273 39.3795 46.894V45.88C39.3795 45.8453 39.3621 45.828 39.3275 45.828H37.9625C37.3905 45.828 36.9311 45.945 36.5845 46.179C36.2378 46.413 36.0645 46.738 36.0645 47.154C36.0645 47.5353 36.1945 47.8257 36.4545 48.025C36.7231 48.2157 37.0698 48.311 37.4945 48.311ZM48.8791 42.331C49.5291 42.331 50.0404 42.526 50.4131 42.916C50.7944 43.306 50.9851 43.839 50.9851 44.515V48.87C50.9851 48.9567 50.9418 49 50.8551 49H50.2051C50.1184 49 50.0751 48.9567 50.0751 48.87V44.697C50.0751 44.2203 49.9364 43.8433 49.6591 43.566C49.3904 43.28 49.0351 43.137 48.5931 43.137C48.1338 43.137 47.7611 43.2757 47.4751 43.553C47.1978 43.8303 47.0591 44.203 47.0591 44.671V48.87C47.0591 48.9567 47.0158 49 46.9291 49H46.2661C46.1794 49 46.1361 48.9567 46.1361 48.87V44.697C46.1361 44.2203 46.0018 43.8433 45.7331 43.566C45.4644 43.28 45.1048 43.137 44.6541 43.137C44.1948 43.137 43.8264 43.2757 43.5491 43.553C43.2804 43.8303 43.1461 44.203 43.1461 44.671V48.87C43.1461 48.9567 43.1028 49 43.0161 49H42.3531C42.2664 49 42.2231 48.9567 42.2231 48.87V42.552C42.2231 42.4653 42.2664 42.422 42.3531 42.422H43.0161C43.1028 42.422 43.1461 42.4653 43.1461 42.552V43.072C43.1461 43.0893 43.1504 43.1023 43.1591 43.111C43.1764 43.111 43.1938 43.1023 43.2111 43.085C43.4018 42.8337 43.6444 42.6473 43.9391 42.526C44.2424 42.396 44.5761 42.331 44.9401 42.331C45.3908 42.331 45.7764 42.422 46.0971 42.604C46.4178 42.786 46.6604 43.0503 46.8251 43.397C46.8424 43.4403 46.8641 43.4403 46.8901 43.397C47.0808 43.0417 47.3494 42.7773 47.6961 42.604C48.0428 42.422 48.4371 42.331 48.8791 42.331ZM58.0203 44.099C58.1243 44.489 58.1763 45.0263 58.1763 45.711C58.1763 46.4217 58.1157 46.972 57.9943 47.362C57.8297 47.8993 57.5437 48.324 57.1363 48.636C56.729 48.948 56.222 49.104 55.6153 49.104C55.2687 49.104 54.9523 49.0347 54.6663 48.896C54.3803 48.7573 54.142 48.558 53.9513 48.298C53.9427 48.2807 53.9297 48.2763 53.9123 48.285C53.895 48.285 53.8863 48.2937 53.8863 48.311V48.87C53.8863 48.9567 53.843 49 53.7563 49H53.0933C53.0067 49 52.9633 48.9567 52.9633 48.87V40.03C52.9633 39.9433 53.0067 39.9 53.0933 39.9H53.7563C53.843 39.9 53.8863 39.9433 53.8863 40.03V43.098C53.8863 43.1153 53.8907 43.1283 53.8993 43.137C53.9167 43.137 53.934 43.1283 53.9513 43.111C54.142 42.8597 54.3803 42.6647 54.6663 42.526C54.9523 42.3873 55.2687 42.318 55.6153 42.318C56.2307 42.318 56.7463 42.4783 57.1623 42.799C57.5783 43.111 57.8643 43.5443 58.0203 44.099ZM57.0193 47.284C57.106 47.102 57.1667 46.8983 57.2013 46.673C57.236 46.439 57.2533 46.1183 57.2533 45.711C57.2533 45.2863 57.2273 44.957 57.1753 44.723C57.132 44.4803 57.0583 44.2637 56.9543 44.073C56.8417 43.787 56.6597 43.5573 56.4083 43.384C56.157 43.2107 55.858 43.124 55.5113 43.124C55.182 43.124 54.896 43.215 54.6533 43.397C54.4193 43.5703 54.2503 43.8043 54.1463 44.099C54.0597 44.281 53.9947 44.489 53.9513 44.723C53.9167 44.957 53.8993 45.2863 53.8993 45.711C53.8993 46.127 53.9167 46.452 53.9513 46.686C53.9947 46.9113 54.0553 47.115 54.1333 47.297C54.246 47.6003 54.4193 47.843 54.6533 48.025C54.8873 48.207 55.1777 48.298 55.5243 48.298C55.8883 48.298 56.2003 48.207 56.4603 48.025C56.729 47.843 56.9153 47.596 57.0193 47.284ZM62.335 42.318C63.115 42.318 63.7174 42.5173 64.142 42.916C64.5667 43.3147 64.779 43.8433 64.779 44.502V48.87C64.779 48.9567 64.7357 49 64.649 49H63.986C63.8994 49 63.856 48.9567 63.856 48.87V48.337C63.856 48.3197 63.8474 48.3067 63.83 48.298C63.8214 48.2893 63.8084 48.2937 63.791 48.311C63.5744 48.571 63.2927 48.7703 62.946 48.909C62.5994 49.039 62.2137 49.104 61.789 49.104C61.1737 49.104 60.658 48.948 60.242 48.636C59.826 48.324 59.618 47.8473 59.618 47.206C59.618 46.556 59.852 46.0447 60.32 45.672C60.7967 45.2907 61.4554 45.1 62.296 45.1H63.804C63.8387 45.1 63.856 45.0827 63.856 45.048V44.554C63.856 44.112 63.7304 43.7653 63.479 43.514C63.2364 43.254 62.855 43.124 62.335 43.124C61.919 43.124 61.581 43.2063 61.321 43.371C61.061 43.527 60.9007 43.748 60.84 44.034C60.814 44.1207 60.762 44.1597 60.684 44.151L59.982 44.06C59.8867 44.0427 59.8477 44.008 59.865 43.956C59.9344 43.4707 60.1944 43.0763 60.645 42.773C61.0957 42.4697 61.659 42.318 62.335 42.318ZM61.971 48.311C62.4824 48.311 62.9244 48.1853 63.297 47.934C63.6697 47.674 63.856 47.3273 63.856 46.894V45.88C63.856 45.8453 63.8387 45.828 63.804 45.828H62.439C61.867 45.828 61.4077 45.945 61.061 46.179C60.7144 46.413 60.541 46.738 60.541 47.154C60.541 47.5353 60.671 47.8257 60.931 48.025C61.1997 48.2157 61.5464 48.311 61.971 48.311ZM69.4297 42.331C70.123 42.331 70.6733 42.5347 71.0807 42.942C71.4967 43.3493 71.7047 43.8953 71.7047 44.58V48.87C71.7047 48.9567 71.6613 49 71.5747 49H70.9117C70.825 49 70.7817 48.9567 70.7817 48.87V44.762C70.7817 44.2853 70.6343 43.8953 70.3397 43.592C70.0537 43.2887 69.681 43.137 69.2217 43.137C68.745 43.137 68.3593 43.2843 68.0647 43.579C67.77 43.8737 67.6227 44.2593 67.6227 44.736V48.87C67.6227 48.9567 67.5793 49 67.4927 49H66.8297C66.743 49 66.6997 48.9567 66.6997 48.87V40.03C66.6997 39.9433 66.743 39.9 66.8297 39.9H67.4927C67.5793 39.9 67.6227 39.9433 67.6227 40.03V43.111C67.6227 43.1283 67.627 43.1413 67.6357 43.15C67.653 43.1587 67.666 43.1543 67.6747 43.137C68.056 42.5997 68.641 42.331 69.4297 42.331ZM38.0555 55.887C38.8182 55.887 39.4292 56.121 39.8885 56.589C40.3565 57.057 40.5905 57.6723 40.5905 58.435C40.5905 59.189 40.3522 59.7957 39.8755 60.255C39.4075 60.7143 38.7878 60.944 38.0165 60.944H35.4815C35.4468 60.944 35.4295 60.9613 35.4295 60.996V64.87C35.4295 64.9567 35.3862 65 35.2995 65H34.6365C34.5498 65 34.5065 64.9567 34.5065 64.87V56.017C34.5065 55.9303 34.5498 55.887 34.6365 55.887H38.0555ZM37.9515 60.177C38.4628 60.177 38.8788 60.021 39.1995 59.709C39.5202 59.3883 39.6805 58.968 39.6805 58.448C39.6805 57.9193 39.5202 57.4947 39.1995 57.174C38.8788 56.8533 38.4628 56.693 37.9515 56.693H35.4815C35.4468 56.693 35.4295 56.7103 35.4295 56.745V60.125C35.4295 60.1597 35.4468 60.177 35.4815 60.177H37.9515ZM44.8388 58.331C45.5322 58.331 46.0825 58.5347 46.4898 58.942C46.9058 59.3493 47.1138 59.8953 47.1138 60.58V64.87C47.1138 64.9567 47.0705 65 46.9838 65H46.3208C46.2342 65 46.1908 64.9567 46.1908 64.87V60.762C46.1908 60.2853 46.0435 59.8953 45.7488 59.592C45.4628 59.2887 45.0902 59.137 44.6308 59.137C44.1542 59.137 43.7685 59.2843 43.4738 59.579C43.1792 59.8737 43.0318 60.2593 43.0318 60.736V64.87C43.0318 64.9567 42.9885 65 42.9018 65H42.2388C42.1522 65 42.1088 64.9567 42.1088 64.87V56.03C42.1088 55.9433 42.1522 55.9 42.2388 55.9H42.9018C42.9885 55.9 43.0318 55.9433 43.0318 56.03V59.111C43.0318 59.1283 43.0362 59.1413 43.0448 59.15C43.0622 59.1587 43.0752 59.1543 43.0838 59.137C43.4652 58.5997 44.0502 58.331 44.8388 58.331ZM51.5368 65.104C50.9128 65.104 50.3755 64.9437 49.9248 64.623C49.4741 64.3023 49.1621 63.8603 48.9888 63.297C48.8675 62.8983 48.8068 62.3653 48.8068 61.698C48.8068 61.0307 48.8675 60.502 48.9888 60.112C49.1535 59.5573 49.4611 59.1197 49.9118 58.799C50.3625 58.4783 50.9085 58.318 51.5498 58.318C52.1651 58.318 52.6938 58.4783 53.1358 58.799C53.5865 59.1197 53.8941 59.553 54.0588 60.099C54.1801 60.4717 54.2408 61.0047 54.2408 61.698C54.2408 62.4 54.1801 62.933 54.0588 63.297C53.8941 63.8603 53.5865 64.3023 53.1358 64.623C52.6938 64.9437 52.1608 65.104 51.5368 65.104ZM51.5368 64.298C51.9528 64.298 52.3081 64.1853 52.6028 63.96C52.8975 63.726 53.0968 63.414 53.2008 63.024C53.2788 62.712 53.3178 62.2743 53.3178 61.711C53.3178 61.139 53.2831 60.7013 53.2138 60.398C53.1098 60.008 52.9061 59.7003 52.6028 59.475C52.3081 59.241 51.9485 59.124 51.5238 59.124C51.0991 59.124 50.7395 59.241 50.4448 59.475C50.1501 59.7003 49.9508 60.008 49.8468 60.398C49.7775 60.7013 49.7428 61.139 49.7428 61.711C49.7428 62.283 49.7775 62.7207 49.8468 63.024C49.9421 63.414 50.1371 63.726 50.4318 63.96C50.7351 64.1853 51.1035 64.298 51.5368 64.298ZM58.9866 59.059C58.9866 59.1457 58.9433 59.189 58.8566 59.189H57.3876C57.3529 59.189 57.3356 59.2063 57.3356 59.241V63.076C57.3356 63.492 57.4266 63.7867 57.6086 63.96C57.7993 64.1247 58.0939 64.207 58.4926 64.207H58.8176C58.9043 64.207 58.9476 64.2503 58.9476 64.337V64.87C58.9476 64.9567 58.9043 65 58.8176 65C58.7136 65.0087 58.5533 65.013 58.3366 65.013C57.7126 65.013 57.2403 64.896 56.9196 64.662C56.5989 64.428 56.4386 63.9947 56.4386 63.362V59.241C56.4386 59.2063 56.4213 59.189 56.3866 59.189H55.5936C55.5069 59.189 55.4636 59.1457 55.4636 59.059V58.552C55.4636 58.4653 55.5069 58.422 55.5936 58.422H56.3866C56.4213 58.422 56.4386 58.4047 56.4386 58.37V56.862C56.4386 56.7753 56.4819 56.732 56.5686 56.732H57.2056C57.2923 56.732 57.3356 56.7753 57.3356 56.862V58.37C57.3356 58.4047 57.3529 58.422 57.3876 58.422H58.8566C58.9433 58.422 58.9866 58.4653 58.9866 58.552V59.059ZM63.0895 65.104C62.4655 65.104 61.9282 64.9437 61.4775 64.623C61.0269 64.3023 60.7149 63.8603 60.5415 63.297C60.4202 62.8983 60.3595 62.3653 60.3595 61.698C60.3595 61.0307 60.4202 60.502 60.5415 60.112C60.7062 59.5573 61.0139 59.1197 61.4645 58.799C61.9152 58.4783 62.4612 58.318 63.1025 58.318C63.7179 58.318 64.2465 58.4783 64.6885 58.799C65.1392 59.1197 65.4469 59.553 65.6115 60.099C65.7329 60.4717 65.7935 61.0047 65.7935 61.698C65.7935 62.4 65.7329 62.933 65.6115 63.297C65.4469 63.8603 65.1392 64.3023 64.6885 64.623C64.2465 64.9437 63.7135 65.104 63.0895 65.104ZM63.0895 64.298C63.5055 64.298 63.8609 64.1853 64.1555 63.96C64.4502 63.726 64.6495 63.414 64.7535 63.024C64.8315 62.712 64.8705 62.2743 64.8705 61.711C64.8705 61.139 64.8359 60.7013 64.7665 60.398C64.6625 60.008 64.4589 59.7003 64.1555 59.475C63.8609 59.241 63.5012 59.124 63.0765 59.124C62.6519 59.124 62.2922 59.241 61.9975 59.475C61.7029 59.7003 61.5035 60.008 61.3995 60.398C61.3302 60.7013 61.2955 61.139 61.2955 61.711C61.2955 62.283 61.3302 62.7207 61.3995 63.024C61.4949 63.414 61.6899 63.726 61.9845 63.96C62.2879 64.1853 62.6562 64.298 63.0895 64.298Z" fill="#2B2F3C"/>
<path d="M10 79.5C9.3649 79.5 8.74483 79.4378 8.14542 79.3192L7.95135 80.3002C8.61434 80.4313 9.2994 80.5 10 80.5V79.5ZM4.722 77.9002C3.6858 77.2065 2.79355 76.3142 2.09983 75.278L1.26886 75.8343C2.0353 76.9791 3.02086 77.9647 4.16569 78.7311L4.722 77.9002ZM0.680834 71.8546C0.562252 71.2552 0.5 70.6351 0.5 70H-0.5C-0.5 70.7006 -0.431313 71.3857 -0.300153 72.0487L0.680834 71.8546ZM0.5 70V68.125H-0.5V70H0.5ZM0.5 64.375V60.625H-0.5V64.375H0.5ZM0.5 56.875V53.125H-0.5V56.875H0.5ZM0.5 49.375V45.625H-0.5V49.375H0.5ZM0.5 41.875V38.125H-0.5V41.875H0.5ZM0.5 34.375V30.625H-0.5V34.375H0.5ZM0.5 26.875V23.125H-0.5V26.875H0.5ZM0.5 19.375V15.625H-0.5V19.375H0.5ZM0.5 11.875V10H-0.5V11.875H0.5ZM0.5 10C0.5 9.3649 0.562252 8.74483 0.680834 8.14541L-0.300153 7.95135C-0.431313 8.61433 -0.5 9.29939 -0.5 10H0.5ZM2.09983 4.722C2.79355 3.6858 3.6858 2.79355 4.722 2.09983L4.16568 1.26886C3.02086 2.0353 2.0353 3.02086 1.26886 4.16568L2.09983 4.722ZM8.14542 0.680834C8.74483 0.562251 9.3649 0.5 10 0.5V-0.5C9.29939 -0.5 8.61434 -0.431313 7.95135 -0.300154L8.14542 0.680834ZM10 0.5H12V-0.5H10V0.5ZM16 0.5H20V-0.5H16V0.5ZM24 0.5H28V-0.5H24V0.5ZM32 0.5H36V-0.5H32V0.5ZM40 0.5H44V-0.5H40V0.5ZM48 0.5H52V-0.5H48V0.5ZM56 0.5H60V-0.5H56V0.5ZM64 0.5H68V-0.5H64V0.5ZM72 0.5H76V-0.5H72V0.5ZM80 0.5H84V-0.5H80V0.5ZM88 0.5H90V-0.5H88V0.5ZM90 0.5C90.6351 0.5 91.2552 0.562252 91.8546 0.680834L92.0487 -0.300153C91.3857 -0.431313 90.7006 -0.5 90 -0.5V0.5ZM95.278 2.09983C96.3142 2.79355 97.2065 3.6858 97.9002 4.722L98.7311 4.16568C97.9647 3.02086 96.9791 2.0353 95.8343 1.26886L95.278 2.09983ZM99.3192 8.14542C99.4378 8.74483 99.5 9.3649 99.5 10H100.5C100.5 9.29939 100.431 8.61434 100.3 7.95135L99.3192 8.14542ZM99.5 10V11.875H100.5V10H99.5ZM99.5 15.625V19.375H100.5V15.625H99.5ZM99.5 23.125V26.875H100.5V23.125H99.5ZM99.5 30.625V34.375H100.5V30.625H99.5ZM99.5 38.125V41.875H100.5V38.125H99.5ZM99.5 45.625V49.375H100.5V45.625H99.5ZM99.5 53.125V56.875H100.5V53.125H99.5ZM99.5 60.625V64.375H100.5V60.625H99.5ZM99.5 68.125V70H100.5V68.125H99.5ZM99.5 70C99.5 70.6351 99.4378 71.2552 99.3192 71.8546L100.3 72.0487C100.431 71.3857 100.5 70.7006 100.5 70H99.5ZM97.9002 75.278C97.2065 76.3142 96.3142 77.2065 95.278 77.9002L95.8343 78.7311C96.9791 77.9647 97.9647 76.9791 98.7311 75.8343L97.9002 75.278ZM91.8546 79.3192C91.2552 79.4378 90.6351 79.5 90 79.5V80.5C90.7006 80.5 91.3857 80.4313 92.0487 80.3002L91.8546 79.3192ZM90 79.5H88V80.5H90V79.5ZM84 79.5H80V80.5H84V79.5ZM76 79.5H72V80.5H76V79.5ZM68 79.5H64V80.5H68V79.5ZM60 79.5H56V80.5H60V79.5ZM52 79.5H48V80.5H52V79.5ZM44 79.5H40V80.5H44V79.5ZM36 79.5H32V80.5H36V79.5ZM28 79.5H24V80.5H28V79.5ZM20 79.5H16V80.5H20V79.5ZM12 79.5H10V80.5H12V79.5ZM10 79C9.39765 79 8.81008 78.941 8.24245 78.8287L7.85431 80.7906C8.54909 80.9281 9.26664 81 10 81V79ZM5.00016 77.4847C4.01827 76.8273 3.17268 75.9817 2.51531 74.9998L0.853378 76.1125C1.65618 77.3116 2.68839 78.3438 3.88753 79.1466L5.00016 77.4847ZM1.17133 71.7576C1.05903 71.1899 1 70.6023 1 70H-1C-1 70.7334 -0.928095 71.4509 -0.790647 72.1457L1.17133 71.7576ZM1 70V68.125H-1V70H1ZM1 64.375V60.625H-1V64.375H1ZM1 56.875V53.125H-1V56.875H1ZM1 49.375V45.625H-1V49.375H1ZM1 41.875V38.125H-1V41.875H1ZM1 34.375V30.625H-1V34.375H1ZM1 26.875V23.125H-1V26.875H1ZM1 19.375V15.625H-1V19.375H1ZM1 11.875V10H-1V11.875H1ZM1 10C1 9.39765 1.05903 8.81008 1.17133 8.24245L-0.790647 7.85431C-0.928095 8.54909 -1 9.26664 -1 10H1ZM2.51531 5.00016C3.17268 4.01827 4.01827 3.17268 5.00016 2.51531L3.88752 0.853377C2.68839 1.65618 1.65618 2.68839 0.853378 3.88752L2.51531 5.00016ZM8.24245 1.17133C8.81008 1.05903 9.39765 1 10 1V-1C9.26664 -1 8.54909 -0.928095 7.85431 -0.790648L8.24245 1.17133ZM10 1H12V-1H10V1ZM16 1H20V-1H16V1ZM24 1H28V-1H24V1ZM32 1H36V-1H32V1ZM40 1H44V-1H40V1ZM48 1H52V-1H48V1ZM56 1H60V-1H56V1ZM64 1H68V-1H64V1ZM72 1H76V-1H72V1ZM80 1H84V-1H80V1ZM88 1H90V-1H88V1ZM90 1C90.6023 1 91.1899 1.05903 91.7575 1.17133L92.1457 -0.790647C91.4509 -0.928095 90.7334 -1 90 -1V1ZM94.9998 2.51531C95.9817 3.17268 96.8273 4.01827 97.4847 5.00016L99.1466 3.88752C98.3438 2.68839 97.3116 1.65618 96.1125 0.853378L94.9998 2.51531ZM98.8287 8.24245C98.941 8.81008 99 9.39765 99 10H101C101 9.26664 100.928 8.54909 100.791 7.85431L98.8287 8.24245ZM99 10V11.875H101V10H99ZM99 15.625V19.375H101V15.625H99ZM99 23.125V26.875H101V23.125H99ZM99 30.625V34.375H101V30.625H99ZM99 38.125V41.875H101V38.125H99ZM99 45.625V49.375H101V45.625H99ZM99 53.125V56.875H101V53.125H99ZM99 60.625V64.375H101V60.625H99ZM99 68.125V70H101V68.125H99ZM99 70C99 70.6023 98.941 71.1899 98.8287 71.7576L100.791 72.1457C100.928 71.4509 101 70.7334 101 70H99ZM97.4847 74.9998C96.8273 75.9817 95.9817 76.8273 94.9998 77.4847L96.1125 79.1466C97.3116 78.3438 98.3438 77.3116 99.1466 76.1125L97.4847 74.9998ZM91.7576 78.8287C91.1899 78.941 90.6023 79 90 79V81C90.7334 81 91.4509 80.9281 92.1457 80.7906L91.7576 78.8287ZM90 79H88V81H90V79ZM84 79H80V81H84V79ZM76 79H72V81H76V79ZM68 79H64V81H68V79ZM60 79H56V81H60V79ZM52 79H48V81H52V79ZM44 79H40V81H44V79ZM36 79H32V81H36V79ZM28 79H24V81H28V79ZM20 79H16V81H20V79ZM12 79H10V81H12V79Z" fill="#BCC8E7"/>
</svg>
