<svg width="20" height="20" viewBox="0 0 20 20" fill="none" xmlns="http://www.w3.org/2000/svg">
<g clip-path="url(#clip0_46398_242627)">
<path opacity="0.4" d="M4.16699 14.6589V11.5056C4.16699 11.3559 4.22647 11.2123 4.33234 11.1064C4.4382 11.0006 4.58179 10.9411 4.73151 10.9411H7.8848C8.38769 10.9411 8.63961 11.5491 8.28467 11.9055L7.30264 12.8875C8.03391 13.5747 9.00064 13.9555 10.0041 13.9519C11.8249 13.9502 13.3985 12.7019 13.8329 10.9682C13.8479 10.9068 13.8831 10.8522 13.9328 10.8132C13.9824 10.7742 14.0438 10.753 14.1069 10.7529H15.455C15.4964 10.7529 15.5373 10.762 15.5748 10.7795C15.6124 10.7971 15.6456 10.8227 15.6721 10.8546C15.6986 10.8864 15.7178 10.9237 15.7283 10.9637C15.7387 11.0038 15.7403 11.0457 15.7328 11.0865C15.2237 13.7891 12.8509 15.8336 10.0003 15.8336C8.49892 15.8356 7.05496 15.2566 5.97086 14.2179L5.13137 15.0574C4.77502 15.4137 4.16699 15.1618 4.16699 14.6589Z" fill="#FF6A6A"/>
<path d="M4.26837 8.91411C4.77714 6.21149 7.14999 4.167 10.0006 4.167C11.502 4.16499 12.9459 4.74397 14.03 5.78269L14.8695 4.94321C15.2252 4.58756 15.8339 4.83948 15.8339 5.34307V8.49496C15.8339 8.64467 15.7744 8.78826 15.6686 8.89413C15.5627 9 15.4191 9.05947 15.2694 9.05947H12.1161C11.6132 9.05947 11.3613 8.45144 11.7162 8.09509L12.6982 7.11307C11.9671 6.42593 11.0004 6.04504 9.99703 6.04872C8.17506 6.05036 6.60217 7.29959 6.16797 9.03242C6.15296 9.09379 6.11781 9.14834 6.06813 9.18736C6.01845 9.22638 5.95711 9.24761 5.89394 9.24764H4.54592C4.50451 9.24764 4.46361 9.23853 4.42612 9.22095C4.38862 9.20337 4.35546 9.17776 4.32897 9.14593C4.30248 9.1141 4.28332 9.07683 4.27285 9.03677C4.26238 8.99671 4.26085 8.95483 4.26837 8.91411Z" fill="#FF6A6A"/>
</g>
<circle opacity="0.4" cx="10" cy="10" r="10" fill="#FF6A6A"/>
<defs>
<clipPath id="clip0_46398_242627">
<rect width="11.6667" height="11.6667" fill="white" transform="translate(4.16699 4.16699)"/>
</clipPath>
</defs>
</svg>
