<svg width="16" height="16" viewBox="0 0 16 16" fill="none" xmlns="http://www.w3.org/2000/svg">
<path d="M14.1064 7.36726L7.97969 13.4939C7.22912 14.2445 6.21114 14.6662 5.14969 14.6662C4.08823 14.6662 3.07025 14.2445 2.31969 13.4939C1.56912 12.7434 1.14746 11.7254 1.14746 10.6639C1.14746 9.60247 1.56912 8.58449 2.31969 7.83393L8.44635 1.70726C8.94673 1.20689 9.62538 0.925781 10.333 0.925781C11.0407 0.925781 11.7193 1.20689 12.2197 1.70726C12.7201 2.20764 13.0012 2.88629 13.0012 3.59393C13.0012 4.30157 12.7201 4.98022 12.2197 5.4806L6.08635 11.6073C5.83616 11.8575 5.49684 11.998 5.14302 11.998C4.7892 11.998 4.44987 11.8575 4.19969 11.6073C3.9495 11.3571 3.80894 11.0177 3.80894 10.6639C3.80894 10.3101 3.9495 9.97078 4.19969 9.7206L9.85969 4.06726" stroke="#DC241F" stroke-width="2" stroke-linecap="round" stroke-linejoin="round"/>
</svg>
