<svg width="40" height="40" viewBox="0 0 40 40" fill="none" xmlns="http://www.w3.org/2000/svg">
<path opacity="0.4" d="M20 0C8.95161 0 0 8.95161 0 20C0 31.0484 8.95161 40 20 40C31.0484 40 40 31.0484 40 20C40 8.95161 31.0484 0 20 0ZM32.525 15.7508L17.6863 30.5895C17.4443 30.8313 17.1163 30.9671 16.7742 30.9671C16.4321 30.9671 16.1041 30.8313 15.8621 30.5895L7.475 22.2024C7.2332 21.9605 7.09737 21.6324 7.09737 21.2903C7.09737 20.9483 7.2332 20.6202 7.475 20.3782L9.29919 18.5532C9.41901 18.4334 9.56127 18.3383 9.71784 18.2734C9.87441 18.2086 10.0422 18.1752 10.2117 18.1752C10.3812 18.1752 10.549 18.2086 10.7055 18.2734C10.8621 18.3383 11.0044 18.4334 11.1242 18.5532L16.7742 24.2032L28.8758 12.1016C28.9956 11.9818 29.1379 11.8867 29.2945 11.8218C29.451 11.757 29.6188 11.7236 29.7883 11.7236C29.9578 11.7236 30.1256 11.757 30.2822 11.8218C30.4387 11.8867 30.581 11.9818 30.7008 12.1016L32.525 13.9266C32.7668 14.1686 32.9026 14.4966 32.9026 14.8387C32.9026 15.1808 32.7668 15.5088 32.525 15.7508V15.7508Z" fill="#DC241F"/>
<path d="M17.6866 30.5886C17.4446 30.8304 17.1165 30.9662 16.7745 30.9662C16.4324 30.9662 16.1043 30.8304 15.8624 30.5886L7.47528 22.2015C7.23348 21.9595 7.09766 21.6315 7.09766 21.2894C7.09766 20.9473 7.23348 20.6192 7.47528 20.3773L9.29948 18.5523C9.4193 18.4324 9.56156 18.3374 9.71812 18.2725C9.87469 18.2076 10.0425 18.1743 10.212 18.1743C10.3815 18.1743 10.5493 18.2076 10.7058 18.2725C10.8624 18.3374 11.0047 18.4324 11.1245 18.5523L16.7745 24.2023L28.8761 12.1007C28.9959 11.9808 29.1382 11.8858 29.2947 11.8209C29.4513 11.756 29.6191 11.7227 29.7886 11.7227C29.9581 11.7227 30.1259 11.756 30.2824 11.8209C30.439 11.8858 30.5813 11.9808 30.7011 12.1007L32.5253 13.9257C32.7671 14.1676 32.9029 14.4957 32.9029 14.8378C32.9029 15.1798 32.7671 15.5079 32.5253 15.7499L17.6866 30.5886Z" fill="#DC241F"/>
</svg>
