<svg width="41" height="40" viewBox="0 0 41 40" fill="none" xmlns="http://www.w3.org/2000/svg">
<path opacity="0.4" d="M20.2002 0C9.15181 0 0.200195 8.95161 0.200195 20C0.200195 31.0484 9.15181 40 20.2002 40C31.2486 40 40.2002 31.0484 40.2002 20C40.2002 8.95161 31.2486 0 20.2002 0ZM30.0066 25.25C30.0969 25.3399 30.1684 25.4467 30.2173 25.5644C30.2661 25.682 30.2913 25.8081 30.2913 25.9355C30.2913 26.0629 30.2661 26.189 30.2173 26.3066C30.1684 26.4242 30.0969 26.5311 30.0066 26.621L26.8131 29.8065C26.7232 29.8967 26.6164 29.9683 26.4987 30.0171C26.3811 30.0659 26.255 30.0911 26.1276 30.0911C26.0002 30.0911 25.8741 30.0659 25.7565 30.0171C25.6389 29.9683 25.532 29.8967 25.4421 29.8065L20.2002 24.5161L14.9502 29.8065C14.8603 29.8967 14.7535 29.9683 14.6358 30.0171C14.5182 30.0659 14.3921 30.0911 14.2647 30.0911C14.1373 30.0911 14.0112 30.0659 13.8936 30.0171C13.776 29.9683 13.6691 29.8967 13.5792 29.8065L10.3937 26.6129C10.3035 26.523 10.2319 26.4162 10.1831 26.2985C10.1343 26.1809 10.1091 26.0548 10.1091 25.9274C10.1091 25.8001 10.1343 25.6739 10.1831 25.5563C10.2319 25.4387 10.3035 25.3318 10.3937 25.2419L15.6841 20L10.3937 14.75C10.3035 14.6601 10.2319 14.5533 10.1831 14.4356C10.1343 14.318 10.1091 14.1919 10.1091 14.0645C10.1091 13.9371 10.1343 13.811 10.1831 13.6934C10.2319 13.5758 10.3035 13.4689 10.3937 13.379L13.5873 10.1855C13.6772 10.0953 13.784 10.0237 13.9017 9.97484C14.0193 9.92599 14.1454 9.90085 14.2728 9.90085C14.4001 9.90085 14.5263 9.92599 14.6439 9.97484C14.7615 10.0237 14.8684 10.0953 14.9583 10.1855L20.2002 15.4839L25.4502 10.1935C25.5401 10.1033 25.6469 10.0317 25.7646 9.9829C25.8822 9.93406 26.0083 9.90891 26.1357 9.90891C26.263 9.90891 26.3892 9.93406 26.5068 9.9829C26.6244 10.0317 26.7313 10.1033 26.8212 10.1935L30.0147 13.3871C30.1049 13.477 30.1765 13.5838 30.2254 13.7015C30.2742 13.8191 30.2993 13.9452 30.2993 14.0726C30.2993 14.1999 30.2742 14.3261 30.2254 14.4437C30.1765 14.5613 30.1049 14.6682 30.0147 14.7581L24.7163 20L30.0066 25.25Z" fill="#DC241F"/>
<path d="M30.0069 25.2476C30.0971 25.3375 30.1687 25.4443 30.2176 25.562C30.2664 25.6796 30.2915 25.8057 30.2915 25.9331C30.2915 26.0604 30.2664 26.1866 30.2176 26.3042C30.1687 26.4218 30.0971 26.5286 30.0069 26.6186L26.8134 29.804C26.7235 29.8943 26.6166 29.9658 26.499 30.0147C26.3814 30.0635 26.2552 30.0887 26.1279 30.0887C26.0005 30.0887 25.8744 30.0635 25.7568 30.0147C25.6391 29.9658 25.5323 29.8943 25.4424 29.804L20.2005 24.5137L14.9505 29.804C14.8606 29.8943 14.7537 29.9658 14.6361 30.0147C14.5185 30.0635 14.3923 30.0887 14.265 30.0887C14.1376 30.0887 14.0115 30.0635 13.8939 30.0147C13.7762 29.9658 13.6694 29.8943 13.5795 29.804L10.394 26.6105C10.3038 26.5206 10.2322 26.4138 10.1834 26.2961C10.1345 26.1785 10.1094 26.0524 10.1094 25.925C10.1094 25.7976 10.1345 25.6715 10.1834 25.5539C10.2322 25.4363 10.3038 25.3294 10.394 25.2395L15.6843 19.9976L10.394 14.7476C10.3038 14.6577 10.2322 14.5508 10.1834 14.4332C10.1345 14.3156 10.1094 14.1895 10.1094 14.0621C10.1094 13.9347 10.1345 13.8086 10.1834 13.691C10.2322 13.5734 10.3038 13.4665 10.394 13.3766L13.5876 10.1831C13.6775 10.0929 13.7843 10.0213 13.9019 9.97242C14.0196 9.92358 14.1457 9.89844 14.273 9.89844C14.4004 9.89844 14.5265 9.92358 14.6442 9.97242C14.7618 10.0213 14.8686 10.0929 14.9585 10.1831L20.2005 15.4815L25.4505 10.1911C25.5404 10.1009 25.6472 10.0293 25.7648 9.98049C25.8825 9.93165 26.0086 9.9065 26.1359 9.9065C26.2633 9.9065 26.3894 9.93165 26.5071 9.98049C26.6247 10.0293 26.7315 10.1009 26.8214 10.1911L30.015 13.3847C30.1052 13.4746 30.1768 13.5814 30.2256 13.6991C30.2745 13.8167 30.2996 13.9428 30.2996 14.0702C30.2996 14.1975 30.2745 14.3237 30.2256 14.4413C30.1768 14.5589 30.1052 14.6657 30.015 14.7557L24.7166 19.9976L30.0069 25.2476Z" fill="#DC241F"/>
</svg>
