<svg width="30" height="30" viewBox="0 0 30 30" fill="none" xmlns="http://www.w3.org/2000/svg">
<rect width="30" height="30" rx="10" fill="#FFF5F4"/>
<path opacity="0.4" d="M10.0005 15.6251V17.4999H24.0612C24.3099 17.4999 24.5483 17.5986 24.7241 17.7744C24.8999 17.9502 24.9986 18.1887 24.9986 18.4373V19.0622C24.9986 19.3108 24.8999 19.5492 24.7241 19.725C24.5483 19.9008 24.3099 19.9996 24.0612 19.9996H10.0005V21.8743C10.0005 22.7117 8.98735 23.1242 8.39914 22.5383L5.27453 19.4137C5.09875 19.2379 5 18.9995 5 18.7509C5 18.5023 5.09875 18.2639 5.27453 18.0881L8.39914 14.9635C8.99047 14.3729 10.0005 14.7936 10.0005 15.6251Z" fill="#DC241F"/>
<path d="M24.7251 10.588C24.8122 10.675 24.8813 10.7784 24.9284 10.8921C24.9755 11.0059 24.9998 11.1278 24.9998 11.251C24.9998 11.3741 24.9755 11.496 24.9284 11.6098C24.8813 11.7236 24.8122 11.8269 24.7251 11.914L21.6005 15.0386C21.0146 15.6245 19.9991 15.214 19.9991 14.3746V12.4998H5.93836C5.68975 12.4998 5.45132 12.4011 5.27553 12.2253C5.09974 12.0495 5.00098 11.8111 5.00098 11.5625V10.9375C5.00098 10.6889 5.09974 10.4505 5.27553 10.2747C5.45132 10.0989 5.68975 10.0002 5.93836 10.0002H19.9991V8.12538C19.9991 7.29111 21.0107 6.87554 21.6005 7.4614L24.7251 10.588Z" fill="#DC241F"/>
</svg>
