<svg width="41" height="36" viewBox="0 0 41 36" fill="none" xmlns="http://www.w3.org/2000/svg">
<path opacity="0.4" d="M5.04384 27.9991C5.04384 28.2937 5.1609 28.5763 5.36926 28.7847C5.57762 28.9931 5.86022 29.1101 6.15489 29.1101H7.01527C7.64508 29.1107 8.25909 28.9129 8.77015 28.5449C9.28121 28.1768 9.66335 27.6571 9.86235 27.0595L10.5991 24.8457L11.7678 28.3504C12.0768 29.2851 13.3726 29.383 13.8149 28.4956L14.3489 27.4303C14.4115 27.2998 14.5102 27.19 14.6333 27.1138C14.7563 27.0377 14.8986 26.9983 15.0433 27.0005C15.1922 26.9995 15.3382 27.0418 15.4636 27.1222C15.5889 27.2025 15.6883 27.3175 15.7496 27.4533C15.9933 27.9438 16.3673 28.3579 16.8307 28.6501C17.294 28.9423 17.8288 29.1015 18.3765 29.1101H25.3901L27.265 27.222V34.1182C27.2644 34.3365 27.2209 34.5526 27.1368 34.7541C27.0528 34.9556 26.9299 35.1385 26.7751 35.2925C26.6203 35.4465 26.4368 35.5685 26.2349 35.6515C26.033 35.7345 25.8167 35.777 25.5984 35.7765H2.25787C2.03955 35.7759 1.82349 35.7324 1.622 35.6483C1.42052 35.5643 1.23756 35.4414 1.08358 35.2866C0.929595 35.1318 0.807601 34.9483 0.724563 34.7464C0.641524 34.5445 0.599067 34.3282 0.599615 34.1099V1.88091C0.600161 1.6626 0.643702 1.44653 0.727752 1.24505C0.811801 1.04356 0.934713 0.860608 1.08947 0.706625C1.24423 0.552642 1.4278 0.430648 1.6297 0.34761C1.8316 0.264571 2.04789 0.222114 2.2662 0.222661H18.3765V8.00005C18.3765 8.29472 18.4936 8.57733 18.7019 8.78569C18.9103 8.99405 19.1929 9.11111 19.4876 9.11111H27.265V17.6989L20.5986 24.3187V26.888H18.3765C18.2387 26.8747 18.1066 26.8263 17.9929 26.7472C17.8792 26.6682 17.7877 26.5612 17.7272 26.4366C16.8981 24.7798 14.5156 24.3291 13.1441 25.4534L12.1803 22.5618C12.0699 22.2297 11.8577 21.9407 11.5738 21.7359C11.29 21.5311 10.9488 21.4209 10.5988 21.4209C10.2487 21.4209 9.90759 21.5311 9.62371 21.7359C9.33984 21.9407 9.12765 22.2297 9.01725 22.5618L7.75204 26.3561C7.70041 26.5107 7.60152 26.6453 7.46932 26.7407C7.33713 26.8362 7.17831 26.8877 7.01527 26.888H6.15489C5.86022 26.888 5.57762 27.0051 5.36926 27.2134C5.1609 27.4218 5.04384 27.7044 5.04384 27.9991Z" fill="#DC241F"/>
<path d="M27.2654 8.68752C27.2654 8.46957 27.2224 8.25376 27.139 8.0524C27.0556 7.85104 26.9334 7.66808 26.7793 7.51397L19.981 0.708748C19.8259 0.554117 19.6417 0.431594 19.4392 0.348187C19.2366 0.264779 19.0196 0.222124 18.8005 0.222661H18.377V8.00005C18.377 8.29472 18.494 8.57732 18.7024 8.78569C18.9107 8.99405 19.1933 9.11111 19.488 9.11111H27.2654V8.68752ZM20.5991 24.3187V29.1101H25.3905L36.6169 17.8065L31.9033 13.0929L20.5991 24.3187ZM40.0813 11.8436L37.8683 9.63053C37.5365 9.29943 37.087 9.11348 36.6183 9.11348C36.1497 9.11348 35.7001 9.29943 35.3684 9.63053L33.4761 11.5228L38.1898 16.2365L40.082 14.3442C40.2463 14.18 40.3766 13.9851 40.4654 13.7705C40.5543 13.556 40.6 13.326 40.5999 13.0938C40.5999 12.8615 40.554 12.6316 40.4651 12.4171C40.3761 12.2026 40.2457 12.0077 40.0813 11.8436Z" fill="#DC241F"/>
</svg>
