<svg width="31" height="30" viewBox="0 0 31 30" fill="none" xmlns="http://www.w3.org/2000/svg">
<rect x="0.5" width="30" height="30" rx="10" fill="#FFF5F4"/>
<g clip-path="url(#clip0_30017_286170)">
<path opacity="0.4" d="M10.4023 20.4209C10.4877 20.3357 10.6022 20.286 10.7228 20.2821C10.8434 20.2781 10.9611 20.3201 11.0519 20.3995C12.1168 21.3365 13.442 21.9269 14.8509 22.0918C16.2598 22.2568 17.6855 21.9886 18.9381 21.323C20.1907 20.6573 21.2108 19.6258 21.8624 18.3659C22.5141 17.1059 22.7664 15.6773 22.5858 14.2703C22.4051 12.8634 21.8001 11.5449 20.8512 10.4904C19.9024 9.43597 18.6548 8.69563 17.2747 8.36802C15.8945 8.04042 14.4473 8.1411 13.1258 8.65664C11.8043 9.17219 10.6713 10.0781 9.87758 11.2538L8.03345 11.3419L8.17305 8.78665C9.09534 7.69996 10.2433 6.82721 11.537 6.2291C12.8308 5.63099 14.2393 5.32187 15.6646 5.32325C21.0844 5.32325 25.5039 9.74639 25.5 15.1662C25.496 20.5946 21.0939 24.994 15.6646 24.994C13.2289 24.9981 10.8789 24.0949 9.0729 22.4606L9.05347 22.4423C9.0091 22.3981 8.9739 22.3456 8.94988 22.2877C8.92586 22.2299 8.9135 22.1679 8.9135 22.1052C8.9135 22.0426 8.92586 21.9806 8.94988 21.9227C8.9739 21.8649 9.0091 21.8124 9.05347 21.7681L10.4023 20.4209Z" fill="#DC241F"/>
<path d="M5.97392 5.00586H7.87754C8.0031 5.01253 8.12092 5.06862 8.20526 5.16188C8.2896 5.25513 8.33361 5.37798 8.32767 5.50358L8.0334 11.3417L13.8847 11.0618H13.9077C14.0339 11.0618 14.1549 11.1119 14.2442 11.2011C14.3334 11.2904 14.3836 11.4114 14.3836 11.5377V13.4135C14.3836 13.5397 14.3334 13.6608 14.2442 13.75C14.1549 13.8393 14.0339 13.8894 13.9077 13.8894H5.97591C5.84969 13.8894 5.72864 13.8393 5.63939 13.75C5.55014 13.6608 5.5 13.5397 5.5 13.4135V5.48176C5.5 5.35589 5.54987 5.23514 5.63869 5.14595C5.72751 5.05676 5.84805 5.00638 5.97392 5.00586V5.00586Z" fill="#DC241F"/>
</g>
<defs>
<clipPath id="clip0_30017_286170">
<rect width="20" height="20" fill="white" transform="translate(5.5 5)"/>
</clipPath>
</defs>
</svg>
