<svg width="30" height="30" viewBox="0 0 30 30" fill="none" xmlns="http://www.w3.org/2000/svg">
<rect width="30" height="30" rx="10" fill="#FFF5F4"/>
<path opacity="0.4" d="M23.9746 11.8472L18.5135 11.0524L16.0722 6.1126C15.6352 5.2324 14.3677 5.2212 13.9274 6.1126L11.4861 11.0524L6.02501 11.8472C5.04481 11.9886 4.65228 13.1934 5.36271 13.8837L9.31448 17.7269L8.38167 23.1555C8.21302 24.1368 9.24807 24.8719 10.116 24.4125L14.9998 21.8492L19.8851 24.4122C20.753 24.8678 21.7881 24.1364 21.6194 23.1551L20.6866 17.7265L24.6384 13.8833C25.3473 13.1934 24.9548 11.9886 23.9746 11.8472ZM20.5832 14.4964L18.1188 16.8929L18.7019 20.2832C18.7161 20.3655 18.7069 20.4501 18.6755 20.5275C18.6441 20.6049 18.5916 20.6719 18.5241 20.7211C18.4566 20.7702 18.3766 20.7995 18.2933 20.8056C18.21 20.8117 18.1267 20.7943 18.0527 20.7555L14.9998 19.1518L11.9469 20.754C11.8729 20.7928 11.7896 20.8102 11.7063 20.8041C11.623 20.798 11.543 20.7687 11.4755 20.7196C11.408 20.6704 11.3555 20.6034 11.3241 20.526C11.2927 20.4486 11.2835 20.364 11.2976 20.2817L11.8808 16.8914L9.41821 14.4949C9.35852 14.4367 9.31625 14.363 9.29616 14.2821C9.27608 14.2012 9.27898 14.1163 9.30454 14.0369C9.33009 13.9576 9.37729 13.887 9.44081 13.833C9.50434 13.779 9.58167 13.7439 9.6641 13.7314L13.0722 13.2359L14.5983 10.1461C14.6353 10.0712 14.6925 10.0081 14.7634 9.96402C14.8344 9.91993 14.9163 9.89656 14.9998 9.89656C15.0833 9.89656 15.1652 9.91993 15.2361 9.96402C15.3071 10.0081 15.3643 10.0712 15.4013 10.1461L16.9274 13.2359L20.3355 13.7314C20.4181 13.7436 20.4956 13.7785 20.5594 13.8324C20.6232 13.8862 20.6706 13.9568 20.6964 14.0362C20.7221 14.1156 20.7252 14.2006 20.7052 14.2817C20.6852 14.3627 20.643 14.4366 20.5832 14.4949V14.4964Z" fill="#DC241F"/>
<path d="M20.5832 14.4938L18.1187 16.8904L18.7019 20.2806C18.7161 20.3629 18.7069 20.4476 18.6755 20.5249C18.6441 20.6023 18.5916 20.6694 18.5241 20.7185C18.4565 20.7677 18.3766 20.7969 18.2933 20.803C18.21 20.8091 18.1267 20.7918 18.0527 20.753L14.9998 19.1508L11.9469 20.753C11.8729 20.7918 11.7896 20.8091 11.7063 20.803C11.623 20.7969 11.543 20.7677 11.4755 20.7185C11.4079 20.6694 11.3555 20.6023 11.3241 20.5249C11.2926 20.4476 11.2835 20.3629 11.2976 20.2806L11.8808 16.8904L9.4182 14.4938C9.3585 14.4356 9.31623 14.3619 9.29615 14.281C9.27607 14.2001 9.27896 14.1152 9.30452 14.0359C9.33008 13.9565 9.37727 13.8859 9.4408 13.8319C9.50432 13.778 9.58166 13.7428 9.66409 13.7304L13.0722 13.2349L14.5983 10.145C14.6353 10.0701 14.6925 10.0071 14.7634 9.96297C14.8344 9.91888 14.9162 9.89551 14.9998 9.89551C15.0833 9.89551 15.1652 9.91888 15.2361 9.96297C15.3071 10.0071 15.3643 10.0701 15.4013 10.145L16.9273 13.2349L20.3355 13.7304C20.4181 13.7425 20.4956 13.7775 20.5594 13.8313C20.6231 13.8852 20.6706 13.9558 20.6964 14.0352C20.7221 14.1146 20.7252 14.1996 20.7052 14.2806C20.6852 14.3617 20.643 14.4355 20.5832 14.4938Z" fill="#DC241F"/>
</svg>
