<svg width="30" height="30" viewBox="0 0 30 30" fill="none" xmlns="http://www.w3.org/2000/svg">
<rect width="30" height="30" rx="10" fill="#FFF5F4"/>
<path opacity="0.4" d="M17.5 16.25H25V21.875C25 22.875 24.125 23.75 23.125 23.75H6.875C5.875 23.75 5 22.875 5 21.875V16.25H12.5V18.125C12.5 18.2908 12.5658 18.4497 12.6831 18.5669C12.8003 18.6842 12.9592 18.75 13.125 18.75H16.875C17.0408 18.75 17.1997 18.6842 17.3169 18.5669C17.4342 18.4497 17.5 18.2908 17.5 18.125V16.25Z" fill="#DC241F"/>
<path d="M23.125 10H20V8.125C20 7.125 19.125 6.25 18.125 6.25H11.875C10.875 6.25 10 7.125 10 8.125V10H6.875C5.875 10 5 10.875 5 11.875V15H25V11.875C25 10.875 24.125 10 23.125 10ZM17.5 10H12.5V8.75H17.5V10Z" fill="#DC241F"/>
</svg>
