<svg width="41" height="40" viewBox="0 0 41 40" fill="none" xmlns="http://www.w3.org/2000/svg">
<g clip-path="url(#clip0_43035_17527)">
<path opacity="0.4" d="M20.7998 0C9.75142 0 0.799805 8.95161 0.799805 20C0.799805 31.0484 9.75142 40 20.7998 40C31.8482 40 40.7998 31.0484 40.7998 20C40.7998 8.95161 31.8482 0 20.7998 0ZM19.5095 26.4516C19.5095 26.7938 19.3735 27.122 19.1316 27.364C18.8896 27.606 18.5614 27.7419 18.2192 27.7419H14.3482C14.006 27.7419 13.6778 27.606 13.4358 27.364C13.1938 27.122 13.0579 26.7938 13.0579 26.4516V13.5484C13.0579 13.2062 13.1938 12.878 13.4358 12.636C13.6778 12.394 14.006 12.2581 14.3482 12.2581H18.2192C18.5614 12.2581 18.8896 12.394 19.1316 12.636C19.3735 12.878 19.5095 13.2062 19.5095 13.5484V26.4516ZM28.5417 26.4516C28.5417 26.7938 28.4058 27.122 28.1638 27.364C27.9218 27.606 27.5936 27.7419 27.2514 27.7419H23.3804C23.0382 27.7419 22.71 27.606 22.4681 27.364C22.2261 27.122 22.0901 26.7938 22.0901 26.4516V13.5484C22.0901 13.2062 22.2261 12.878 22.4681 12.636C22.71 12.394 23.0382 12.2581 23.3804 12.2581H27.2514C27.5936 12.2581 27.9218 12.394 28.1638 12.636C28.4058 12.878 28.5417 13.2062 28.5417 13.5484V26.4516Z" fill="#DC241F"/>
<path d="M18.2189 12.2578H14.3479C14.0057 12.2578 13.6775 12.3938 13.4355 12.6357C13.1936 12.8777 13.0576 13.2059 13.0576 13.5481V26.4514C13.0576 26.7936 13.1936 27.1218 13.4355 27.3638C13.6775 27.6057 14.0057 27.7417 14.3479 27.7417H18.2189C18.5611 27.7417 18.8893 27.6057 19.1313 27.3638C19.3733 27.1218 19.5092 26.7936 19.5092 26.4514V13.5481C19.5092 13.2059 19.3733 12.8777 19.1313 12.6357C18.8893 12.3938 18.5611 12.2578 18.2189 12.2578ZM27.2512 12.2578H23.3802C23.038 12.2578 22.7098 12.3938 22.4678 12.6357C22.2258 12.8777 22.0899 13.2059 22.0899 13.5481V26.4514C22.0899 26.7936 22.2258 27.1218 22.4678 27.3638C22.7098 27.6057 23.038 27.7417 23.3802 27.7417H27.2512C27.5934 27.7417 27.9216 27.6057 28.1636 27.3638C28.4055 27.1218 28.5415 26.7936 28.5415 26.4514V13.5481C28.5415 13.2059 28.4055 12.8777 28.1636 12.6357C27.9216 12.3938 27.5934 12.2578 27.2512 12.2578Z" fill="#DC241F"/>
</g>
<defs>
<clipPath id="clip0_43035_17527">
<rect width="40" height="40" fill="white" transform="translate(0.799805)"/>
</clipPath>
</defs>
</svg>
