<svg width="30" height="30" viewBox="0 0 30 30" fill="none" xmlns="http://www.w3.org/2000/svg">
<rect width="30" height="30" rx="10" fill="#FFF5F4"/>
<g clip-path="url(#clip0_30017_286159)">
<path opacity="0.4" d="M24.9522 19.0895C24.937 18.9993 24.8904 18.9175 24.8206 18.8585C24.7508 18.7996 24.6623 18.7673 24.5709 18.7676H24.0552C23.9438 18.4539 23.7753 18.1636 23.5583 17.9112L23.8142 17.4643C23.8596 17.3853 23.8756 17.2928 23.8596 17.2031C23.8436 17.1134 23.7966 17.0321 23.7267 16.9736C23.4275 16.7247 23.0883 16.5282 22.7235 16.3923C22.6376 16.3598 22.5429 16.3589 22.4565 16.3898C22.37 16.4207 22.2973 16.4815 22.2516 16.5611L21.9953 17.008C21.6677 16.9486 21.3322 16.9486 21.0046 17.008L20.7483 16.5611C20.7026 16.4815 20.6299 16.4207 20.5434 16.3898C20.457 16.3589 20.3623 16.3598 20.2764 16.3923C19.912 16.5289 19.5729 16.7254 19.2732 16.9736C19.2027 17.0317 19.1552 17.113 19.1391 17.2029C19.1231 17.2928 19.1396 17.3855 19.1857 17.4643L19.4419 17.9112C19.2249 18.1636 19.0564 18.4539 18.945 18.7676H18.4293C18.3377 18.768 18.2491 18.8009 18.1793 18.8604C18.1095 18.9199 18.063 19.0021 18.0481 19.0926C17.984 19.4764 17.984 19.8682 18.0481 20.2521C18.0632 20.3422 18.1098 20.4241 18.1796 20.483C18.2495 20.542 18.338 20.5742 18.4293 20.574H18.945C19.0564 20.8876 19.2249 21.178 19.4419 21.4303L19.1857 21.8772C19.1403 21.9563 19.1243 22.0488 19.1403 22.1385C19.1563 22.2282 19.2033 22.3094 19.2732 22.3679C19.5724 22.6168 19.9116 22.8134 20.2764 22.9492C20.3623 22.9818 20.457 22.9827 20.5434 22.9518C20.6299 22.9208 20.7026 22.8601 20.7483 22.7805L21.0046 22.3335C21.3322 22.3929 21.6677 22.3929 21.9953 22.3335L22.2516 22.7805C22.2973 22.8601 22.37 22.9208 22.4565 22.9518C22.5429 22.9827 22.6376 22.9818 22.7235 22.9492C23.0879 22.8127 23.427 22.6162 23.7267 22.3679C23.7972 22.3099 23.8447 22.2286 23.8608 22.1387C23.8768 22.0488 23.8603 21.9561 23.8142 21.8772L23.558 21.4303C23.775 21.178 23.9435 20.8876 24.0549 20.574H24.5706C24.6622 20.5735 24.7508 20.5406 24.8206 20.4812C24.8904 20.4217 24.9369 20.3394 24.9518 20.249C25.016 19.8651 25.0161 19.4733 24.9522 19.0895ZM20.6767 20.4927C19.7517 19.2895 21.1237 17.9175 22.3269 18.8426C23.2517 20.0455 21.88 21.4175 20.6767 20.4924V20.4927ZM24.9522 9.74794C24.937 9.65781 24.8904 9.57597 24.8206 9.51701C24.7508 9.45805 24.6623 9.42581 24.5709 9.42603H24.0552C23.9438 9.11238 23.7753 8.82205 23.5583 8.5697L23.8145 8.12278C23.8599 8.04373 23.8759 7.95125 23.8599 7.86154C23.8439 7.77184 23.7969 7.69062 23.727 7.63211C23.4278 7.38319 23.0886 7.18665 22.7238 7.0508C22.6379 7.01812 22.5432 7.01713 22.4567 7.04801C22.3701 7.07888 22.2974 7.1396 22.2516 7.21926L21.9953 7.66617C21.6677 7.60679 21.3322 7.60679 21.0046 7.66617L20.7483 7.21926C20.7026 7.13961 20.6299 7.07888 20.5434 7.04795C20.457 7.01702 20.3623 7.01792 20.2764 7.05049C19.912 7.18705 19.5729 7.38352 19.2732 7.6318C19.2027 7.68986 19.1552 7.77112 19.1391 7.86103C19.1231 7.95094 19.1396 8.04362 19.1857 8.12247L19.4419 8.56939C19.2249 8.82174 19.0564 9.11207 18.945 9.42572H18.4293C18.3377 9.42619 18.2491 9.45907 18.1793 9.51855C18.1095 9.57804 18.063 9.66029 18.0481 9.75075C17.984 10.1346 17.984 10.5264 18.0481 10.9102C18.0632 11.0004 18.1098 11.0822 18.1796 11.1412C18.2495 11.2001 18.338 11.2324 18.4293 11.2321H18.945C19.0564 11.5458 19.2249 11.8361 19.4419 12.0885L19.1857 12.5354C19.1403 12.6144 19.1243 12.7069 19.1403 12.7966C19.1563 12.8863 19.2033 12.9676 19.2732 13.0261C19.5724 13.275 19.9116 13.4715 20.2764 13.6074C20.3623 13.6399 20.457 13.6408 20.5434 13.6099C20.6299 13.579 20.7026 13.5183 20.7483 13.4386L21.0046 12.9917C21.3322 13.0511 21.6677 13.0511 21.9953 12.9917L22.2516 13.4386C22.2973 13.5183 22.37 13.579 22.4565 13.6099C22.5429 13.6408 22.6376 13.6399 22.7235 13.6074C23.0879 13.4708 23.427 13.2743 23.7267 13.0261C23.7972 12.968 23.8447 12.8867 23.8608 12.7968C23.8768 12.7069 23.8603 12.6142 23.8142 12.5354L23.558 12.0885C23.775 11.8361 23.9435 11.5458 24.0549 11.2321H24.5706C24.6622 11.2317 24.7508 11.1988 24.8206 11.1393C24.8904 11.0798 24.9369 10.9976 24.9518 10.9071C25.016 10.5233 25.0161 10.1315 24.9522 9.74763V9.74794ZM20.6767 11.1543C19.7517 9.95108 21.1237 8.57595 22.3269 9.50417C23.2517 10.7071 21.88 12.0791 20.6767 11.154V11.1543Z" fill="#DC241F"/>
<path d="M18.1261 16.488L17.0732 15.9633C17.1951 15.3074 17.1951 14.6346 17.0732 13.9787L18.1264 13.4537C18.4421 13.2693 18.564 12.8849 18.439 12.5442C18.1608 11.7879 17.6295 11.0941 17.1232 10.4878C17.01 10.3533 16.853 10.2629 16.6799 10.2326C16.5067 10.2024 16.3284 10.234 16.1763 10.3221L15.2668 10.8472C14.7605 10.4145 14.1789 10.0786 13.551 9.85646V8.80636C13.5505 8.62944 13.4875 8.45839 13.3732 8.32343C13.2588 8.18846 13.1004 8.09827 12.9259 8.06879C12.1396 7.93697 11.3367 7.93802 10.5507 8.07191C10.3785 8.10282 10.2228 8.19337 10.1107 8.32767C9.99863 8.46197 9.93743 8.63144 9.93784 8.80636V9.85958C9.30939 10.0805 8.72756 10.4165 8.22204 10.8503L7.31258 10.3249C7.16048 10.2367 6.98213 10.205 6.80893 10.2353C6.63572 10.2656 6.47874 10.356 6.36561 10.4906C5.85932 11.0969 5.32489 11.7907 5.04674 12.547C4.9852 12.7125 4.98441 12.8944 5.04451 13.0604C5.10461 13.2264 5.22169 13.3657 5.37489 13.4534L6.41562 13.9815C6.29373 14.6364 6.29373 15.3081 6.41562 15.963L5.37489 16.488C5.22231 16.5772 5.10587 16.717 5.04589 16.8833C4.98592 17.0495 4.98622 17.2315 5.04674 17.3975C5.32489 18.1507 5.85932 18.8445 6.36561 19.4508C6.47882 19.5853 6.63578 19.6757 6.80896 19.706C6.98213 19.7362 7.16044 19.7046 7.31258 19.6165L8.22204 19.0945C8.72834 19.5273 9.30996 19.8631 9.93784 20.0853V21.1354C9.93831 21.3123 10.0013 21.4833 10.1157 21.6183C10.2301 21.7533 10.3885 21.8435 10.5629 21.8729C11.3479 22.0073 12.15 22.0073 12.935 21.8729C13.1079 21.8419 13.2644 21.751 13.3769 21.6161C13.4895 21.4812 13.551 21.311 13.5507 21.1354V20.0853C14.1791 19.8643 14.761 19.5284 15.2665 19.0945L16.1759 19.6196C16.328 19.7078 16.5064 19.7396 16.6796 19.7093C16.8528 19.679 17.0098 19.5886 17.1229 19.454C17.6292 18.8476 18.1761 18.1538 18.4543 17.3975C18.5156 17.2316 18.5163 17.0493 18.4563 16.8828C18.3962 16.7164 18.2793 16.5766 18.1261 16.488ZM13.3975 16.6224C10.9911 18.4726 8.24392 15.7255 10.0941 13.319C12.5006 11.4688 15.248 14.2159 13.3979 16.6224H13.3975Z" fill="#DC241F"/>
</g>
<defs>
<clipPath id="clip0_30017_286159">
<rect width="20" height="20" fill="white" transform="translate(5 5)"/>
</clipPath>
</defs>
</svg>
