<svg width="41" height="40" viewBox="0 0 41 40" fill="none" xmlns="http://www.w3.org/2000/svg">
<g clip-path="url(#clip0_43035_17499)">
<path opacity="0.4" d="M20.4004 4.44531C9.35457 4.44531 0.400409 13.3995 0.400409 24.4453C0.395666 27.9785 1.33191 31.4493 3.11291 34.5008C3.50249 35.1689 4.24485 35.5564 5.01846 35.5564H35.7823C36.5559 35.5564 37.2983 35.1689 37.6879 34.5008C39.4689 31.4493 40.4051 27.9785 40.4004 24.4453C40.4004 13.3995 31.4462 4.44531 20.4004 4.44531ZM31.7337 16.5571L24.1955 26.6078C24.6143 27.2831 24.839 28.0607 24.8447 28.8553C24.8505 29.6499 24.6371 30.4307 24.2282 31.112H16.5726C16.173 30.4393 15.9602 29.6721 15.956 28.8897C15.956 27.711 16.4242 26.5805 17.2577 25.747C18.0912 24.9135 19.2217 24.4453 20.4004 24.4453C20.7818 24.4502 21.1609 24.5048 21.5282 24.6078L29.0671 14.5557C29.3325 14.2021 29.7275 13.9684 30.1652 13.906C30.6029 13.8436 31.0475 13.9577 31.4011 14.2231C31.7547 14.4885 31.9884 14.8835 32.0508 15.3212C32.1132 15.7589 31.9991 16.2035 31.7337 16.5571V16.5571Z" fill="#DC241F"/>
<path d="M20.4005 24.4466C20.7819 24.4515 21.161 24.5061 21.5283 24.6091L29.0672 14.557C29.3326 14.2034 29.7276 13.9697 30.1653 13.9073C30.603 13.8449 31.0476 13.959 31.4012 14.2244C31.7548 14.4898 31.9885 14.8848 32.0509 15.3225C32.1133 15.7602 31.9992 16.2048 31.7338 16.5584L24.1956 26.6091C24.6144 27.2844 24.8391 28.062 24.8448 28.8566C24.8506 29.6512 24.6372 30.432 24.2283 31.1132H16.5727C16.1732 30.4405 15.9603 29.6734 15.9561 28.891C15.9561 27.7123 16.4243 26.5818 17.2578 25.7483C18.0913 24.9148 19.2218 24.4466 20.4005 24.4466Z" fill="#DC241F"/>
</g>
<defs>
<clipPath id="clip0_43035_17499">
<rect width="40" height="40" fill="white" transform="translate(0.400391)"/>
</clipPath>
</defs>
</svg>
