<svg width="31" height="30" viewBox="0 0 31 30" fill="none" xmlns="http://www.w3.org/2000/svg">
<rect x="0.5" width="30" height="30" rx="10" fill="#FFF5F4"/>
<g clip-path="url(#clip0_30017_286148)">
<path opacity="0.4" d="M15.5 5C9.97581 5 5.5 9.47581 5.5 15C5.5 20.5242 9.97581 25 15.5 25C21.0242 25 25.5 20.5242 25.5 15C25.5 9.47581 21.0242 5 15.5 5ZM20.4032 17.625C20.4483 17.67 20.4841 17.7234 20.5085 17.7822C20.533 17.841 20.5455 17.9041 20.5455 17.9677C20.5455 18.0314 20.533 18.0945 20.5085 18.1533C20.4841 18.2121 20.4483 18.2655 20.4032 18.3105L18.8065 19.9032C18.7615 19.9483 18.7081 19.9841 18.6493 20.0085C18.5905 20.033 18.5274 20.0455 18.4637 20.0455C18.4 20.0455 18.337 20.033 18.2782 20.0085C18.2193 19.9841 18.1659 19.9483 18.121 19.9032L15.5 17.2581L12.875 19.9032C12.83 19.9483 12.7766 19.9841 12.7178 20.0085C12.659 20.033 12.5959 20.0455 12.5323 20.0455C12.4686 20.0455 12.4055 20.033 12.3467 20.0085C12.2879 19.9841 12.2345 19.9483 12.1895 19.9032L10.5968 18.3065C10.5517 18.2615 10.5159 18.2081 10.4915 18.1493C10.467 18.0905 10.4545 18.0274 10.4545 17.9637C10.4545 17.9 10.467 17.837 10.4915 17.7782C10.5159 17.7193 10.5517 17.6659 10.5968 17.621L13.2419 15L10.5968 12.375C10.5517 12.33 10.5159 12.2766 10.4915 12.2178C10.467 12.159 10.4545 12.0959 10.4545 12.0323C10.4545 11.9686 10.467 11.9055 10.4915 11.8467C10.5159 11.7879 10.5517 11.7345 10.5968 11.6895L12.1935 10.0927C12.2385 10.0476 12.2919 10.0118 12.3507 9.98742C12.4095 9.963 12.4726 9.95042 12.5363 9.95042C12.6 9.95042 12.663 9.963 12.7218 9.98742C12.7807 10.0118 12.8341 10.0476 12.879 10.0927L15.5 12.7419L18.125 10.0968C18.17 10.0517 18.2234 10.0159 18.2822 9.99145C18.341 9.96703 18.4041 9.95446 18.4677 9.95446C18.5314 9.95446 18.5945 9.96703 18.6533 9.99145C18.7121 10.0159 18.7655 10.0517 18.8105 10.0968L20.4073 11.6935C20.4524 11.7385 20.4882 11.7919 20.5126 11.8507C20.537 11.9095 20.5496 11.9726 20.5496 12.0363C20.5496 12.1 20.537 12.163 20.5126 12.2218C20.4882 12.2807 20.4524 12.3341 20.4073 12.379L17.7581 15L20.4032 17.625Z" fill="#DC241F"/>
<path d="M20.4036 17.6238C20.4487 17.6687 20.4845 17.7222 20.5089 17.781C20.5333 17.8398 20.5459 17.9029 20.5459 17.9665C20.5459 18.0302 20.5333 18.0933 20.5089 18.1521C20.4845 18.2109 20.4487 18.2643 20.4036 18.3093L18.8068 19.902C18.7619 19.9471 18.7085 19.9829 18.6496 20.0073C18.5908 20.0318 18.5278 20.0443 18.4641 20.0443C18.4004 20.0443 18.3373 20.0318 18.2785 20.0073C18.2197 19.9829 18.1663 19.9471 18.1213 19.902L15.5004 17.2569L12.8754 19.902C12.8304 19.9471 12.777 19.9829 12.7182 20.0073C12.6594 20.0318 12.5963 20.0443 12.5326 20.0443C12.469 20.0443 12.4059 20.0318 12.3471 20.0073C12.2883 19.9829 12.2348 19.9471 12.1899 19.902L10.5972 18.3052C10.552 18.2603 10.5162 18.2069 10.4918 18.1481C10.4674 18.0892 10.4548 18.0262 10.4548 17.9625C10.4548 17.8988 10.4674 17.8358 10.4918 17.7769C10.5162 17.7181 10.552 17.6647 10.5972 17.6198L13.2423 14.9988L10.5972 12.3738C10.552 12.3288 10.5162 12.2754 10.4918 12.2166C10.4674 12.1578 10.4548 12.0947 10.4548 12.0311C10.4548 11.9674 10.4674 11.9043 10.4918 11.8455C10.5162 11.7867 10.552 11.7333 10.5972 11.6883L12.1939 10.0915C12.2389 10.0464 12.2923 10.0106 12.3511 9.98621C12.4099 9.96179 12.473 9.94922 12.5367 9.94922C12.6004 9.94922 12.6634 9.96179 12.7222 9.98621C12.781 10.0106 12.8345 10.0464 12.8794 10.0915L15.5004 12.7407L18.1254 10.0956C18.1703 10.0505 18.2237 10.0147 18.2826 9.99024C18.3414 9.96582 18.4044 9.95325 18.4681 9.95325C18.5318 9.95325 18.5949 9.96582 18.6537 9.99024C18.7125 10.0147 18.7659 10.0505 18.8109 10.0956L20.4076 11.6923C20.4527 11.7373 20.4885 11.7907 20.513 11.8495C20.5374 11.9083 20.55 11.9714 20.55 12.0351C20.55 12.0988 20.5374 12.1618 20.513 12.2206C20.4885 12.2795 20.4527 12.3329 20.4076 12.3778L17.7584 14.9988L20.4036 17.6238Z" fill="#DC241F"/>
</g>
<defs>
<clipPath id="clip0_30017_286148">
<rect width="20" height="20" fill="white" transform="translate(5.5 5)"/>
</clipPath>
</defs>
</svg>
