<svg width="20" height="20" viewBox="0 0 20 20" fill="none" xmlns="http://www.w3.org/2000/svg">
<path opacity="0.4" d="M20 8.33203V4.9987C20 4.55667 19.8244 4.13275 19.5118 3.82019C19.1993 3.50763 18.7754 3.33203 18.3333 3.33203H1.66667C1.22464 3.33203 0.800716 3.50763 0.488155 3.82019C0.175595 4.13275 0 4.55667 0 4.9987L0 8.33203C0.442028 8.33203 0.865951 8.50763 1.17851 8.82019C1.49107 9.13275 1.66667 9.55667 1.66667 9.9987C1.66667 10.4407 1.49107 10.8646 1.17851 11.1772C0.865951 11.4898 0.442028 11.6654 0 11.6654L0 14.9987C0 15.4407 0.175595 15.8646 0.488155 16.1772C0.800716 16.4898 1.22464 16.6654 1.66667 16.6654H18.3333C18.7754 16.6654 19.1993 16.4898 19.5118 16.1772C19.8244 15.8646 20 15.4407 20 14.9987V11.6654C19.558 11.6654 19.1341 11.4898 18.8215 11.1772C18.5089 10.8646 18.3333 10.4407 18.3333 9.9987C18.3333 9.55667 18.5089 9.13275 18.8215 8.82019C19.1341 8.50763 19.558 8.33203 20 8.33203ZM16.6667 14.4431H3.33333V5.55425H16.6667V14.4431Z" fill="#DC241F"/>
<path d="M16.6673 5.55469V14.4436H3.33398V5.55469H16.6673Z" fill="#DC241F"/>
</svg>
