<svg width="40" height="40" viewBox="0 0 40 40" fill="none" xmlns="http://www.w3.org/2000/svg">
<rect width="40" height="40" rx="10" fill="#F3F7FF"/>
<g clip-path="url(#clip0_39696_204184)">
<path opacity="0.4" d="M27.5 10H23.3333C24.2174 10 25.0652 10.3512 25.6904 10.9763C26.3155 11.6014 26.6667 12.4493 26.6667 13.3333H13.3333C13.3333 12.4493 13.6845 11.6014 14.3096 10.9763C14.9348 10.3512 15.7826 10 16.6667 10H12.5C11.837 10 11.2011 10.2634 10.7322 10.7322C10.2634 11.2011 10 11.837 10 12.5V30.8333C10 31.4964 10.2634 32.1323 10.7322 32.6011C11.2011 33.0699 11.837 33.3333 12.5 33.3333H27.5C28.163 33.3333 28.7989 33.0699 29.2678 32.6011C29.7366 32.1323 30 31.4964 30 30.8333V12.5C30 11.837 29.7366 11.2011 29.2678 10.7322C28.7989 10.2634 28.163 10 27.5 10ZM13.4167 19.2396L14.0781 18.5833C14.1041 18.5573 14.135 18.5367 14.1689 18.5226C14.2029 18.5085 14.2393 18.5013 14.276 18.5013C14.3128 18.5013 14.3492 18.5085 14.3832 18.5226C14.4171 18.5367 14.448 18.5573 14.474 18.5833L15.5469 19.6667L18.026 17.2083C18.052 17.1823 18.0829 17.1617 18.1168 17.1476C18.1508 17.1335 18.1872 17.1263 18.224 17.1263C18.2607 17.1263 18.2971 17.1335 18.3311 17.1476C18.365 17.1617 18.3959 17.1823 18.4219 17.2083L19.0781 17.8698C19.1041 17.8958 19.1248 17.9266 19.1389 17.9606C19.1529 17.9945 19.1602 18.0309 19.1602 18.0677C19.1602 18.1045 19.1529 18.1409 19.1389 18.1748C19.1248 18.2088 19.1041 18.2396 19.0781 18.2656L15.7344 21.5781C15.7084 21.6041 15.6775 21.6248 15.6436 21.6389C15.6096 21.6529 15.5732 21.6602 15.5365 21.6602C15.4997 21.6602 15.4633 21.6529 15.4293 21.6389C15.3954 21.6248 15.3645 21.6041 15.3385 21.5781L13.4167 19.6354C13.3907 19.6094 13.37 19.5786 13.3559 19.5446C13.3418 19.5107 13.3346 19.4743 13.3346 19.4375C13.3346 19.4007 13.3418 19.3643 13.3559 19.3304C13.37 19.2964 13.3907 19.2656 13.4167 19.2396ZM15 27.0833C14.7528 27.0833 14.5111 27.01 14.3055 26.8727C14.1 26.7353 13.9398 26.5401 13.8451 26.3117C13.7505 26.0833 13.7258 25.8319 13.774 25.5895C13.8222 25.347 13.9413 25.1243 14.1161 24.9494C14.2909 24.7746 14.5137 24.6556 14.7561 24.6073C14.9986 24.5591 15.2499 24.5839 15.4784 24.6785C15.7068 24.7731 15.902 24.9333 16.0393 25.1389C16.1767 25.3444 16.25 25.5861 16.25 25.8333C16.2504 25.9976 16.2184 26.1603 16.1557 26.3122C16.093 26.464 16.001 26.602 15.8848 26.7181C15.7686 26.8343 15.6307 26.9263 15.4788 26.989C15.327 27.0517 15.1643 27.0837 15 27.0833ZM26.6667 26.25C26.6667 26.3605 26.6228 26.4665 26.5446 26.5446C26.4665 26.6228 26.3605 26.6667 26.25 26.6667H18.75C18.6395 26.6667 18.5335 26.6228 18.4554 26.5446C18.3772 26.4665 18.3333 26.3605 18.3333 26.25V25.4167C18.3333 25.3062 18.3772 25.2002 18.4554 25.122C18.5335 25.0439 18.6395 25 18.75 25H26.25C26.3605 25 26.4665 25.0439 26.5446 25.122C26.6228 25.2002 26.6667 25.3062 26.6667 25.4167V26.25ZM26.6667 21.25C26.6667 21.4792 26.4427 21.6667 26.1667 21.6667H18.026L19.7083 20H26.1667C26.4427 20 26.6667 20.1875 26.6667 20.4167V21.25Z" fill="#749BFF"/>
<path d="M14.9999 24.5833C14.7527 24.5833 14.511 24.6567 14.3055 24.794C14.0999 24.9314 13.9397 25.1266 13.8451 25.355C13.7505 25.5834 13.7257 25.8347 13.7739 26.0772C13.8222 26.3197 13.9412 26.5424 14.116 26.7172C14.2909 26.892 14.5136 27.0111 14.7561 27.0593C14.9985 27.1076 15.2499 27.0828 15.4783 26.9882C15.7067 26.8936 15.9019 26.7334 16.0393 26.5278C16.1766 26.3223 16.2499 26.0806 16.2499 25.8333C16.2503 25.6691 16.2183 25.5064 16.1556 25.3545C16.0929 25.2027 16.0009 25.0647 15.8847 24.9485C15.7686 24.8324 15.6306 24.7403 15.4788 24.6777C15.3269 24.615 15.1642 24.5829 14.9999 24.5833ZM18.4218 17.2084C18.3958 17.1823 18.365 17.1617 18.331 17.1476C18.297 17.1335 18.2606 17.1263 18.2239 17.1263C18.1871 17.1263 18.1507 17.1335 18.1167 17.1476C18.0828 17.1617 18.0519 17.1823 18.026 17.2084L15.5468 19.6667L14.4739 18.5834C14.4479 18.5573 14.417 18.5367 14.3831 18.5226C14.3491 18.5085 14.3127 18.5013 14.276 18.5013C14.2392 18.5013 14.2028 18.5085 14.1688 18.5226C14.1349 18.5367 14.104 18.5573 14.078 18.5834L13.4166 19.2396C13.3906 19.2656 13.3699 19.2964 13.3558 19.3304C13.3418 19.3643 13.3345 19.4008 13.3345 19.4375C13.3345 19.4743 13.3418 19.5107 13.3558 19.5446C13.3699 19.5786 13.3906 19.6095 13.4166 19.6354L15.3385 21.5781C15.3644 21.6042 15.3953 21.6248 15.4292 21.6389C15.4632 21.653 15.4996 21.6602 15.5364 21.6602C15.5731 21.6602 15.6095 21.653 15.6435 21.6389C15.6775 21.6248 15.7083 21.6042 15.7343 21.5781L19.078 18.2656C19.1041 18.2397 19.1247 18.2088 19.1388 18.1749C19.1529 18.1409 19.1601 18.1045 19.1601 18.0677C19.1601 18.031 19.1529 17.9946 19.1388 17.9606C19.1247 17.9266 19.1041 17.8958 19.078 17.8698L18.4218 17.2084ZM23.3333 10C23.3333 9.11596 22.9821 8.26812 22.3569 7.643C21.7318 7.01788 20.884 6.66669 19.9999 6.66669C19.1159 6.66669 18.268 7.01788 17.6429 7.643C17.0178 8.26812 16.6666 9.11596 16.6666 10C15.7825 10 14.9347 10.3512 14.3096 10.9763C13.6844 11.6015 13.3333 12.4493 13.3333 13.3334H26.6666C26.6666 12.4493 26.3154 11.6015 25.6903 10.9763C25.0652 10.3512 24.2173 10 23.3333 10ZM19.9999 11.25C19.7527 11.25 19.511 11.1767 19.3055 11.0394C19.0999 10.902 18.9397 10.7068 18.8451 10.4784C18.7505 10.25 18.7257 9.99863 18.7739 9.75616C18.8222 9.51368 18.9412 9.29095 19.116 9.11614C19.2908 8.94132 19.5136 8.82227 19.7561 8.77404C19.9985 8.72581 20.2499 8.75056 20.4783 8.84517C20.7067 8.93978 20.9019 9.1 21.0393 9.30556C21.1766 9.51112 21.2499 9.75279 21.2499 10C21.2503 10.1643 21.2183 10.327 21.1556 10.4789C21.0929 10.6307 21.0009 10.7687 20.8847 10.8848C20.7686 11.001 20.6306 11.093 20.4788 11.1557C20.3269 11.2184 20.1642 11.2504 19.9999 11.25Z" fill="#749BFF"/>
</g>
<defs>
<clipPath id="clip0_39696_204184">
<rect width="26.6667" height="26.6667" fill="white" transform="translate(6.66675 6.66669)"/>
</clipPath>
</defs>
</svg>
