<svg width="120" height="16" viewBox="0 0 120 16" fill="none" xmlns="http://www.w3.org/2000/svg">
<path d="M1.196 13C1.10933 13 1.066 12.9567 1.066 12.87V4.03C1.066 3.94333 1.10933 3.9 1.196 3.9H4.342C5.24333 3.9 5.96267 4.13833 6.5 4.615C7.03733 5.083 7.306 5.71133 7.306 6.5V10.4C7.306 11.1887 7.03733 11.8213 6.5 12.298C5.96267 12.766 5.24333 13 4.342 13H1.196ZM2.314 11.869C2.314 11.9037 2.33133 11.921 2.366 11.921H4.394C4.89667 11.921 5.29533 11.7693 5.59 11.466C5.89333 11.154 6.04933 10.738 6.058 10.218V6.682C6.058 6.162 5.90633 5.75033 5.603 5.447C5.30833 5.135 4.90533 4.979 4.394 4.979H2.366C2.33133 4.979 2.314 4.99633 2.314 5.031V11.869ZM14.3021 8.866C14.3368 9.22133 14.3498 9.62 14.3411 10.062C14.3411 10.1487 14.2978 10.192 14.2111 10.192H10.0641C10.0295 10.192 10.0121 10.2093 10.0121 10.244C10.0121 10.5387 10.0381 10.764 10.0901 10.92C10.1855 11.2667 10.3761 11.5397 10.6621 11.739C10.9568 11.9297 11.3251 12.025 11.7671 12.025C12.4085 12.025 12.9025 11.7607 13.2491 11.232C13.2925 11.1453 13.3488 11.1323 13.4181 11.193L14.1591 11.687C14.2198 11.739 14.2328 11.7953 14.1981 11.856C13.9555 12.246 13.6088 12.5537 13.1581 12.779C12.7161 13.0043 12.2135 13.117 11.6501 13.117C11.0175 13.117 10.4845 12.9783 10.0511 12.701C9.6178 12.4237 9.2928 12.0293 9.07613 11.518C8.86813 11.0067 8.76413 10.387 8.76413 9.659C8.76413 9.02633 8.8118 8.54533 8.90713 8.216C9.06313 7.618 9.37513 7.14567 9.84313 6.799C10.3111 6.45233 10.8788 6.279 11.5461 6.279C12.4215 6.279 13.0758 6.5 13.5091 6.942C13.9425 7.37533 14.2068 8.01667 14.3021 8.866ZM11.5461 7.358C11.1735 7.358 10.8658 7.45333 10.6231 7.644C10.3805 7.826 10.2158 8.073 10.1291 8.385C10.0685 8.57567 10.0295 8.81833 10.0121 9.113C10.0121 9.14767 10.0295 9.165 10.0641 9.165H13.0411C13.0758 9.165 13.0931 9.14767 13.0931 9.113C13.0758 8.827 13.0498 8.61467 13.0151 8.476C12.9285 8.138 12.7551 7.86933 12.4951 7.67C12.2438 7.462 11.9275 7.358 11.5461 7.358ZM19.0773 7.28C19.0773 7.36667 19.034 7.41 18.9473 7.41H17.5433C17.5086 7.41 17.4913 7.42733 17.4913 7.462V10.907C17.4913 11.271 17.5736 11.5353 17.7383 11.7C17.903 11.856 18.1586 11.934 18.5053 11.934H18.8823C18.969 11.934 19.0123 11.9773 19.0123 12.064V12.87C19.0123 12.9567 18.969 13 18.8823 13C18.605 13.0173 18.4056 13.026 18.2843 13.026C17.6256 13.026 17.1273 12.909 16.7893 12.675C16.46 12.4323 16.2953 11.9903 16.2953 11.349V7.462C16.2953 7.42733 16.278 7.41 16.2433 7.41H15.4503C15.3636 7.41 15.3203 7.36667 15.3203 7.28V6.513C15.3203 6.42633 15.3636 6.383 15.4503 6.383H16.2433C16.278 6.383 16.2953 6.36567 16.2953 6.331V4.797C16.2953 4.71033 16.3386 4.667 16.4253 4.667H17.3613C17.448 4.667 17.4913 4.71033 17.4913 4.797V6.331C17.4913 6.36567 17.5086 6.383 17.5433 6.383H18.9473C19.034 6.383 19.0773 6.42633 19.0773 6.513V7.28ZM23.0311 6.279C23.5598 6.279 24.0191 6.37433 24.4091 6.565C24.8078 6.747 25.1111 7.007 25.3191 7.345C25.5358 7.67433 25.6441 8.05133 25.6441 8.476V12.87C25.6441 12.9567 25.6008 13 25.5141 13H24.5261C24.4395 13 24.3961 12.9567 24.3961 12.87V12.402C24.3961 12.3587 24.3745 12.35 24.3311 12.376C24.1058 12.61 23.8285 12.792 23.4991 12.922C23.1785 13.0433 22.8188 13.104 22.4201 13.104C21.7788 13.104 21.2458 12.9437 20.8211 12.623C20.4051 12.2937 20.1971 11.7997 20.1971 11.141C20.1971 10.465 20.4311 9.93633 20.8991 9.555C21.3758 9.165 22.0388 8.97 22.8881 8.97H24.3441C24.3788 8.97 24.3961 8.95267 24.3961 8.918V8.567C24.3961 8.18567 24.2835 7.891 24.0581 7.683C23.8415 7.46633 23.5078 7.358 23.0571 7.358C22.6931 7.358 22.3941 7.43167 22.1601 7.579C21.9348 7.71767 21.7961 7.90833 21.7441 8.151C21.7181 8.23767 21.6661 8.27667 21.5881 8.268L20.5351 8.125C20.4485 8.10767 20.4095 8.073 20.4181 8.021C20.4875 7.50967 20.7605 7.09367 21.2371 6.773C21.7138 6.44367 22.3118 6.279 23.0311 6.279ZM22.6931 12.051C23.1525 12.051 23.5511 11.9297 23.8891 11.687C24.2271 11.4443 24.3961 11.1367 24.3961 10.764V9.997C24.3961 9.96233 24.3788 9.945 24.3441 9.945H23.1221C22.6108 9.945 22.2035 10.0447 21.9001 10.244C21.5968 10.4433 21.4451 10.7207 21.4451 11.076C21.4451 11.3967 21.5578 11.6393 21.7831 11.804C22.0171 11.9687 22.3205 12.051 22.6931 12.051ZM28.0829 5.343C27.8403 5.343 27.6409 5.265 27.4849 5.109C27.3289 4.953 27.2509 4.75367 27.2509 4.511C27.2509 4.26833 27.3289 4.069 27.4849 3.913C27.6409 3.757 27.8403 3.679 28.0829 3.679C28.3256 3.679 28.5249 3.757 28.6809 3.913C28.8369 4.069 28.9149 4.26833 28.9149 4.511C28.9149 4.75367 28.8369 4.953 28.6809 5.109C28.5249 5.265 28.3256 5.343 28.0829 5.343ZM27.5629 12.987C27.4763 12.987 27.4329 12.9437 27.4329 12.857V6.513C27.4329 6.42633 27.4763 6.383 27.5629 6.383H28.5509C28.6376 6.383 28.6809 6.42633 28.6809 6.513V12.857C28.6809 12.9437 28.6376 12.987 28.5509 12.987H27.5629ZM30.7724 13C30.6858 13 30.6424 12.9567 30.6424 12.87V4.03C30.6424 3.94333 30.6858 3.9 30.7724 3.9H31.7604C31.8471 3.9 31.8904 3.94333 31.8904 4.03V12.87C31.8904 12.9567 31.8471 13 31.7604 13H30.7724Z" fill="black"/>
<path d="M107.333 8H116.667" stroke="#DC241F" stroke-width="2" stroke-linecap="round" stroke-linejoin="round"/>
<path d="M112 3.33325L116.667 7.99992L112 12.6666" stroke="#DC241F" stroke-width="2" stroke-linecap="round" stroke-linejoin="round"/>
</svg>
