<svg width="20" height="20" viewBox="0 0 20 20" fill="none" xmlns="http://www.w3.org/2000/svg">
<path opacity="0.4" d="M10 0C4.47581 0 0 4.47581 0 10C0 15.5242 4.47581 20 10 20C15.5242 20 20 15.5242 20 10C20 4.47581 15.5242 0 10 0ZM14.9032 12.625C14.9483 12.67 14.9841 12.7234 15.0085 12.7822C15.033 12.841 15.0455 12.9041 15.0455 12.9677C15.0455 13.0314 15.033 13.0945 15.0085 13.1533C14.9841 13.2121 14.9483 13.2655 14.9032 13.3105L13.3065 14.9032C13.2615 14.9483 13.2081 14.9841 13.1493 15.0085C13.0905 15.033 13.0274 15.0455 12.9637 15.0455C12.9 15.0455 12.837 15.033 12.7782 15.0085C12.7193 14.9841 12.6659 14.9483 12.621 14.9032L10 12.2581L7.375 14.9032C7.33005 14.9483 7.27663 14.9841 7.21781 15.0085C7.159 15.033 7.09594 15.0455 7.03226 15.0455C6.96857 15.0455 6.90552 15.033 6.8467 15.0085C6.78788 14.9841 6.73447 14.9483 6.68952 14.9032L5.09677 13.3065C5.05166 13.2615 5.01587 13.2081 4.99145 13.1493C4.96703 13.0905 4.95446 13.0274 4.95446 12.9637C4.95446 12.9 4.96703 12.837 4.99145 12.7782C5.01587 12.7193 5.05166 12.6659 5.09677 12.621L7.74194 10L5.09677 7.375C5.05166 7.33005 5.01587 7.27663 4.99145 7.21781C4.96703 7.159 4.95446 7.09594 4.95446 7.03226C4.95446 6.96857 4.96703 6.90552 4.99145 6.8467C5.01587 6.78788 5.05166 6.73447 5.09677 6.68952L6.69355 5.09274C6.7385 5.04763 6.79192 5.01184 6.85073 4.98742C6.90955 4.963 6.97261 4.95042 7.03629 4.95042C7.09997 4.95042 7.16303 4.963 7.22185 4.98742C7.28066 5.01184 7.33408 5.04763 7.37903 5.09274L10 7.74194L12.625 5.09677C12.67 5.05166 12.7234 5.01587 12.7822 4.99145C12.841 4.96703 12.9041 4.95446 12.9677 4.95446C13.0314 4.95446 13.0945 4.96703 13.1533 4.99145C13.2121 5.01587 13.2655 5.05166 13.3105 5.09677L14.9073 6.69355C14.9524 6.7385 14.9882 6.79192 15.0126 6.85073C15.037 6.90955 15.0496 6.97261 15.0496 7.03629C15.0496 7.09997 15.037 7.16303 15.0126 7.22185C14.9882 7.28066 14.9524 7.33408 14.9073 7.37903L12.2581 10L14.9032 12.625Z" fill="#FF6A6A"/>
</svg>
