<svg width="16" height="16" viewBox="0 0 16 16" fill="none" xmlns="http://www.w3.org/2000/svg">
<path opacity="0.4" d="M13.25 2.35575e-06H2.75C2.65144 -0.000244975 2.5538 0.0189855 2.4627 0.056589C2.37159 0.0941924 2.28881 0.149428 2.21912 0.219121C2.14943 0.288814 2.09419 0.371592 2.05659 0.462697C2.01899 0.553803 1.99976 0.651442 2 0.750002V15.25C1.99976 15.3486 2.01899 15.4462 2.05659 15.5373C2.09419 15.6284 2.14943 15.7112 2.21912 15.7809C2.28881 15.8506 2.37159 15.9058 2.4627 15.9434C2.5538 15.981 2.65144 16.0002 2.75 16H13.25C13.3486 16.0002 13.4462 15.981 13.5373 15.9434C13.6284 15.9058 13.7112 15.8506 13.7809 15.7809C13.8506 15.7112 13.9058 15.6284 13.9434 15.5373C13.981 15.4462 14.0003 15.3486 14 15.25V0.750002C14.0003 0.651442 13.981 0.553803 13.9434 0.462697C13.9058 0.371592 13.8506 0.288814 13.7809 0.219121C13.7112 0.149428 13.6284 0.0941924 13.5373 0.056589C13.4462 0.0189855 13.3486 -0.000244975 13.25 2.35575e-06ZM7.05313 6.325L7.44689 6.72188C7.4625 6.73746 7.47488 6.75597 7.48333 6.77635C7.49178 6.79673 7.49613 6.81857 7.49613 6.84063C7.49613 6.86269 7.49178 6.88453 7.48333 6.9049C7.47488 6.92528 7.4625 6.94379 7.44689 6.95938L5.44063 8.94688C5.42505 8.96249 5.40654 8.97487 5.38616 8.98332C5.36578 8.99177 5.34394 8.99612 5.32188 8.99612C5.29982 8.99612 5.27798 8.99177 5.25761 8.98332C5.23723 8.97487 5.21872 8.96249 5.20313 8.94688L4.05001 7.78125C4.0344 7.76567 4.02201 7.74716 4.01356 7.72678C4.00511 7.7064 4.00077 7.68456 4.00077 7.6625C4.00077 7.64044 4.00511 7.6186 4.01356 7.59823C4.02201 7.57785 4.0344 7.55934 4.05001 7.54375L4.44688 7.15C4.46247 7.13439 4.48098 7.12201 4.50135 7.11356C4.52173 7.10511 4.54357 7.10076 4.56563 7.10076C4.58769 7.10076 4.60953 7.10511 4.62991 7.11356C4.65028 7.12201 4.6688 7.13439 4.68438 7.15L5.32813 7.8L6.81564 6.325C6.83122 6.30939 6.84973 6.29701 6.87011 6.28856C6.89048 6.28011 6.91233 6.27576 6.93438 6.27576C6.95644 6.27576 6.97829 6.28011 6.99866 6.28856C7.01904 6.29701 7.03755 6.30939 7.05313 6.325ZM4.00001 3.5C4.00001 3.36739 4.05268 3.24022 4.14645 3.14645C4.24022 3.05268 4.3674 3 4.50001 3H5.50001C5.63262 3 5.75979 3.05268 5.85356 3.14645C5.94733 3.24022 6.00001 3.36739 6.00001 3.5V4.5C6.00001 4.63261 5.94733 4.75979 5.85356 4.85356C5.75979 4.94732 5.63262 5 5.50001 5H4.50001C4.3674 5 4.24022 4.94732 4.14645 4.85356C4.05268 4.75979 4.00001 4.63261 4.00001 4.5V3.5ZM6.00001 12.5C6.00001 12.6326 5.94733 12.7598 5.85356 12.8536C5.75979 12.9473 5.63262 13 5.50001 13H4.50001C4.3674 13 4.24022 12.9473 4.14645 12.8536C4.05268 12.7598 4.00001 12.6326 4.00001 12.5V11.5C4.00001 11.3674 4.05268 11.2402 4.14645 11.1464C4.24022 11.0527 4.3674 11 4.50001 11H5.50001C5.63262 11 5.75979 11.0527 5.85356 11.1464C5.94733 11.2402 6.00001 11.3674 6.00001 11.5V12.5ZM12 12.25C12 12.3163 11.9737 12.3799 11.9268 12.4268C11.8799 12.4737 11.8163 12.5 11.75 12.5H7.25001C7.18371 12.5 7.12012 12.4737 7.07323 12.4268C7.02635 12.3799 7.00001 12.3163 7.00001 12.25V11.75C7.00001 11.6837 7.02635 11.6201 7.07323 11.5732C7.12012 11.5263 7.18371 11.5 7.25001 11.5H11.75C11.8163 11.5 11.8799 11.5263 11.9268 11.5732C11.9737 11.6201 12 11.6837 12 11.75V12.25ZM11.7 8.5H7.31876C7.31876 8.5 8.23126 7.55625 8.26876 7.5H11.6969C11.8625 7.5 11.9969 7.6125 11.9969 7.75V8.25H12C12 8.3875 11.8656 8.5 11.7 8.5ZM12 4.25C12 4.31631 11.9737 4.3799 11.9268 4.42678C11.8799 4.47366 11.8163 4.5 11.75 4.5H7.25001C7.18371 4.5 7.12012 4.47366 7.07323 4.42678C7.02635 4.3799 7.00001 4.31631 7.00001 4.25V3.75C7.00001 3.6837 7.02635 3.62011 7.07323 3.57323C7.12012 3.52634 7.18371 3.5 7.25001 3.5H11.75C11.8163 3.5 11.8799 3.52634 11.9268 3.57323C11.9737 3.62011 12 3.6837 12 3.75V4.25Z" fill="#8D98B4"/>
<path d="M4.5 5H5.5C5.63261 5 5.75979 4.94732 5.85355 4.85355C5.94732 4.75979 6 4.63261 6 4.5V3.5C6 3.36739 5.94732 3.24021 5.85355 3.14645C5.75979 3.05268 5.63261 3 5.5 3H4.5C4.36739 3 4.24021 3.05268 4.14645 3.14645C4.05268 3.24021 4 3.36739 4 3.5V4.5C4 4.63261 4.05268 4.75979 4.14645 4.85355C4.24021 4.94732 4.36739 5 4.5 5ZM7.44688 6.72188L7.05312 6.325C7.03754 6.30939 7.01903 6.29701 6.99865 6.28856C6.97828 6.28011 6.95643 6.27576 6.93437 6.27576C6.91232 6.27576 6.89047 6.28011 6.8701 6.28856C6.84972 6.29701 6.83121 6.30939 6.81563 6.325L5.32812 7.8L4.68438 7.15C4.66879 7.13439 4.65028 7.12201 4.6299 7.11356C4.60953 7.10511 4.58768 7.10076 4.56562 7.10076C4.54357 7.10076 4.52172 7.10511 4.50135 7.11356C4.48097 7.12201 4.46246 7.13439 4.44688 7.15L4.05 7.54375C4.03439 7.55934 4.02201 7.57785 4.01356 7.59822C4.00511 7.6186 4.00076 7.64044 4.00076 7.6625C4.00076 7.68456 4.00511 7.7064 4.01356 7.72678C4.02201 7.74715 4.03439 7.76566 4.05 7.78125L5.20312 8.94687C5.21871 8.96248 5.23722 8.97487 5.2576 8.98332C5.27797 8.99177 5.29982 8.99611 5.32188 8.99611C5.34393 8.99611 5.36578 8.99177 5.38615 8.98332C5.40653 8.97487 5.42504 8.96248 5.44062 8.94687L7.44688 6.95937C7.46248 6.94379 7.47487 6.92528 7.48332 6.9049C7.49177 6.88453 7.49611 6.86268 7.49611 6.84062C7.49611 6.81857 7.49177 6.79672 7.48332 6.77635C7.47487 6.75597 7.46248 6.73746 7.44688 6.72188ZM5.5 11H4.5C4.36739 11 4.24021 11.0527 4.14645 11.1464C4.05268 11.2402 4 11.3674 4 11.5V12.5C4 12.6326 4.05268 12.7598 4.14645 12.8536C4.24021 12.9473 4.36739 13 4.5 13H5.5C5.63261 13 5.75979 12.9473 5.85355 12.8536C5.94732 12.7598 6 12.6326 6 12.5V11.5C6 11.3674 5.94732 11.2402 5.85355 11.1464C5.75979 11.0527 5.63261 11 5.5 11Z" fill="#8D98B4"/>
</svg>
