<svg width="30" height="30" viewBox="0 0 30 30" fill="none" xmlns="http://www.w3.org/2000/svg">
<rect width="30" height="30" rx="10" fill="#FFF5F4"/>
<path opacity="0.4" d="M23.9746 11.8462L18.5135 11.0514L16.0722 6.11162C15.6352 5.23142 14.3677 5.22023 13.9274 6.11162L11.4861 11.0514L6.02501 11.8462C5.04481 11.9876 4.65228 13.1924 5.36271 13.8827L9.31448 17.7259L8.38167 23.1545C8.21302 24.1358 9.24807 24.8709 10.116 24.4116L14.9998 21.8482L19.8851 24.4112C20.753 24.8668 21.7881 24.1354 21.6194 23.1541L20.6866 17.7255L24.6384 13.8823C25.3473 13.1924 24.9548 11.9876 23.9746 11.8462ZM20.5832 14.4954L18.1188 16.892L18.7019 20.2822C18.7161 20.3645 18.7069 20.4491 18.6755 20.5265C18.6441 20.6039 18.5916 20.6709 18.5241 20.7201C18.4566 20.7692 18.3766 20.7985 18.2933 20.8046C18.21 20.8107 18.1267 20.7934 18.0527 20.7546L14.9998 19.1509L11.9469 20.7531C11.8729 20.7919 11.7896 20.8092 11.7063 20.8031C11.623 20.797 11.543 20.7677 11.4755 20.7186C11.408 20.6695 11.3555 20.6024 11.3241 20.525C11.2927 20.4476 11.2835 20.363 11.2976 20.2807L11.8808 16.8905L9.41821 14.4939C9.35852 14.4357 9.31625 14.362 9.29616 14.2811C9.27608 14.2002 9.27898 14.1153 9.30454 14.036C9.33009 13.9566 9.37729 13.886 9.44081 13.832C9.50434 13.778 9.58167 13.7429 9.6641 13.7305L13.0722 13.235L14.5983 10.1451C14.6353 10.0702 14.6925 10.0071 14.7634 9.96304C14.8344 9.91895 14.9163 9.89558 14.9998 9.89558C15.0833 9.89558 15.1652 9.91895 15.2361 9.96304C15.3071 10.0071 15.3643 10.0702 15.4013 10.1451L16.9274 13.235L20.3355 13.7305C20.4181 13.7426 20.4956 13.7775 20.5594 13.8314C20.6232 13.8853 20.6706 13.9559 20.6964 14.0353C20.7221 14.1147 20.7252 14.1997 20.7052 14.2807C20.6852 14.3617 20.643 14.4356 20.5832 14.4939V14.4954Z" fill="#DC241F"/>
<path d="M20.5835 14.4928L18.119 16.8894L18.7022 20.2796C18.7163 20.362 18.7072 20.4466 18.6757 20.524C18.6443 20.6014 18.5919 20.6684 18.5243 20.7175C18.4568 20.7667 18.3768 20.796 18.2935 20.802C18.2102 20.8081 18.1269 20.7908 18.0529 20.752L15 19.1498L11.9471 20.752C11.8731 20.7908 11.7898 20.8081 11.7065 20.802C11.6232 20.796 11.5433 20.7667 11.4757 20.7175C11.4082 20.6684 11.3557 20.6014 11.3243 20.524C11.2929 20.4466 11.2837 20.362 11.2979 20.2796L11.8811 16.8894L9.41844 14.4928C9.35874 14.4347 9.31648 14.361 9.29639 14.2801C9.27631 14.1992 9.27921 14.1143 9.30476 14.0349C9.33032 13.9556 9.37752 13.8849 9.44104 13.831C9.50457 13.777 9.5819 13.7418 9.66433 13.7294L13.0725 13.2339L14.5985 10.1441C14.6355 10.0692 14.6927 10.0061 14.7637 9.962C14.8346 9.9179 14.9165 9.89453 15 9.89453C15.0836 9.89453 15.1654 9.9179 15.2364 9.962C15.3073 10.0061 15.3645 10.0692 15.4015 10.1441L16.9276 13.2339L20.3357 13.7294C20.4183 13.7415 20.4959 13.7765 20.5596 13.8304C20.6234 13.8842 20.6708 13.9548 20.6966 14.0342C20.7224 14.1136 20.7254 14.1986 20.7054 14.2797C20.6854 14.3607 20.6432 14.4345 20.5835 14.4928Z" fill="#DC241F"/>
</svg>
