<svg width="31" height="30" viewBox="0 0 31 30" fill="none" xmlns="http://www.w3.org/2000/svg">
<rect x="0.5" width="30" height="30" rx="10" fill="#FFF5F4"/>
<g clip-path="url(#clip0_30034_168074)">
<path opacity="0.4" d="M10.402 20.42C10.4874 20.3347 10.602 20.2851 10.7226 20.2811C10.8432 20.2771 10.9608 20.3191 11.0516 20.3985C12.1166 21.3356 13.4418 21.9259 14.8506 22.0909C16.2595 22.2558 17.6852 21.9876 18.9378 21.322C20.1905 20.6563 21.2105 19.6248 21.8622 18.3649C22.5139 17.1049 22.7662 15.6763 22.5855 14.2694C22.4049 12.8624 21.7998 11.5439 20.851 10.4894C19.9022 9.43499 18.6546 8.69465 17.2744 8.36705C15.8943 8.03944 14.4471 8.14012 13.1256 8.65567C11.8041 9.17122 10.671 10.0772 9.87734 11.2528L8.0332 11.3409L8.1728 8.78567C9.09509 7.69898 10.243 6.82623 11.5368 6.22812C12.8305 5.63001 14.239 5.3209 15.6643 5.32227C21.0841 5.32227 25.5037 9.74541 25.4997 15.1652C25.4957 20.5937 21.0936 24.993 15.6643 24.993C13.2286 24.9971 10.8787 24.0939 9.07266 22.4596L9.05323 22.4414C9.00886 22.3972 8.97366 22.3446 8.94964 22.2868C8.92562 22.2289 8.91325 22.1669 8.91325 22.1043C8.91325 22.0416 8.92562 21.9796 8.94964 21.9218C8.97366 21.8639 9.00886 21.8114 9.05323 21.7672L10.402 20.42Z" fill="#DC241F"/>
<path d="M5.97392 5.00586H7.87754C8.0031 5.01253 8.12092 5.06862 8.20526 5.16188C8.2896 5.25513 8.33361 5.37798 8.32767 5.50358L8.0334 11.3417L13.8847 11.0618H13.9077C14.0339 11.0618 14.1549 11.1119 14.2442 11.2011C14.3334 11.2904 14.3836 11.4114 14.3836 11.5377V13.4135C14.3836 13.5397 14.3334 13.6608 14.2442 13.75C14.1549 13.8393 14.0339 13.8894 13.9077 13.8894H5.97591C5.84969 13.8894 5.72864 13.8393 5.63939 13.75C5.55014 13.6608 5.5 13.5397 5.5 13.4135V5.48176C5.5 5.35589 5.54987 5.23514 5.63869 5.14595C5.72751 5.05676 5.84805 5.00638 5.97392 5.00586V5.00586Z" fill="#DC241F"/>
</g>
<defs>
<clipPath id="clip0_30034_168074">
<rect width="20" height="20" fill="white" transform="translate(5.5 5)"/>
</clipPath>
</defs>
</svg>
